<svg id="Layer_1" data-name="Layer 1" xmlns="http://www.w3.org/2000/svg" viewBox="0 0 1000 1000"><defs><style>.cls-1{fill:#b3d1ff;}.cls-2{fill:#e6e6e6;}.cls-3{fill:#202d8a;}.cls-4{fill:#46abe8;}.cls-5{fill:#61b5e8;}.cls-6{fill:#d4d4d4;}.cls-7{fill:#ffbca8;}.cls-8{fill:#35429b;}.cls-9{fill:#ffa387;}.cls-10{fill:#572f14;}.cls-11{fill:#42240f;}.cls-12{fill:#233940;}</style></defs><title>Business Stress</title><path class="cls-1" d="M803.86,648.75A207.24,207.24,0,0,1,786.32,705c-23.07,48.49-62.28,87.61-105.08,120-60.25,45.67-129.88,80.26-204.3,93.58s-153.78,4.4-220.33-31.48C145,827,84.15,701.79,54.23,578.63,44.1,537,36.78,492.6,49.68,451.71c15-47.59,54.58-82.45,85.14-121.91,68-87.82,59-195.32,188.39-232.25,154.86-44.19,305.3,77.55,350.37,220.74,13,41.32,18,86.7,39.83,124.79s57.18,66.55,77.07,106.41C805.71,580,809.22,614.91,803.86,648.75Z"/><path class="cls-2" d="M891.32,659.26c-.13.51-.25,1-.4,1.51s-.33,1.09-.49,1.63-.33,1.09-.49,1.63q-.44,1.39-.93,2.72c-.2.6-.44,1.2-.65,1.8a72.19,72.19,0,0,1-11,20.08c-.31.4-.65.8-1,1.2-9.24,10.91-21.84,16.65-37.79,13.16a56.17,56.17,0,0,1-32.12-20.1A83.41,83.41,0,0,1,795,663.6c-1.34-3.07-2.54-6.19-3.6-9.33-6.16-18.29,4.16-38,21.92-43.13.53-.15,1.05-.29,1.6-.42a32.41,32.41,0,0,1,4.29-.71c11.59-1.11,16.67-9,18-19.67a4.74,4.74,0,0,0,.07-.51c.07-.6.13-1.22.16-1.83a79.78,79.78,0,0,0-1.53-20.28c-5.45-29.05,12.71-32.69,43.58,2.72C895.7,589,899.64,628.13,891.32,659.26Z"/><path class="cls-3" d="M585.5,884.7a316.84,316.84,0,0,1-35.61,16.61c-44.43,17.54-92.57,25.31-140.37,23.73h0c-12-.4-24.06-1.38-36-3a358.46,358.46,0,0,1-105.39-30.74A332.23,332.23,0,0,1,220.62,864c-9.72-6.75-31.65-22.25-40.53-33.61-.52-.66-2.16-2.18-2.78-2.81C229.06,778.25,276.69,723.16,326,671.21l2.61-2.76,8.59-9L418.33,574c.18.94.36,1.91.55,2.87C436.32,669.26,537,803.46,585.5,884.7Z"/><path class="cls-4" d="M970.46,555.12c0,27.49-.33,104.52-.62,159.76-.11,25-.22,46-.25,55.42,0,3.65-2.91,5.45-6.54,7.26h-.29a7.34,7.34,0,0,1-5.37-3L753.46,520.27a27.46,27.46,0,0,1-2.42-3.52A29.59,29.59,0,0,1,747.11,502V231.31a6.88,6.88,0,0,1,10.4-5.88,7.08,7.08,0,0,1,1.91,1.73l194.42,255a4.32,4.32,0,0,1,.51.76C956.37,486.46,970.46,513,970.46,555.12Z"/><path class="cls-5" d="M950.48,529.7c0,27.49-.33,104.52-.62,159.76-.11,25-.22,46-.25,55.42,0,3.65-2.91,5.45-6.54,7.26h-.29a7.34,7.34,0,0,1-5.37-3L751,516.75A29.59,29.59,0,0,1,747.11,502V231.31a6.79,6.79,0,0,1,6.39-6.83,6.62,6.62,0,0,1,4,.94L895.83,406.82l38,49.9a4.32,4.32,0,0,1,.51.76C936.39,461,950.48,487.53,950.48,529.7Z"/><path class="cls-4" d="M895.83,406.82c-.11,30.91-.29,66.32-.44,95.6-.11,25-.22,46.87-.25,56.33,0,3.65-2.91,6.36-6.54,8.17h-.29c-2.09,0-5-2.29-6.28-3.92L747.11,395V231.31a6.79,6.79,0,0,1,6.39-6.83,6.48,6.48,0,0,1,3.1.94Z"/><path class="cls-2" d="M806.19,831.84,672.55,862.91a17.82,17.82,0,0,1-21.45-13.56l-11.51-52.79L580.07,523.4l-5.23-24a17.82,17.82,0,0,1,14-21.28l114.93-22.43a17.81,17.81,0,0,1,20.56,12.64l92,326.26c.13.47.25.94.34,1.43l2.92,15.11A17.79,17.79,0,0,1,806.19,831.84Z"/><path class="cls-6" d="M811.7,829.55l0,0a17.4,17.4,0,0,1-5.47,2.27l-53,12.31-80.7,18.76a17.81,17.81,0,0,1-21.37-13.29,13.4,13.4,0,0,1,9.57-9.77l155.51-40.37,1.07-.29,2.31,11.91c.07.36.13.74.18,1.11A17.85,17.85,0,0,1,811.7,829.55Z"/><path class="cls-6" d="M891.32,659.26c-.13.51-.25,1-.4,1.51s-.33,1.09-.49,1.63-.33,1.09-.49,1.63q-.44,1.39-.93,2.72c-.2.6-.44,1.2-.65,1.8a72.19,72.19,0,0,1-11,20.08c-.31.4-.65.8-1,1.2-9.24,10.91-21.84,16.65-37.79,13.16a56.17,56.17,0,0,1-32.12-20.1c-.54-6.27,2.18-12,10.59-14.94a22.37,22.37,0,0,1,10.68-.64c4.34.67,9.52,3.9,13.8,1.94,9.9-4.54,4.12-18,0-24.31a9.29,9.29,0,0,1-1.09-2.29l-25.62-31.94a32.41,32.41,0,0,1,4.29-.71c11.59-1.11,16.67-9,18-19.67a4.74,4.74,0,0,0,.07-.51c.07-.6.13-1.22.16-1.83Z"/><path class="cls-2" d="M969.84,714.88c-.11,25-.22,46-.25,55.42,0,3.65-2.91,5.45-6.54,7.26h-.29a7.34,7.34,0,0,1-5.37-3L753.46,520.28A29.41,29.41,0,0,1,747.11,502V454.21L950.48,723.09Z"/><path class="cls-6" d="M678.38,779.61a8.11,8.11,0,0,0-3.88-4.64,8.44,8.44,0,0,0-6.21-.55l-3.72,1.14a8,8,0,0,0-5.19,10.09,8.12,8.12,0,0,0,3.88,4.64,8.44,8.44,0,0,0,6.21.55l3.72-1.14a8,8,0,0,0,5.19-10.09Z"/><path class="cls-6" d="M705.36,772.06a8.11,8.11,0,0,0-3.88-4.64,8.44,8.44,0,0,0-6.21-.55L691.55,768a8,8,0,0,0-5.19,10.09,8.12,8.12,0,0,0,3.88,4.64,8.44,8.44,0,0,0,6.21.55l3.72-1.14a8,8,0,0,0,5.19-10.09Z"/><path class="cls-6" d="M730.74,764.58a8.11,8.11,0,0,0-3.88-4.64,8.44,8.44,0,0,0-6.21-.55l-3.72,1.14a8,8,0,0,0-5.19,10.09,8.12,8.12,0,0,0,3.88,4.64,8.44,8.44,0,0,0,6.21.55l3.72-1.14a8,8,0,0,0,5.19-10.09Z"/><path class="cls-6" d="M756.13,757.1a8.11,8.11,0,0,0-3.88-4.64,8.44,8.44,0,0,0-6.21-.55l-3.72,1.14a8,8,0,0,0-5.19,10.09,8.12,8.12,0,0,0,3.88,4.64,8.44,8.44,0,0,0,6.21.55l3.72-1.14a8,8,0,0,0,5.19-10.09Z"/><path class="cls-6" d="M784.65,747.89a8.11,8.11,0,0,0-3.88-4.64,8.44,8.44,0,0,0-6.21-.55l-3.72,1.14a8,8,0,0,0-5.19,10.09,8.12,8.12,0,0,0,3.88,4.64,8.44,8.44,0,0,0,6.21.55l3.72-1.14a8,8,0,0,0,5.19-10.09Z"/><path class="cls-6" d="M686.77,806.52a8.11,8.11,0,0,0-3.88-4.64,8.44,8.44,0,0,0-6.21-.55L673,802.47a8,8,0,0,0-5.19,10.09,8.12,8.12,0,0,0,3.88,4.64,8.44,8.44,0,0,0,6.21.55l3.72-1.14a8,8,0,0,0,5.19-10.09Z"/><path class="cls-6" d="M713.75,799a8.11,8.11,0,0,0-3.88-4.64,8.44,8.44,0,0,0-6.21-.55l-3.72,1.14A8,8,0,0,0,694.75,805a8.12,8.12,0,0,0,3.88,4.64,8.44,8.44,0,0,0,6.21.55l3.72-1.14A8,8,0,0,0,713.75,799Z"/><path class="cls-6" d="M739.13,791.5a8.11,8.11,0,0,0-3.88-4.64,8.44,8.44,0,0,0-6.21-.55l-3.72,1.14a8,8,0,0,0-5.19,10.09,8.12,8.12,0,0,0,3.88,4.64,8.44,8.44,0,0,0,6.21.55l3.72-1.14a8,8,0,0,0,5.19-10.09Z"/><path class="cls-6" d="M764.52,784a8.11,8.11,0,0,0-3.88-4.64,8.44,8.44,0,0,0-6.21-.55L750.7,780a8,8,0,0,0-5.19,10.09,8.12,8.12,0,0,0,3.88,4.64,8.44,8.44,0,0,0,6.21.55l3.72-1.14A8,8,0,0,0,764.52,784Z"/><path class="cls-6" d="M793,774.8a8.11,8.11,0,0,0-3.88-4.64,8.44,8.44,0,0,0-6.21-.55l-3.72,1.14A8,8,0,0,0,774,780.84a8.12,8.12,0,0,0,3.88,4.64,8.44,8.44,0,0,0,6.21.55l3.72-1.14A8,8,0,0,0,793,774.8Z"/><path class="cls-6" d="M670.83,752.62a8.11,8.11,0,0,0-3.88-4.64,8.44,8.44,0,0,0-6.21-.55L657,748.58a8,8,0,0,0-5.19,10.09,8.12,8.12,0,0,0,3.88,4.64,8.44,8.44,0,0,0,6.21.55l3.72-1.14a8,8,0,0,0,5.19-10.09Z"/><path class="cls-6" d="M697.81,745.08a8.11,8.11,0,0,0-3.88-4.64,8.44,8.44,0,0,0-6.21-.55L684,741a8,8,0,0,0-5.19,10.09,8.12,8.12,0,0,0,3.88,4.64,8.44,8.44,0,0,0,6.21.55l3.72-1.14a8,8,0,0,0,5.19-10.09Z"/><path class="cls-6" d="M723.2,737.6a8.11,8.11,0,0,0-3.88-4.64,8.44,8.44,0,0,0-6.21-.55l-3.72,1.14a8,8,0,0,0-5.19,10.09,8.12,8.12,0,0,0,3.88,4.64,8.44,8.44,0,0,0,6.21.55l3.72-1.14a8,8,0,0,0,5.19-10.09Z"/><path class="cls-6" d="M748.58,730.12a8.11,8.11,0,0,0-3.88-4.64,8.44,8.44,0,0,0-6.21-.55l-3.72,1.14a8,8,0,0,0-5.19,10.09,8.12,8.12,0,0,0,3.88,4.64,8.44,8.44,0,0,0,6.21.55l3.72-1.14a8,8,0,0,0,5.19-10.09Z"/><path class="cls-6" d="M777.1,720.9a8.11,8.11,0,0,0-3.88-4.64,8.44,8.44,0,0,0-6.21-.55l-3.72,1.14a8,8,0,0,0-5.19,10.09,8.12,8.12,0,0,0,3.88,4.64,8.44,8.44,0,0,0,6.21.55l3.72-1.14a8,8,0,0,0,5.19-10.09Z"/><path class="cls-6" d="M663.28,725.64A8.11,8.11,0,0,0,659.4,721a8.44,8.44,0,0,0-6.21-.55l-3.72,1.14a8,8,0,0,0-5.19,10.09,8.12,8.12,0,0,0,3.88,4.64,8.44,8.44,0,0,0,6.21.55l3.72-1.14a8,8,0,0,0,5.19-10.09Z"/><path class="cls-6" d="M690.27,718.09a8.11,8.11,0,0,0-3.88-4.64,8.44,8.44,0,0,0-6.21-.55L676.45,714a8,8,0,0,0-5.19,10.09,8.12,8.12,0,0,0,3.88,4.64,8.44,8.44,0,0,0,6.21.55l3.72-1.14a8,8,0,0,0,5.19-10.09Z"/><path class="cls-6" d="M715.65,710.61a8.11,8.11,0,0,0-3.88-4.64,8.44,8.44,0,0,0-6.21-.55l-3.72,1.14a8,8,0,0,0-5.19,10.09,8.12,8.12,0,0,0,3.88,4.64,8.44,8.44,0,0,0,6.21.55l3.72-1.14a8,8,0,0,0,5.19-10.09Z"/><path class="cls-6" d="M741,703.13a8.11,8.11,0,0,0-3.88-4.64,8.44,8.44,0,0,0-6.21-.55l-3.72,1.14A8,8,0,0,0,722,709.18a8.12,8.12,0,0,0,3.88,4.64,8.44,8.44,0,0,0,6.21.55l3.72-1.14A8,8,0,0,0,741,703.13Z"/><path class="cls-6" d="M769.55,693.91a8.11,8.11,0,0,0-3.88-4.64,8.44,8.44,0,0,0-6.21-.55l-3.72,1.14A8,8,0,0,0,750.55,700a8.12,8.12,0,0,0,3.88,4.64,8.44,8.44,0,0,0,6.21.55l3.72-1.14a8,8,0,0,0,5.19-10.09Z"/><path class="cls-6" d="M655.73,698.65a8.11,8.11,0,0,0-3.88-4.64,8.44,8.44,0,0,0-6.21-.55l-3.72,1.14a8,8,0,0,0-5.19,10.09,8.12,8.12,0,0,0,3.88,4.64,8.44,8.44,0,0,0,6.21.55l3.72-1.14a8,8,0,0,0,5.19-10.09Z"/><path class="cls-6" d="M682.72,691.11a8.11,8.11,0,0,0-3.88-4.64,8.44,8.44,0,0,0-6.21-.55l-3.72,1.14a8,8,0,0,0-5.19,10.09,8.12,8.12,0,0,0,3.88,4.64,8.44,8.44,0,0,0,6.21.55l3.72-1.14a8,8,0,0,0,5.19-10.09Z"/><path class="cls-6" d="M708.1,683.63a8.11,8.11,0,0,0-3.88-4.64,8.44,8.44,0,0,0-6.21-.55l-3.72,1.14a8,8,0,0,0-5.19,10.09,8.12,8.12,0,0,0,3.88,4.64,8.44,8.44,0,0,0,6.21.55l3.72-1.14a8,8,0,0,0,5.19-10.09Z"/><path class="cls-6" d="M733.49,676.15a8.11,8.11,0,0,0-3.88-4.64,8.44,8.44,0,0,0-6.21-.55l-3.72,1.14a8,8,0,0,0-5.19,10.09,8.12,8.12,0,0,0,3.88,4.64,8.44,8.44,0,0,0,6.21.55l3.72-1.14a8,8,0,0,0,5.19-10.09Z"/><path class="cls-6" d="M762,666.93a8.11,8.11,0,0,0-3.88-4.64,8.44,8.44,0,0,0-6.21-.55l-3.72,1.14A8,8,0,0,0,743,673a8.12,8.12,0,0,0,3.88,4.64,8.44,8.44,0,0,0,6.21.55l3.72-1.14A8,8,0,0,0,762,666.93Z"/><path class="cls-6" d="M648.19,671.67A8.11,8.11,0,0,0,644.3,667a8.44,8.44,0,0,0-6.21-.55l-3.72,1.14a8,8,0,0,0-5.19,10.09,8.12,8.12,0,0,0,3.88,4.64,8.44,8.44,0,0,0,6.21.55l3.72-1.14a8,8,0,0,0,5.19-10.09Z"/><path class="cls-6" d="M675.17,664.12a8.11,8.11,0,0,0-3.88-4.64,8.44,8.44,0,0,0-6.21-.55l-3.72,1.14a8,8,0,0,0-5.19,10.09,8.12,8.12,0,0,0,3.88,4.64,8.44,8.44,0,0,0,6.21.55l3.72-1.14a8,8,0,0,0,5.19-10.09Z"/><path class="cls-6" d="M700.56,656.64a8.11,8.11,0,0,0-3.88-4.64,8.44,8.44,0,0,0-6.21-.55l-3.72,1.14a8,8,0,0,0-5.19,10.09,8.12,8.12,0,0,0,3.88,4.64,8.44,8.44,0,0,0,6.21.55l3.72-1.14a8,8,0,0,0,5.19-10.09Z"/><path class="cls-6" d="M725.94,649.16a8.11,8.11,0,0,0-3.88-4.64,8.44,8.44,0,0,0-6.21-.55l-3.72,1.14a8,8,0,0,0-5.19,10.09,8.12,8.12,0,0,0,3.88,4.64,8.44,8.44,0,0,0,6.21.55l3.72-1.14a8,8,0,0,0,5.19-10.09Z"/><path class="cls-6" d="M754.46,639.94a8.11,8.11,0,0,0-3.88-4.64,8.44,8.44,0,0,0-6.21-.55l-3.72,1.14A8,8,0,0,0,735.46,646a8.12,8.12,0,0,0,3.88,4.64,8.44,8.44,0,0,0,6.21.55l3.72-1.14a8,8,0,0,0,5.19-10.09Z"/><path class="cls-6" d="M640.64,644.68a8.11,8.11,0,0,0-3.88-4.64,8.44,8.44,0,0,0-6.21-.55l-3.72,1.14a8,8,0,0,0-5.19,10.09,8.12,8.12,0,0,0,3.88,4.64,8.44,8.44,0,0,0,6.21.55l3.72-1.14a8,8,0,0,0,5.19-10.09Z"/><path class="cls-6" d="M667.63,637.13a8.11,8.11,0,0,0-3.88-4.64,8.44,8.44,0,0,0-6.21-.55l-3.72,1.14a8,8,0,0,0-5.19,10.09,8.12,8.12,0,0,0,3.88,4.64,8.44,8.44,0,0,0,6.21.55l3.72-1.14a8,8,0,0,0,5.19-10.09Z"/><path class="cls-6" d="M693,629.65a8.11,8.11,0,0,0-3.88-4.64,8.44,8.44,0,0,0-6.21-.55l-3.72,1.14A8,8,0,0,0,674,635.7a8.12,8.12,0,0,0,3.88,4.64,8.44,8.44,0,0,0,6.21.55l3.72-1.14A8,8,0,0,0,693,629.65Z"/><path class="cls-6" d="M718.39,622.17a8.11,8.11,0,0,0-3.88-4.64,8.44,8.44,0,0,0-6.21-.55l-3.72,1.14a8,8,0,0,0-5.19,10.09,8.12,8.12,0,0,0,3.88,4.64,8.44,8.44,0,0,0,6.21.55l3.72-1.14a8,8,0,0,0,5.19-10.09Z"/><path class="cls-6" d="M746.91,613a8.11,8.11,0,0,0-3.88-4.64,8.44,8.44,0,0,0-6.21-.55l-3.72,1.14A8,8,0,0,0,727.91,619a8.12,8.12,0,0,0,3.88,4.64,8.44,8.44,0,0,0,6.21.55l3.72-1.14A8,8,0,0,0,746.91,613Z"/><path class="cls-6" d="M633.09,617.7a8.11,8.11,0,0,0-3.88-4.64,8.44,8.44,0,0,0-6.21-.55l-3.72,1.14a8,8,0,0,0-5.19,10.09,8.12,8.12,0,0,0,3.88,4.64,8.44,8.44,0,0,0,6.21.55l3.72-1.14a8,8,0,0,0,5.19-10.09Z"/><path class="cls-6" d="M660.08,610.15a8.11,8.11,0,0,0-3.88-4.64A8.44,8.44,0,0,0,650,605l-3.72,1.14a8,8,0,0,0-5.19,10.09,8.12,8.12,0,0,0,3.88,4.64,8.44,8.44,0,0,0,6.21.55l3.72-1.14a8,8,0,0,0,5.19-10.09Z"/><path class="cls-6" d="M685.46,602.67a8.11,8.11,0,0,0-3.88-4.64,8.44,8.44,0,0,0-6.21-.55l-3.72,1.14a8,8,0,0,0-5.19,10.09,8.12,8.12,0,0,0,3.88,4.64,8.44,8.44,0,0,0,6.21.55l3.72-1.14a8,8,0,0,0,5.19-10.09Z"/><path class="cls-6" d="M710.84,595.19a8.11,8.11,0,0,0-3.88-4.64,8.44,8.44,0,0,0-6.21-.55L697,591.14a8,8,0,0,0-5.19,10.09,8.12,8.12,0,0,0,3.88,4.64,8.44,8.44,0,0,0,6.21.55l3.72-1.14a8,8,0,0,0,5.19-10.09Z"/><path class="cls-6" d="M739.37,586a8.11,8.11,0,0,0-3.88-4.64,8.44,8.44,0,0,0-6.21-.55l-3.72,1.14A8,8,0,0,0,720.36,592a8.12,8.12,0,0,0,3.88,4.64,8.44,8.44,0,0,0,6.21.55l3.72-1.14A8,8,0,0,0,739.37,586Z"/><path class="cls-6" d="M625.55,590.71a8.11,8.11,0,0,0-3.88-4.64,8.44,8.44,0,0,0-6.21-.55l-3.72,1.14a8,8,0,0,0-5.19,10.09,8.12,8.12,0,0,0,3.88,4.64,8.44,8.44,0,0,0,6.21.55l3.72-1.14a8,8,0,0,0,5.19-10.09Z"/><path class="cls-6" d="M652.53,583.16a8.11,8.11,0,0,0-3.88-4.64,8.44,8.44,0,0,0-6.21-.55l-3.72,1.14a8,8,0,0,0-5.19,10.09,8.12,8.12,0,0,0,3.88,4.64,8.44,8.44,0,0,0,6.21.55l3.72-1.14a8,8,0,0,0,5.19-10.09Z"/><path class="cls-6" d="M677.92,575.68A8.11,8.11,0,0,0,674,571a8.44,8.44,0,0,0-6.21-.55l-3.72,1.14a8,8,0,0,0-5.19,10.09,8.12,8.12,0,0,0,3.88,4.64,8.44,8.44,0,0,0,6.21.55l3.72-1.14a8,8,0,0,0,5.19-10.09Z"/><path class="cls-6" d="M703.3,568.2a8.11,8.11,0,0,0-3.88-4.64,8.44,8.44,0,0,0-6.21-.55l-3.72,1.14a8,8,0,0,0-5.19,10.09,8.12,8.12,0,0,0,3.88,4.64,8.44,8.44,0,0,0,6.21.55l3.72-1.14a8,8,0,0,0,5.19-10.09Z"/><path class="cls-6" d="M731.82,559a8.11,8.11,0,0,0-3.88-4.64,8.44,8.44,0,0,0-6.21-.55L718,554.94A8,8,0,0,0,712.82,565a8.12,8.12,0,0,0,3.88,4.64,8.44,8.44,0,0,0,6.21.55l3.72-1.14A8,8,0,0,0,731.82,559Z"/><path class="cls-6" d="M618,563.72a8.11,8.11,0,0,0-3.88-4.64,8.44,8.44,0,0,0-6.21-.55l-3.72,1.14A8,8,0,0,0,599,569.77a8.12,8.12,0,0,0,3.88,4.64,8.44,8.44,0,0,0,6.21.55l3.72-1.14A8,8,0,0,0,618,563.72Z"/><path class="cls-6" d="M645,556.18a8.11,8.11,0,0,0-3.88-4.64,8.44,8.44,0,0,0-6.21-.55l-3.72,1.14A8,8,0,0,0,626,562.22a8.12,8.12,0,0,0,3.88,4.64,8.44,8.44,0,0,0,6.21.55l3.72-1.14A8,8,0,0,0,645,556.18Z"/><path class="cls-6" d="M670.37,548.7a8.11,8.11,0,0,0-3.88-4.64,8.44,8.44,0,0,0-6.21-.55l-3.72,1.14a8,8,0,0,0-5.19,10.09,8.12,8.12,0,0,0,3.88,4.64,8.44,8.44,0,0,0,6.21.55l3.72-1.14a8,8,0,0,0,5.19-10.09Z"/><path class="cls-6" d="M695.75,541.22a8.11,8.11,0,0,0-3.88-4.64,8.44,8.44,0,0,0-6.21-.55l-3.72,1.14a8,8,0,0,0-5.19,10.09,8.12,8.12,0,0,0,3.88,4.64,8.44,8.44,0,0,0,6.21.55l3.72-1.14a8,8,0,0,0,5.19-10.09Z"/><path class="cls-6" d="M724.27,532a8.11,8.11,0,0,0-3.88-4.64,8.44,8.44,0,0,0-6.21-.55L710.46,528A8,8,0,0,0,705.27,538a8.12,8.12,0,0,0,3.88,4.64,8.44,8.44,0,0,0,6.21.55l3.72-1.14A8,8,0,0,0,724.27,532Z"/><path class="cls-6" d="M610.45,536.74a8.11,8.11,0,0,0-3.88-4.64,8.44,8.44,0,0,0-6.21-.55l-3.72,1.14a8,8,0,0,0-5.19,10.09,8.12,8.12,0,0,0,3.88,4.64,8.44,8.44,0,0,0,6.21.55l3.72-1.14a8,8,0,0,0,5.19-10.09Z"/><path class="cls-6" d="M637.44,529.19a8.11,8.11,0,0,0-3.88-4.64,8.44,8.44,0,0,0-6.21-.55l-3.72,1.14a8,8,0,0,0-5.19,10.09,8.12,8.12,0,0,0,3.88,4.64,8.44,8.44,0,0,0,6.21.55l3.72-1.14a8,8,0,0,0,5.19-10.09Z"/><path class="cls-6" d="M662.82,521.71a8.11,8.11,0,0,0-3.88-4.64,8.44,8.44,0,0,0-6.21-.55L649,517.66a8,8,0,0,0-5.19,10.09,8.12,8.12,0,0,0,3.88,4.64,8.44,8.44,0,0,0,6.21.55l3.72-1.14a8,8,0,0,0,5.19-10.09Z"/><path class="cls-6" d="M688.2,514.23a8.11,8.11,0,0,0-3.88-4.64,8.44,8.44,0,0,0-6.21-.55l-3.72,1.14a8,8,0,0,0-5.19,10.09,8.12,8.12,0,0,0,3.88,4.64,8.44,8.44,0,0,0,6.21.55l3.72-1.14a8,8,0,0,0,5.19-10.09Z"/><path class="cls-6" d="M716.73,505a8.11,8.11,0,0,0-3.88-4.64,8.44,8.44,0,0,0-6.21-.55L702.91,501a8,8,0,0,0-5.19,10.09,8.12,8.12,0,0,0,3.88,4.64,8.44,8.44,0,0,0,6.21.55l3.72-1.14A8,8,0,0,0,716.73,505Z"/><path class="cls-6" d="M602.91,509.75a8.11,8.11,0,0,0-3.88-4.64,8.44,8.44,0,0,0-6.21-.55l-3.72,1.14a8,8,0,0,0-5.19,10.09,8.12,8.12,0,0,0,3.88,4.64A8.44,8.44,0,0,0,594,521l3.72-1.14a8,8,0,0,0,5.19-10.09Z"/><path class="cls-6" d="M629.89,502.21a8.11,8.11,0,0,0-3.88-4.64,8.44,8.44,0,0,0-6.21-.55l-3.72,1.14a8,8,0,0,0-5.19,10.09,8.12,8.12,0,0,0,3.88,4.64,8.44,8.44,0,0,0,6.21.55l3.72-1.14a8,8,0,0,0,5.19-10.09Z"/><path class="cls-6" d="M655.27,494.73a8.11,8.11,0,0,0-3.88-4.64,8.44,8.44,0,0,0-6.21-.55l-3.72,1.14a8,8,0,0,0-5.19,10.09,8.12,8.12,0,0,0,3.88,4.64,8.44,8.44,0,0,0,6.21.55l3.72-1.14a8,8,0,0,0,5.19-10.09Z"/><path class="cls-6" d="M680.66,487.25a8.11,8.11,0,0,0-3.88-4.64,8.44,8.44,0,0,0-6.21-.55l-3.72,1.14a8,8,0,0,0-5.19,10.09,8.12,8.12,0,0,0,3.88,4.64,8.44,8.44,0,0,0,6.21.55l3.72-1.14a8,8,0,0,0,5.19-10.09Z"/><path class="cls-6" d="M709.18,478a8.11,8.11,0,0,0-3.88-4.64,8.44,8.44,0,0,0-6.21-.55L695.36,474a8,8,0,0,0-5.19,10.09,8.12,8.12,0,0,0,3.88,4.64,8.44,8.44,0,0,0,6.21.55l3.72-1.14A8,8,0,0,0,709.18,478Z"/><path class="cls-6" d="M676.74,731.71c-6.66,42-11.09,64.9-37.15,64.84L580.07,523.4,650,477l23.81,112.66s-23.24,10.39-33.12,55,40.91,18,40.91,18,24.15,6.61,26.55,20.94S684.59,682.28,676.74,731.71Z"/><path class="cls-7" d="M686.69,523.09a37,37,0,0,1-3.14,14.33c-10.9,22.84-7.26,35.41-7.26,35.41a46.25,46.25,0,0,1-.67,10.62c-1.45,7.3-7.48,15.33-17.94,2.09a141.4,141.4,0,0,1-17.8-30.07c-.85-1.94-1.27-3.07-1.27-3.07s-3.7,18.27-22.72,24.86a38.12,38.12,0,0,1-5.43,1.47c-23.75,4.69-42.67,34.5-42.67,34.5l-44-80.35s30.83-68.06,93.06-71.27C660.85,459.33,687.78,496.1,686.69,523.09Z"/><path class="cls-3" d="M526.48,908.3c-4.5,1.87-8.79,3.45-13,4.79-15,4.9-28.6,7-45.14,9.28-56.2,7.81-118.85,1.45-171.83-17.2-1.51-.53-3-1.07-4.5-1.62l-.91-.33q-8.34-3.1-16.52-6.76c-1.33-.58-2.65-1.18-4-1.82s-2.92-1-4.38-1.74c-18.92-9.22-38-20.14-53.94-33.93-.73-.63-1.5-1.2-2.24-1.83-.36-.31-.73-.69-1.09-1l175.41-160.3s3.65,8.44,10.37,22.21c15.36,31.52,46.74,91,86.93,141.24q7.44,9.32,15.25,18.1C506.16,887.78,516.58,899.68,526.48,908.3Z"/><path class="cls-8" d="M526.48,908.3c-4.5,1.87-8.79,3.45-13,4.79a351.53,351.53,0,0,1-104,11.55h0c-27.78-1.82-55.13-9-80.28-17.85-1.51-.53-3-1-4.5-1.51-.31-.11-.6-.18-.91-.29-5.56-2.07-11.06-4.29-16.52-6.72-1.33-.58-2.65-1.18-4-1.82s-2.92-1-4.38-1.72c-17.14-8.28-33.7-19.12-49.45-30h0a2.3,2.3,0,0,0,0-.33c-2.23-1.72-4.47-3.63-6.68-5.41-.36-.31-.73-.69-1.09-1l153.1-139.91c15.36,31.52,46.74,91,86.93,141.24q7.44,9.32,15.25,18.1C506.16,887.78,516.58,899.68,526.48,908.3Z"/><path class="cls-2" d="M587.73,602.84l-9.28,11.24L554.7,642.84a9.63,9.63,0,0,1-15.13-.36l-27.4-36.63-21.9-29.24a9.62,9.62,0,0,1-.15-11.33L514,531.51a9.6,9.6,0,0,1,17,2.69c5.23,16.78,18.69,39.3,52.9,53.6A9.65,9.65,0,0,1,587.73,602.84Z"/><path class="cls-9" d="M639.88,555.46c-.85-1.94-1.27-3.07-1.27-3.07s-3.7,18.27-22.72,24.86A54.1,54.1,0,0,0,622.41,566c5.27-12.51,6.54-25.66,6.83-39C633.13,534.6,639.06,546.18,639.88,555.46Z"/><path class="cls-6" d="M542.36,595.88c20.43-4.2,34.63,20,21.35,36l-9,10.92a9.63,9.63,0,0,1-15.13-.36l-27.4-36.63-5.21-33s18,26.78,35,23.15Z"/><path class="cls-9" d="M676.74,579.18c-10.91-19.87-21.3-39.51-25-61.9a3,3,0,0,1,4.12-3.16c11.16-2.19,20.9,1.06,28.8,7.31a4.84,4.84,0,0,1,1.82,4.23,34.78,34.78,0,0,1-3,11.76c-10,20.94-7.77,33.24-7.33,35.15a4.29,4.29,0,0,1,.09.66Z"/><path class="cls-8" d="M470.81,572.57c-4,5.79-10,12.13-19.85,19.68a29.57,29.57,0,0,1-6.74,4c-7.14,2.91-13,.78-17.83-4.5-11.84-13-17.36-44.94-19.9-68.33a29.82,29.82,0,0,0-34.74-26.28c-22.21,4-50,16.51-63.61,52.31a129.65,129.65,0,0,0-7.54,33.9C294,652,321.21,696.1,366.19,717.84,388.62,728.7,415.48,734,444.77,734a107.72,107.72,0,0,0,39.64-7.55c26.69-10.48,47.72-30.47,61.5-50.92A122,122,0,0,0,561.46,644a13.59,13.59,0,0,0-4.71-14.88c-12.24-9.24-37.77-31.41-55.06-66.38a13.56,13.56,0,0,0-23.41-1.42Z"/><path class="cls-3" d="M544.91,677c-19.76,28.58-50.59,47.43-84.62,53.64-29.39,5.36-60.16,1.49-87.74-9.79a10.07,10.07,0,0,1-4.15-2.59c-5.52-6.7,9.93-25.84,12.82-31.88l9.67-20.26,35.5-74.36c4.81,5.28,10.7,7.41,17.83,4.5q3.7,16.86,8.11,33.56a32.3,32.3,0,0,0,17.69,21c12.71,5.8,23.57.76,34.79-5.23,18.44-9.84,34.49,11.56,39.94,26.75C545.38,673.92,545.89,675.57,544.91,677Z"/><path class="cls-2" d="M611.46,741.37a249.35,249.35,0,0,0-40,42.45c-3.18,4.36-6.25,8.93-9.1,13.71-22.63,37.75-81.88-58.87-54.42-99.13a7,7,0,0,1,2-1.92c4.47-2.94,21.39-14.91,41.91-40.29a7.42,7.42,0,0,1,13.2,4.67c-.05,18.65,5.59,42.51,29.83,59.61A90.85,90.85,0,0,0,609.7,729,7.42,7.42,0,0,1,611.46,741.37Z"/><path class="cls-6" d="M611.46,741.37a249.35,249.35,0,0,0-40,42.45l-13.18,5.08L531,700.84s21.48,25,40.4,27.24c12,1.43,19.52-3.67,23.44-7.61A90.85,90.85,0,0,0,609.7,729,7.42,7.42,0,0,1,611.46,741.37Z"/><path class="cls-6" d="M425.7,601.88c-56.6,72.94-35,184.76-35,184.76s-53.13,5.85-109-17.52C306.07,733,346.85,669,356.55,646.89c7.43-17,19.07-31.72,28.82-47.47s17.89-33.54,17-52.06c-.35-6.86-1.72-14.56,2.52-20,3.09-3.9,8.14-5.3,13.22-5.87C436.09,551.61,442.1,580.72,425.7,601.88Z"/><path class="cls-7" d="M714.84,679.61a9.73,9.73,0,0,1-4.29,6.63,1.52,1.52,0,0,1-.29.16,7,7,0,0,1-1.8.69c-7.54,1.78-12.2-4.49-16.12-9.62-1.74-2.29-4.12-4.92-7.17-5.32a7.12,7.12,0,0,0-6.61,3.27l.62,1.74c2.82,8.08,14.25,42,11.19,53.19-9,32.69-24.37,16.94-25.42,9.08s-7.41-20.57-17.7-14.07-30.42,10.44-30.42,10.44-21,5.45-45.85-35,6.36-59.47,6.36-59.47,13-8.48,19.52-18.16,2-20.57,14.87-16.71,2.83,29.42,2.83,29.42a113,113,0,0,1,62.83,5.74c10.2,4,20.37,9.51,28,17.49a46.51,46.51,0,0,1,7.37,10.42,22,22,0,0,1,1.74,4.47A13.45,13.45,0,0,1,714.84,679.61Z"/><path class="cls-2" d="M418.07,521.53c-5.08.56-10.13,2-13.22,5.87-4.25,5.41-2.87,13.11-2.52,20,.93,18.52-7.19,36.3-17,52.06S364,629.91,356.55,646.89C346.85,669,306.07,733,281.74,769.12,239.17,751.36,195,716.64,171.48,649.54,117,494.29,193.27,375,243.21,383.52,290.64,391.56,380.48,458.7,418.07,521.53Z"/><path class="cls-7" d="M503.62,299.66q-.05.68-.16,1.36-.27,2-.65,4l-.38,1.8s0,.15-.13.42a.89.89,0,0,1-.07.2c-.58,1.63-2.25,6.27-4.61,11.59a.67.67,0,0,1-.07.16c-1.05,2.38-2.25,4.88-3.54,7.32-.13.25-.27.51-.4.74-3.43,6.34-7.52,12.08-11.62,13.64a5.91,5.91,0,0,1-2.25.44,24.66,24.66,0,0,0-7.32,4.94,29.63,29.63,0,0,0-3.78,4.25c-4,.94-5,5.7-5.14,10.28a42.8,42.8,0,0,0-1.58,7.17,65.58,65.58,0,0,0,1.36,22.37c0,.15.07.31.11.47,8.93,39.95-19.83,97.75-54.48,116.67,0,0-.38.25-1.07.82-.47.35-1.07.84-1.8,1.45s-1.69,1.47-2.71,2.43c-8.35,7.88-24.17,26.19-34.07,58.76-3.58,11.75-20.43,10.79-22.66-1.29a124.71,124.71,0,0,1-.8-37.66c.07-.64.15-1.29.2-1.92s.11-1.27.15-1.91a55.31,55.31,0,0,0,0-7.55,3.91,3.91,0,0,0,0-.45c-1-16.52-8.53-29.4-18-39.15l0,0c-18.38-18.85-44-26.15-44-26.15s-21.48-17.31-24.28-41.07a42.18,42.18,0,0,1,.22-11.59c2.81-17.69,12.84-15.47,20.45-10.88a50.1,50.1,0,0,1,9,7.25.31.31,0,0,0,0-.16v0c1.82-1.67,8-15,12.09-29.14a7.47,7.47,0,0,1,.42-1,2.57,2.57,0,0,0,.18-.64c0-.07,0-.13,0-.18v0a7.81,7.81,0,0,1,.51-2.14c.07-.24.09-.45.14-.69,2.94-10.8,3.8-22.17,6.72-33,3.52-13,8.9-27.76,19.32-36.93.33-.29.67-.58,1-.87.95-.76,1.89-1.49,2.85-2.2.49-.34,1-.69,1.47-1s1-.67,1.49-1,1.31-.82,2-1.2A62.38,62.38,0,0,1,366,279.65c.71-.05,1.43-.09,2.16-.13l1.49-.05c.58,0,1.16,0,1.74,0,1.31,0,2.61,0,4,.11,7,.38,13.55.42,19.61.18.2,0,.4,0,.6,0,2.42-.09,4.76-.24,7-.42.25,0,.51,0,.78-.05a153.1,153.1,0,0,0,30.6-5.39l.27-.05c.53-.11,1.05-.22,1.58-.31,3.61-.73,7.45-1.47,11.06-2.49l.11,0a37.79,37.79,0,0,0,7.3-2.76l0,0a38.1,38.1,0,0,1,3.85-1.25,58.37,58.37,0,0,1,6.79-1.31l-.34-.15a58.62,58.62,0,0,1,14.07,0,35.26,35.26,0,0,1,12,3.58l.91.51a9,9,0,0,1,.89.54l.76.49a20.52,20.52,0,0,1,2.23,1.74c.36.31.73.65,1.07,1a.22.22,0,0,1,.09.09c.36.35.71.73,1,1.11s.54.62.8.94l.34.45.65.93.44.67a6.17,6.17,0,0,1,.35.58l.44.76A21.23,21.23,0,0,1,502,282c.2.53.38,1.09.56,1.65l.05.16A39.4,39.4,0,0,1,503.62,299.66Z"/><path class="cls-9" d="M710.55,686.24a1.52,1.52,0,0,1-.29.16,7,7,0,0,1-1.8.69c-7.54,1.78-12.2-4.49-16.12-9.62-1.74-2.29-4.12-4.92-7.17-5.32a7.12,7.12,0,0,0-6.61,3.27l.62,1.74c-4.52-6.85-9.46-13.13-16.32-16.63-2.23-1.14-1.4-4.25.65-5C686.35,647.46,698.5,670.34,710.55,686.24Z"/><path class="cls-9" d="M328.1,480.94c-18.38-18.85-44-26.15-44-26.15s-21.48-17.31-24.28-41.07c4.47-7.83,13.56-19.54,20.66-22.46,3.92-1.62,7.23-.56,8.81,5.27a11.59,11.59,0,0,1,.35,1.8s0,0,0,0c.65,4.63-.62,9.81-.49,14.38a75,75,0,0,0,3.12,19.12c4.07,13.56,11.82,24.64,21.9,34.43C319,471,324,475.64,328.1,480.94Z"/><path class="cls-9" d="M403.33,512.16c-8.35,7.88-24.17,26.19-34.07,58.76-3.58,11.75-20.43,10.79-22.66-1.29a124.71,124.71,0,0,1-.8-37.66c.07-.64.15-1.29.2-1.92s.11-1.29.15-1.91a55.31,55.31,0,0,0,0-7.55,3.91,3.91,0,0,0,0-.45c1.25-.09,2.45-.2,3.56-.33L397.1,514a2.38,2.38,0,0,1,2.56-2C400.88,512,402.11,512.1,403.33,512.16Z"/><path class="cls-6" d="M399.37,589.8q-13.29,33-28.73,65.13c-8.06,16.65-15.73,37.44-30.73,49.26-14.24,11.2-31.63,8.68-46.58.25C276.6,695,261,682.25,245.84,670.52c-29.8-23-58.05-49.77-75.36-83.77-18.49-36.32-19-76-17.4-115.76.65-16.05,2-33.14,14.27-44.92,7-6.72,16-10.82,24.53-15.23q13.92-7.16,27.84-14.36a47.88,47.88,0,0,1,18.21-26.17c9.5-6.85,18.54,8.92,9.15,15.69-15.53,11.2-12.67,33.38-6.77,48.88C248,455,260,474.06,270,493.13c10.57,20.08,20.92,40.33,31.72,60.29,3.25,6,7.81,15.31,16,12.4,9.39-3.32,11.68-15.91,13.78-24.31a9.17,9.17,0,0,1,11.17-6.34c16.2,4.94,16.51,22.61,11.69,36-3.07,8.57-5.14,17.8,6.92,18.88,9,.82,17.67-5.81,24.75-10.51C392.29,575.4,402.35,582.47,399.37,589.8Z"/><path class="cls-3" d="M567.3,801.39a94.92,94.92,0,0,1-12.62,13.75c-50.59,45.87-121.1,63.21-189.23,67.6-57.76,3.74-119.37-1.8-166.4-35.54-21.43-15.38-38.68-35.85-54-57.31q-14-19.64-26.06-40.51c-19.76-34-35.83-70.2-48.81-107.35q-4.58-13.1-8.64-26.4c-.31-1-.64-2-.94-3.05l-1.52-5.08q-8.53-29-14.62-58.67c-1.33-6.46-3-13.78-4-21.26,0-.15,0-.29-.05-.42-2-14.51-1.67-29.56,7.72-39.89.18-.2.36-.38.53-.58a95.28,95.28,0,0,1,17.51-15c10.37-6.88,21.84-11.6,34.79-15.33,14.73-4.23,30.12-7.75,43.89-14.13l1.05-.51a79.55,79.55,0,0,0,16.89-10.62,9.32,9.32,0,0,0,.78-.69c.34-.27.71-.58,1.05-.91,10.26-9.19,17.83-21.28,26.26-32.3A.74.74,0,0,0,191,397c6.86-9,14.31-17.29,24.22-22.66,11.88-6.45,25.49-7.39,38.66-4.45l1,.22a73.83,73.83,0,0,1,8.37,2.54c.2.07.4.14.6.24a77.85,77.85,0,0,1,9.48,4.3,81.26,81.26,0,0,1,18.4,13.42,48.83,48.83,0,0,1-27.64,32.54c-4-11.26-10.37-24.39-22.28-25.46-12.15-1.11-21.19,12-22.48,24.1-1.2,11,1.56,21.61,6.19,31.7q.76,1.63,1.58,3.27c5.08,10.17,11.93,19.87,18.38,29.16q7,10.08,13.62,20.41c1.43,2.23,2.85,4.47,4.25,6.72a.46.46,0,0,0,.07.13,695.26,695.26,0,0,1,50.28,96.15c5.28,12.35,10.5,25.19,16.67,37.3.49,1,1,1.92,1.49,2.87,8.92,16.83,19.9,32,35.85,42.11,1,.6,1.94,1.2,2.92,1.74,16,9.13,35,12.11,53.6,10.86a.55.55,0,0,1,.18,0c2.74-.2,5.47-.49,8.19-.85,22.23-3.05,43.34-11.69,63.81-20.9,2.12-1,4.3-1.11,6.5-2.92h0c2.87,0,5.83-1.58,8.86-1.56a21,21,0,0,1,12.66,4.76c.87,2.61,1.71,5.29,2.6,7.91a89,89,0,0,0,3.16,8.38c4.56,11.22,10.51,19.11,16.29,27.3.4.74.82,1.49,1.25,2.22a52.7,52.7,0,0,0,4.45,6.23c3.18,3.9,6.79,7.52,10.28,11.19,6,6.34,11.69,12.82,14,21.14C579.68,779.09,574.94,791.05,567.3,801.39Z"/><path class="cls-8" d="M561.18,756.37c0,7.28-3.42,14-8.31,20.65l-.4.53c-30,40.11-81.11,57.91-130,69.15-40,9.21-81,15.53-122,13.27s-82.13-13.55-115.76-37.08c-41.13-28.8-68.19-73.54-89.23-119.12a724.21,724.21,0,0,1-33.94-88.14c-.31-1-.64-2-.94-3.05l-1.52-5.08q-9.34-31.13-15.83-63c-1.11-5.47-2.16-11.17-2.81-16.91,0-.15,0-.29-.05-.42-1.58-14.36-.6-28.93,8.24-40.48.74-1,1.54-1.94,2.42-2.89a69,69,0,0,1,15.09-12.11c9.46-5.74,20.1-9.66,30.58-13,15.87-5.1,32.89-9.15,48.1-16.43l1.05-.51a85.94,85.94,0,0,0,17.67-11.31c.34-.27.71-.58,1.05-.91a11.63,11.63,0,0,0,.89-.76c10-9,17.2-20.79,25.37-31.54A.74.74,0,0,0,191,397c5-6.46,10.28-12.55,16.8-17.38,13-9.66,30.25-13,46.09-9.73l1,.22a56.3,56.3,0,0,1,8.37,2.54c.2.07.4.14.6.24a53.57,53.57,0,0,1,9,4.67,45.85,45.85,0,0,1-23.42,21.83c-2.91-8.93-6.65-18.81-15.2-22.66-9.15-4.12-20.57,1.09-25.75,9.68s-5.16,19.45-2.72,29.18c3.5,13.95,11.31,26.11,19.76,37.92,3.61,5,7.35,10,10.91,15.07A405.54,405.54,0,0,1,263.31,513a.46.46,0,0,0,.07.13c23.7,44.85,41.69,93.12,68.44,136.32q1.14,1.88,2.34,3.76c9.75,15.36,21.17,30.43,36.43,40.09,1.69,1.07,3.43,2.09,5.23,3,15.09,7.88,31.6,9.64,48.37,7.84a.55.55,0,0,1,.18,0c14-1.53,27.7-5.47,40.94-10.24,11.88-4.28,23.82-11.31,36.19-13.82,25.44-5.15,28.15,21.37,38.91,37.69,6.23,9.44,13.82,18.17,18.49,28.56A24.46,24.46,0,0,1,561.18,756.37Z"/><path class="cls-3" d="M496.94,877.42c-14.09,7.63-29.38,15-44.94,21.7a215.91,215.91,0,0,1-155.46,6.07c-1.51-.53-3-1.07-4.5-1.62l-.91-.33q-8.34-3.1-16.52-6.76c-1.33-.58-2.65-1.18-4-1.82s-2.92-1.34-4.38-2.05a287.93,287.93,0,0,1-49.45-30.32c28.85,12.18,66.55,17.36,91.77,18.78,43.22,2.43,110.37,3,173.11-21.75Q489.12,868.63,496.94,877.42Z"/><path class="cls-3" d="M388.06,701.39c-14.22,27-46.83,78.23-104.07,113.49a234.1,234.1,0,0,1-86.14,31.85q-10.65-9.26-20.45-19A374.21,374.21,0,0,1,116.2,748c10.53-1.16,24.62-.87,43.18,2.51,53.51,9.72,134.94-9,183.28-83.33C354.35,682.88,369.12,695.92,388.06,701.39Z"/><path class="cls-9" d="M415.2,341.88a2.67,2.67,0,0,0-1.77-1.91l-.93-.31a2.79,2.79,0,0,0-1.84-2.28,35.38,35.38,0,0,0-19.13-1.54c-13.09-.19-25.14,4.6-26.26,20.69a2.45,2.45,0,0,0,.16,1c-.45.63-.9,1.26-1.32,1.92-1.91,3,2.8,5.69,4.7,2.75l.29-.42c-.15.47-.32.92-.45,1.41,7.23-4.91,16.13-5.45,25-4.61a9.78,9.78,0,0,1,8.55,12L399.07,384c-.55,2.34-1.11,4.84.19,7.07a3.56,3.56,0,0,0,3.2,1.84c2.49-.15,3.44-2.87,4-5.13l3.84-16.62a9.73,9.73,0,0,1,14-6.52,11.68,11.68,0,0,1,4.09,3.58c1.56,2.24,2.16,5,2.73,7.67,3.38,15.94,9.87,33.88,3.12,49.87a14.82,14.82,0,0,1-3.5,5.18c-5.53,5.1-12.14,3.45-18.25,2.21-3.77-.77-13.06-3.44-14.52,2.07a2.26,2.26,0,0,0,.07,3.6,32.1,32.1,0,0,0,26.7,6.06c15.5-3.65,22.39-17.46,22.65-32.43a67.92,67.92,0,0,0-1.69-16.18c-1.2-5.27-3.66-12.88-.33-17.8a3.09,3.09,0,0,0,.32-.59l0-.12c2.14-5.17,9.95-3.42,9.95,2.17s0,11.23,0,16.84a4,4,0,0,0,3,4c3.28.74,4.71-3.81,4.73-7.11q.12-16.41.24-32.83c0-4.05.92-9.17,4.84-10C450.46,353.28,433,345.65,415.2,341.88Z"/><path class="cls-5" d="M371.71,701c-1.76,2.47-4,5.48-6.68,8.92-17.38,22.12-54.11,61.41-109.46,83.35-61.94,24.55-131.9,18.25-189.36-15.51a19.71,19.71,0,0,1-5.43-29.25l26.13-32.79a19.3,19.3,0,0,1,9.1-6.39c8.68-2.87,26.64-4.85,58.67,7,46.39,17.16,122.43,13.18,177.25-46.34,1.58-1.71,3.14-3.45,4.67-5.25a19.9,19.9,0,0,1,15.82-7.08l1.23,0a19.7,19.7,0,0,1,18.58,15.49l2.67,12.24A19.62,19.62,0,0,1,371.71,701Z"/><path class="cls-3" d="M291.66,390.68a.22.22,0,0,1,.07.25c-.85,2.26-11.94,30.76-27.64,31.64l-.16-.44a2.86,2.86,0,0,0-.15-.42c-12.69-36.34-30.76-33.36-56.89,3.58a67.86,67.86,0,0,0-12.42,33.4,71.61,71.61,0,0,0,14.65,49.69,160.47,160.47,0,0,1,12,18.31,11.85,11.85,0,0,1,1,8.1,9.52,9.52,0,0,1-9.14,6.61,9.4,9.4,0,0,1-7.46-3.65c-15.76-20.1-47.09-51.08-88.49-48-60.83,4.54-64.46,56.29-49,79.9a21.39,21.39,0,0,1,3,6.8c2.86,12.13-15.48,16.68-19,4.74C44,554.78,38.29,527.83,40,500.93c.05-.84.11-1.7.16-2.56a.16.16,0,0,1,0-.07c.25-.55,4.4-9.24,15.88-19.22,1.13-1,2.32-2,3.6-3,11.64-9.15,29.45-18.81,56-24,0,0,30.72-4.68,56.29-30s16.8-38.28,49-49.94,57.45,7.11,57.65,7.26h0Z"/><path class="cls-4" d="M371.71,701c-1.76,2.47-4,5.48-6.68,8.92-5.68-4.72-15.45-14.27-28.4-32.18a56.09,56.09,0,0,1-4.7-7.75c1.58-1.71,3.14-3.45,4.67-5.25a19.9,19.9,0,0,1,15.82-7.08l1.23,0a19.7,19.7,0,0,1,18.58,15.49l2.67,12.24A19.62,19.62,0,0,1,371.71,701Z"/><path class="cls-5" d="M343.29,585.72a9.82,9.82,0,0,0-15,7.92c-.68,17.75.89,45.08,14.3,63.62,21.34,29.51,34,36.32,34,36.32s49.39-104.1,22.7-104S379.48,607.51,343.29,585.72Z"/><path class="cls-10" d="M503.62,299.66q-.05.68-.16,1.36-.27,2-.65,4l-.38,1.8s0,.15-.13.42a.89.89,0,0,1-.07.2,161.12,161.12,0,0,1-6.07,16.72A79.91,79.91,0,0,1,490.36,336c-4.63,7.14-13.56,12.51-21.74,14.45-16.6,3.94-33.85-5.07-50.06-7.86a134.22,134.22,0,0,0-19-2.25c-8.1-.22-17.56-.8-22.9,6.43-2.45,3.3-4,7.23-6.39,10.57s-6.1,6.25-10.21,6-7.41-3.6-10-6.9a19.43,19.43,0,0,0-3.79-4.1,9.77,9.77,0,0,0-1.83-1c-6.23-2.56-11.77,4.54-14.74,9.53a55.29,55.29,0,0,0-4.07,8.33s0,0,0,.06c-.27.62-.51,1.25-.73,1.87a23,23,0,0,1-1.14,2.74c-1.51,3.07-3.56,5-7.5,6.66a10,10,0,0,1-7.12.73l-.09,0c-4.43-1.58-6.79-8.55-6.79-13v-.13a1.2,1.2,0,0,1,.09-.51c0-.05-.05-.11-.09-.18v0a7.81,7.81,0,0,1,.51-2.14c.07-.24.09-.45.14-.69,2.94-10.8,3.8-22.17,6.72-33,3.52-13,8.9-27.76,19.32-36.93.33-.29.67-.58,1-.87.95-.76,1.89-1.49,2.85-2.2.49-.34,1-.69,1.47-1s1-.67,1.49-1,1.31-.82,2-1.2A65.58,65.58,0,0,1,366,279.65c.71-.05,1.43-.09,2.16-.13l1.49-.05c.58,0,1.16,0,1.74,0,7.86-.16,15.71.45,23.57.29.2,0,.4,0,.6,0,1.38,0,2.76-.07,4.16-.18.94-.07,1.89-.15,2.85-.24.25,0,.51,0,.78-.05A163.65,163.65,0,0,0,428.84,275c1.58-.4,3.29-.76,5.07-1.13l.27-.05c.53-.11,1.05-.22,1.58-.31A94.59,94.59,0,0,0,446.82,271l.11,0c2.49-.8,4.85-1.85,7.3-2.76l0,0a38.4,38.4,0,0,1,3.85-1.33c2.14-.54,4.43-1.38,6.79-1.38h0c4.78,0,9.88-.62,14.74.15,0,0,.06.05.09.05,8.84,1.4,16.92,5.54,21.06,13.87C503.87,285.72,504.36,292.84,503.62,299.66Z"/><path class="cls-11" d="M502.22,304.95c-.49,2.11-1.07,4.19-1.71,6.16-.85,2.67-1.82,5.32-2.91,7.9a.67.67,0,0,1-.07.16,67.8,67.8,0,0,1-3.54,7.32c-.13.25-.27.51-.4.74a59.73,59.73,0,0,1-4.45,6.57,40,40,0,0,1-7.17,7.06,39.2,39.2,0,0,1-9.57,5.37,42.76,42.76,0,0,1-24.17,1.92c8.19-2.14,15.16-7.81,20.12-14.69,8-11.19,14.16-28.27,13.93-42.13-.2-11.64-6.81-22.23-17.36-25.86h0a.79.79,0,0,1-.34-.07,58.77,58.77,0,0,1,14.07,0l1,.24a.14.14,0,0,0,.09,0l1.14.31c7.7,2.23,15.6,7.1,19.63,14.24C504.74,287.77,504.11,296.85,502.22,304.95Z"/><path class="cls-11" d="M434.18,273.81c-.7.14-2.76,6-3.22,6.87a32.28,32.28,0,0,1-4.51,6.7,40.83,40.83,0,0,1-11.71,8.77c-20,10.06-38-.93-57.92-4.36a134.22,134.22,0,0,0-19-2.25l-2-.05a65.43,65.43,0,0,1,32.38-10c10.51-.49,21,.74,31.56,0A165.83,165.83,0,0,0,428.84,275C430.49,274.57,432.31,274.19,434.18,273.81Z"/><path class="cls-9" d="M402.06,475.86a2.59,2.59,0,0,1-1,.62l-.13.05c-7.14,2.76-14.73,2.56-20.72-2.72-8.88-7.84-7.12-21.39-17.54-28.33-6.65-4.43-11.75-2.8-18.78-3.83-2-.29-3.29-.33-4.69-2-2.69-3.2-.93-7,2.54-8.32,8.21-3.18,20.48,1,27.29,5.68,6.56,4.52,10.59,10.77,13.44,18.07,1.33,3.4,2.36,8.44,5.19,11,4.79,4.32,7.61-.65,12.31.56S405.07,473,402.06,475.86Z"/><path class="cls-9" d="M339.1,350.71a15.48,15.48,0,0,0-5.88,4.43A13.2,13.2,0,0,1,339.1,350.71Z"/><path class="cls-9" d="M324.86,371.12a23,23,0,0,1-1.14,2.74,22.36,22.36,0,0,1,1.87-4.61C325.32,369.86,325.08,370.5,324.86,371.12Z"/><path class="cls-9" d="M337.1,402.63c-.91,2.27-3.94,2.29-6,2.19-5.61-.29-11.45-1.75-15.13-6.26a33.78,33.78,0,0,1-6.85-17.3,10,10,0,0,0,7.12-.73c3.94-1.65,6-3.6,7.5-6.66a18.93,18.93,0,0,0-.62,3.76c-.28,4.81,2.67,9.43,5.47,13.08,2,2.64,9,7.48,8.75,11A3.2,3.2,0,0,1,337.1,402.63Z"/><path class="cls-11" d="M344.42,351.32c-6.23-2.56-11.77,4.54-14.74,9.53a55.29,55.29,0,0,0-4.07,8.33s0,0,0,.06c-.27.62-.51,1.25-.73,1.87a23,23,0,0,1-1.14,2.74c-1.51,3.07-3.56,5-7.5,6.66a10,10,0,0,1-7.12.73,36,36,0,0,1-.16-6.23c.49-7.3,2.23-15.4,7.48-20.86,6.72-7,16.27-6.77,25.24-5.87A3.25,3.25,0,0,1,344.42,351.32Z"/><path class="cls-12" d="M54.24,752.4c9.55-12.56,19.16-25,28.84-37.5a39.84,39.84,0,0,1,34.72-14.8,29.37,29.37,0,0,1,3.28.43,40.17,40.17,0,0,1,6.4,1.67c1,.37,2.12.76,3,1.11a229.61,229.61,0,0,0,44.29,13.18,197.89,197.89,0,0,0,22.8,2.81,197.71,197.71,0,0,0,22.87-.13c3.79-.36,7.58-.65,11.33-1.27,3.78-.42,7.49-1.24,11.23-1.92,1.85-.41,3.69-.9,5.54-1.34l2.77-.68,2.74-.8,5.47-1.62,5.37-1.93a162.49,162.49,0,0,0,40.2-21.81,218.16,218.16,0,0,0,34-31.34,324.19,324.19,0,0,0,28.19-37.28l0,0a2.49,2.49,0,0,1,4.24,2.61,298.49,298.49,0,0,1-26.87,39.43,214.06,214.06,0,0,1-34.14,33.83,167.4,167.4,0,0,1-41.9,24.36l-5.69,2.22-5.81,1.9-2.91.94-3,.76c-2,.5-3.94,1-5.93,1.49a160.53,160.53,0,0,1-24.19,3.43,175.26,175.26,0,0,1-24.36-.25,208.26,208.26,0,0,1-24-3.53A231.4,231.4,0,0,1,127,711.51c-1-.44-1.74-.73-2.54-1.05a20.7,20.7,0,0,0-2.45-.85,20.94,20.94,0,0,0-2.51-.64,21.36,21.36,0,0,0-2.56-.43,31.9,31.9,0,0,0-28.24,11c-10.16,12-20.31,24.07-30.57,36a2.48,2.48,0,0,1-3.86-3.12Z"/><path class="cls-12" d="M329.22,592.33a174,174,0,0,0,10.12,49,120,120,0,0,0,10.8,22.26A83.54,83.54,0,0,0,365.89,682a67.23,67.23,0,0,0,20.47,12.23c1.9.61,3.76,1.34,5.69,1.86s3.86,1,5.85,1.4c4.06.6,8.08,1.53,12.16,1.74a103.61,103.61,0,0,0,24.38-.35,120.21,120.21,0,0,0,23.8-5.57c7.78-2.66,15.4-6,23.1-9.48,3.85-1.76,7.73-3.6,11.72-5.33,2-.84,4-1.72,6.13-2.51a66.92,66.92,0,0,1,6.73-2.25,24.22,24.22,0,0,1,8.18-.57,19.56,19.56,0,0,1,8.13,2.93,22,22,0,0,1,5.9,5.6,33.35,33.35,0,0,1,3.76,6.43,58.12,58.12,0,0,1,2.48,6.53c.68,1.89,1.23,3.81,2.06,5.68l1.15,2.83,1.29,2.79c.83,1.87,1.79,3.69,2.76,5.52a169.33,169.33,0,0,0,13.42,21,229.94,229.94,0,0,0,16,19.39c2.79,3.15,5.81,6.1,8.74,9.13s6,5.91,9.18,8.72c6.17,5.77,12.73,11.13,19.34,16.43l0,0a2.49,2.49,0,0,1-3,4A295.67,295.67,0,0,1,565.81,757a216.84,216.84,0,0,1-17.32-19.42,177.94,177.94,0,0,1-14.8-21.65c-1.09-1.91-2.18-3.83-3.15-5.83l-1.49-3L527.69,704c-1-2-1.67-4.18-2.49-6.28a48.12,48.12,0,0,0-2.2-5.37,23.54,23.54,0,0,0-2.79-4.53,12,12,0,0,0-3.39-3.1,9.25,9.25,0,0,0-3.84-1.27,14,14,0,0,0-4.51.48c-1.5.41-3.5,1.25-5.35,2s-3.77,1.65-5.65,2.48L486,693.85c-3.89,1.83-7.84,3.64-11.88,5.33s-8.18,3.21-12.37,4.61a119.34,119.34,0,0,1-26,5.69A113.93,113.93,0,0,1,409,709.3c-4.45-.34-8.76-1.41-13.12-2.18-2.18-.47-4.38-1.15-6.56-1.72s-4.29-1.51-6.42-2.26A74,74,0,0,1,360,688.7a92.06,92.06,0,0,1-16.73-20.9,127.73,127.73,0,0,1-10.75-24.08,165.85,165.85,0,0,1-6.06-25.39,163.7,163.7,0,0,1-2.19-26,2.48,2.48,0,0,1,5-.16Z"/><path class="cls-12" d="M611.29,638.32a86.07,86.07,0,0,0,2.42-11.43,40.61,40.61,0,0,0,.28-11.2,10.86,10.86,0,0,0-1.48-4.42,3.89,3.89,0,0,0-1.21-1.25,3.29,3.29,0,0,0-.71-.38,7.06,7.06,0,0,0-1-.32,1.93,1.93,0,0,0-1.17-.06,2.33,2.33,0,0,0-.79.7,31.35,31.35,0,0,0-2.68,4.51,105.21,105.21,0,0,1-6.3,10.8,78.24,78.24,0,0,1-8,9.88,93.86,93.86,0,0,1-9.35,8.52l-1.23,1-1.07.89a24.54,24.54,0,0,0-2,1.8,30.74,30.74,0,0,0-8.3,13.24,32.84,32.84,0,0,0-1.35,10.48c.16,7.21,2.24,14.55,5.31,21.47A90.28,90.28,0,0,0,584.45,712a51.83,51.83,0,0,0,3.64,4.14,46.06,46.06,0,0,0,4,3.69,40,40,0,0,0,9,5.69,42.6,42.6,0,0,0,10.15,3.12,39.42,39.42,0,0,0,10.64.54,46.72,46.72,0,0,0,10.48-2.1,49,49,0,0,0,5-2l1.25-.58,1.48-.73q1.49-.71,3-1.35a58,58,0,0,1,6.27-2.19,17.11,17.11,0,0,1,8.53-.61,10.71,10.71,0,0,1,4.88,2.5,13.07,13.07,0,0,1,2.93,3.85,30.13,30.13,0,0,1,2.29,6.89c.48,2.09.84,4,1.29,5.77a17.17,17.17,0,0,0,1.58,4.31,3.49,3.49,0,0,0,1.94,1.69,7.84,7.84,0,0,0,3.83,0,3.7,3.7,0,0,0,.93-.24c.26-.1.56-.1.79-.28a7.45,7.45,0,0,1,.75-.39c.23-.2.46-.4.7-.59a10.85,10.85,0,0,0,2.49-3.53,32.27,32.27,0,0,0,2.63-10.28,93.52,93.52,0,0,0-.86-23.08,118.61,118.61,0,0,0-5.82-22.72A72.59,72.59,0,0,0,673.41,673a32.92,32.92,0,0,0-6.82-8.74l-.08-.07a2.49,2.49,0,0,1,3.14-3.86,37.86,37.86,0,0,1,8.57,9.76A78.42,78.42,0,0,1,684,681.19,119.22,119.22,0,0,1,691.26,705a96.83,96.83,0,0,1,1.89,25.1,40.46,40.46,0,0,1-3,13.14,19.57,19.57,0,0,1-4.3,6.37,15,15,0,0,1-7.44,3.92,16.75,16.75,0,0,1-8.15,0,13,13,0,0,1-7.42-5.52,25.69,25.69,0,0,1-2.93-6.87c-.61-2.15-1-4.17-1.52-6a21.19,21.19,0,0,0-1.57-4.54,3,3,0,0,0-.72-.93.66.66,0,0,0-.45-.17c-.83-.37-5.33,1.1-8.46,2.52q-1.25.56-2.47,1.18l-1.21.64-1.47.74a59.47,59.47,0,0,1-6.15,2.7,53.26,53.26,0,0,1-13.14,2.83,50.81,50.81,0,0,1-37.67-12,53,53,0,0,1-4.79-4.58,62.77,62.77,0,0,1-4.23-5,100.5,100.5,0,0,1-12.73-22.06c-3.26-7.87-5.56-16.39-5.57-25.35a42.16,42.16,0,0,1,2.06-13.37,37.5,37.5,0,0,1,6.56-12,39.09,39.09,0,0,1,4.67-4.87,32.17,32.17,0,0,1,2.57-2.12l1.29-1,1.16-.86a85.73,85.73,0,0,0,8.79-7.47,70.42,70.42,0,0,0,7.52-8.63,98.12,98.12,0,0,0,6.22-9.89,32.65,32.65,0,0,1,3.82-5.67,8.17,8.17,0,0,1,9-2.45,13.4,13.4,0,0,1,1.87.71,9.87,9.87,0,0,1,1.9,1.14,10.41,10.41,0,0,1,2.83,3.19,17,17,0,0,1,2.12,7,46.13,46.13,0,0,1-.85,12.89A90,90,0,0,1,616,639.88a2.48,2.48,0,0,1-4.73-1.48Z"/><path class="cls-12" d="M377.65,606a104.56,104.56,0,0,0,11.14-17.16,132.66,132.66,0,0,0,8.56-18.68,63.66,63.66,0,0,0,2.74-9.44c.12-.76.3-1.54.38-2.27l.15-2.14c0-.64-.11-1.21-.13-1.82a21.8,21.8,0,0,0-.42-2.19c-.69-3-1.92-6.41-2.72-10.41-.2-1-.36-2-.47-3.12a22.42,22.42,0,0,1,0-3.55,21.56,21.56,0,0,1,1.71-6.88,17.29,17.29,0,0,1,4.53-6.26,13.92,13.92,0,0,1,8-3.22c.7,0,1.43,0,2.12,0s1.34.17,2,.28,1.35.36,2,.56,1.26.54,1.88.84a18.22,18.22,0,0,1,5.64,4.84,34.81,34.81,0,0,1,5.49,11.05c.6,1.87,1,3.61,1.49,5.33L433,547a159.84,159.84,0,0,1,3.76,21.36,100.9,100.9,0,0,1,.06,21.79,2.5,2.5,0,0,1-5-.23v0c-.27-13.77-3.41-27.28-7.58-40.48l-1.63-4.94c-.58-1.66-1.12-3.31-1.7-4.77a26,26,0,0,0-4.31-7.62,7.48,7.48,0,0,0-2.44-1.9,5.49,5.49,0,0,1-.56-.2,4.69,4.69,0,0,1-.55-.13,4.3,4.3,0,0,1-.62-.07c-.19,0-.35,0-.53,0a2.8,2.8,0,0,0-1.65.76,6.44,6.44,0,0,0-1.64,2.25,10.6,10.6,0,0,0-.91,3.34,13.86,13.86,0,0,0-.07,1.74c0,.69.11,1.4.22,2.14.42,3,1.46,6.32,2.18,10.2.18,1,.34,2,.43,3s.07,2.35,0,3.48l-.41,3.13c-.17,1-.44,1.95-.66,2.92a64.17,64.17,0,0,1-3.83,10.68A140.6,140.6,0,0,1,395,592.59c-2,3-4.12,5.94-6.39,8.79a63.94,63.94,0,0,1-7.47,8.17,2.48,2.48,0,0,1-3.55-3.45Z"/><path class="cls-12" d="M624.79,506.57c.52,2.21,1.31,4.64,2.08,7s1.62,4.7,2.47,7c1.71,4.68,3.54,9.33,5.44,13.95,3.81,9.22,8,18.29,12.61,27,2.31,4.37,4.75,8.65,7.43,12.69a52.15,52.15,0,0,0,8.9,10.7,10.07,10.07,0,0,0,4.58,2.51,2.66,2.66,0,0,0,1.49-.19,3.64,3.64,0,0,0,.75-.44l.41-.33a3.37,3.37,0,0,1,.24-.28,8.91,8.91,0,0,0,1.39-4.64,41,41,0,0,0-.09-6.79c-.14-2.39-.58-4.88-.5-7.86,0-.72,0-1.44,0-2.15l.21-2.11a37.36,37.36,0,0,1,.67-4.15,89.14,89.14,0,0,1,5-15.08c3.79-9.35,7.24-18.08,5.11-26.28-1.93-8.86-6.56-17.15-12.6-24.3a82.35,82.35,0,0,0-10-9.94,74.94,74.94,0,0,0-11.54-8.16,61.67,61.67,0,0,0-12.59-5.68c-2.17-.73-4.43-1.16-6.64-1.75l-3.4-.47a25,25,0,0,0-3.41-.38,66.33,66.33,0,0,0-27.28,4.35,102.8,102.8,0,0,0-25,13.94c-2,1.41-3.81,3-5.72,4.53-.95.77-1.91,1.51-2.85,2.3l-2.72,2.47c-1.8,1.66-3.66,3.25-5.41,5l-5.18,5.26c-.83.88-1.81,1.75-2.51,2.64l-2.25,2.65a26.22,26.22,0,0,0-2,2.78,20.09,20.09,0,0,0-1.8,2.88,28.29,28.29,0,0,0-3.89,12.54c-.63,8.78,3.38,17.65,9.14,25.2s13.27,14.12,21.11,20.07a176.23,176.23,0,0,0,25.14,15.66l.09,0a2.49,2.49,0,0,1-2.17,4.48,181.47,181.47,0,0,1-26.7-15.1,111.41,111.41,0,0,1-23.15-20.68,58.2,58.2,0,0,1-8.4-13.71A38.43,38.43,0,0,1,528,527.4a36.61,36.61,0,0,1,4.44-16.18,26.71,26.71,0,0,1,2.08-3.58,33.81,33.81,0,0,1,2.31-3.39l2.54-3.18c.84-1.1,1.74-1.93,2.6-2.9l5.24-5.65c1.78-1.86,3.69-3.6,5.54-5.4l2.79-2.68c1-.86,2-1.69,3-2.53,2-1.65,3.92-3.4,6-5a112.88,112.88,0,0,1,27.19-15.89,73.92,73.92,0,0,1,31.75-5.53,66.57,66.57,0,0,1,30.93,9.77,91,91,0,0,1,24.17,20.8c6.75,8.3,12.12,18.15,14.29,29a35.48,35.48,0,0,1,.61,4.32,40,40,0,0,1,.07,4.42c-.11,1.45-.27,2.89-.48,4.3s-.51,2.8-.91,4.12a112.89,112.89,0,0,1-5.47,14.78,80.65,80.65,0,0,0-4.75,13.44,28.81,28.81,0,0,0-.59,3.29l-.2,1.64c-.05.54,0,1.08-.05,1.62-.16,2.05.18,4.57.28,7.2a49.34,49.34,0,0,1-.15,8.28,22.08,22.08,0,0,1-1,4.56,13.45,13.45,0,0,1-2.68,4.76c-.35.37-.71.74-1.07,1.07l-1.08.83a12,12,0,0,1-2.56,1.35,11.09,11.09,0,0,1-5.91.55,14.17,14.17,0,0,1-4.87-1.87,23,23,0,0,1-3.65-2.71c-4.28-3.89-7.24-8.26-10-12.66s-5.18-9-7.45-13.55c-4.48-9.19-8.33-18.6-11.85-28.11q-2.63-7.14-5-14.37c-.78-2.42-1.53-4.84-2.25-7.29s-1.4-4.86-1.93-7.57a2.48,2.48,0,0,1,4.85-1.05Z"/><path class="cls-12" d="M580.05,561.67a53,53,0,0,0,19,5.6,34.45,34.45,0,0,0,18-3.68,80.91,80.91,0,0,0,8.3-4.65,66.13,66.13,0,0,0,7.86-6,102.64,102.64,0,0,0,13.64-15.27l.09-.12a2.5,2.5,0,0,1,4.35,2.37,63.75,63.75,0,0,1-5,10.07,70.4,70.4,0,0,1-6.52,9.21,62.31,62.31,0,0,1-8.11,8.2,39.52,39.52,0,0,1-33.88,8.71,47.4,47.4,0,0,1-20.44-10.28,2.5,2.5,0,0,1,2.68-4.17Z"/><path class="cls-12" d="M282.37,587.54c21.66-5.33,42.14-19.2,52.11-39A70.08,70.08,0,0,0,340.21,533a54.5,54.5,0,0,0,1.63-16.15A41,41,0,0,0,338,501.59a50.74,50.74,0,0,0-9.17-13.13c-7.52-7.9-17.05-14.18-26.91-19.77S281,457.9,271.55,449.46c-1.18-1-2.31-2.16-3.42-3.31-.56-.52-1.13-1.28-1.68-1.92a18.32,18.32,0,0,1-1.56-2.07,37.93,37.93,0,0,1-4.51-9c-2.12-6.1-3.09-11.94-4.7-17s-3.92-9.38-7.26-11.87A11.9,11.9,0,0,0,237,402.44a16.13,16.13,0,0,0-5.51,3.37,19.73,19.73,0,0,0-4.23,5.38,30.55,30.55,0,0,0-3.54,14.17c-.16,10.25,3.61,20.72,8.87,30.53,2.63,5,5.61,9.75,8.73,14.68l9.35,14.7c6.29,9.78,12.56,19.62,18.7,29.57,12.27,19.9,23.86,40.44,33.09,62.12,4.51,10.69,9.37,21.32,13.43,32.4s7.49,22.51,8.76,34.43a2.49,2.49,0,0,1-4.94.62v0c-1.61-11.23-5.3-22.14-9.64-32.77s-9.36-21.12-14.21-31.75c-9.56-21-21.42-40.81-34.08-60.21-6.32-9.72-12.88-19.31-19.33-29l-9.67-14.59c-3.2-4.84-6.46-9.88-9.39-15.16a97.38,97.38,0,0,1-7.57-16.83,59.12,59.12,0,0,1-3.09-18.9,41.51,41.51,0,0,1,4.82-19.38,30.59,30.59,0,0,1,6.57-8.23,27.14,27.14,0,0,1,9.34-5.55,22.84,22.84,0,0,1,21.61,3.64,27.31,27.31,0,0,1,6.95,8.22,44.05,44.05,0,0,1,3.82,9.16c1.78,6.08,2.65,11.8,4.31,16.72a27.64,27.64,0,0,0,3.17,6.63,10.3,10.3,0,0,0,1,1.42c.4.46.67.9,1.17,1.38.89,1,1.82,1.91,2.81,2.81,7.85,7.3,18.08,12.5,28.28,18.41a165.16,165.16,0,0,1,15.06,9.82,89.26,89.26,0,0,1,13.67,12.19,59.4,59.4,0,0,1,10.35,15.64,49.35,49.35,0,0,1,4.2,18.44,62.41,62.41,0,0,1-2.28,18.41,77.48,77.48,0,0,1-6.75,17,76.62,76.62,0,0,1-24.56,26.54A92.59,92.59,0,0,1,300.48,587a87.25,87.25,0,0,1-17.23,5.38,2.48,2.48,0,0,1-1.07-4.84Z"/><path class="cls-12" d="M25.09,550.7A98.11,98.11,0,0,1,27,527.5a104.38,104.38,0,0,1,6.93-22.24,92,92,0,0,1,29-36.59,101.77,101.77,0,0,1,20.46-11.78,144.05,144.05,0,0,1,22.3-7.19,177.31,177.31,0,0,0,21-6.34c3.45-1.18,6.73-2.74,10.07-4.14,3.24-1.6,6.54-3.08,9.63-4.92A110.25,110.25,0,0,0,164,422.09a86,86,0,0,0,14.19-15.67c1-1.42,1.92-2.94,2.86-4.43l2.75-4.92a55.94,55.94,0,0,1,7.56-9.83A84.49,84.49,0,0,1,210,372.45a72.48,72.48,0,0,1,22.31-8.64,55.22,55.22,0,0,1,12-1.12,58.22,58.22,0,0,1,6.05.38c1,.12,2,.32,3,.48a25.73,25.73,0,0,1,3,.61,59.69,59.69,0,0,1,21.53,10.09,89.61,89.61,0,0,1,16.65,16.29,2.49,2.49,0,0,1-3.79,3.23l0,0a84.06,84.06,0,0,0-16.39-14.35,54.47,54.47,0,0,0-19.52-8.07,20.66,20.66,0,0,0-2.59-.41c-.87-.1-1.73-.24-2.6-.3a52.56,52.56,0,0,0-15.59,1.29,63.86,63.86,0,0,0-19.35,8.31,77.33,77.33,0,0,0-16.17,13.68,46.27,46.27,0,0,0-6,8.21l-2.62,5c-1,1.73-2,3.5-3.12,5.15-8.74,13.52-21.3,24.17-35.11,31.65-3.41,2-7,3.57-10.54,5.26-3.63,1.45-7.22,3-10.93,4.2a187.55,187.55,0,0,1-22.4,6.17,134.25,134.25,0,0,0-20.82,6.14,98.88,98.88,0,0,0-18.9,10.2C44.32,492,30.86,521.42,30.05,550.46v.19a2.48,2.48,0,0,1-5,0Z"/><path class="cls-12" d="M442.69,376q2.67,12.11,4.75,24.29l1,6.09a63.32,63.32,0,0,1,.89,6.4,34.49,34.49,0,0,1-2.6,17.6c-.57,1.09-1.13,2.19-1.72,3.26a30.29,30.29,0,0,1-4.68,5.71,29.72,29.72,0,0,1-12.6,7.29,30.39,30.39,0,0,1-14.14.42,34.29,34.29,0,0,1-12.31-5.54,2.49,2.49,0,0,1,2.27-4.4l.23.09a34.62,34.62,0,0,0,10.83,2.59,25.11,25.11,0,0,0,10.2-1.75,23.82,23.82,0,0,0,12.69-14.57,27.35,27.35,0,0,0,1.68-10.14c0-1.66-.12-3.85-.25-5.88l-.36-6.17q-.71-12.33-.82-24.73a2.5,2.5,0,0,1,4.93-.56Z"/><path class="cls-12" d="M341.42,433.36a28.38,28.38,0,0,1,5.12-1.65,32.31,32.31,0,0,1,5.31-.82,27.32,27.32,0,0,1,11.2,1.48,24.79,24.79,0,0,1,9.8,7l1.71,2.47.84,1.26.63,1.31,1.24,2.65a23.35,23.35,0,0,1,.87,2.7l.72,2.73.49,2.15c.13.69.29,1.38.39,2.09s.38,1.28.56,1.94a22.68,22.68,0,0,0,1.37,3.65c.26.58.63,1,.92,1.55a6,6,0,0,0,1.06,1.39,10.84,10.84,0,0,0,6,3.42,19.68,19.68,0,0,0,8.16-.25l.32-.07a2.49,2.49,0,0,1,1.81,4.57,23,23,0,0,1-5.16,2.22,20.75,20.75,0,0,1-5.67.84,18,18,0,0,1-11.54-4,13.51,13.51,0,0,1-2.3-2.1,24.5,24.5,0,0,1-2-2.35,28.81,28.81,0,0,1-2.86-5.09c-.37-.87-.78-1.75-1.12-2.63s-.51-1.76-.76-2.64l-1.16-4.55a23.25,23.25,0,0,0-2.75-7.18,16.7,16.7,0,0,0-5.27-5c-4.41-2.43-10.72-3.13-16.53-2.44l-.21,0a2.49,2.49,0,0,1-1.29-4.76Z"/><path class="cls-12" d="M406.35,358.1a55.87,55.87,0,0,1,.47,8.2c0,2.7-.15,5.38-.42,8s-1.5,5.12-2.43,7.65a56.92,56.92,0,0,1-3.51,7.45,2.64,2.64,0,0,1-4.89-.92,56.78,56.78,0,0,1-.56-8.21c.05-2.69-.15-5.43.52-8s1.58-5.11,2.53-7.63a55.74,55.74,0,0,1,3.42-7.46,2.62,2.62,0,0,1,4.88.92Z"/><path class="cls-12" d="M365,521.34q4.58-1.21,9.12-2.31l8.86-3,8.58-3.62,8.22-4.3a120.59,120.59,0,0,0,28.74-22.85c8.29-8.94,15.72-18.8,21.09-29.88a107.16,107.16,0,0,0,10.11-35.61h0a2.5,2.5,0,0,1,5,.16A97.31,97.31,0,0,1,457.91,459a100.82,100.82,0,0,1-21.44,33.86A114.24,114.24,0,0,1,403.86,516l-9.21,3.85-9.47,3.06-9.7,2.12q-4.92.66-9.81,1.21a2.48,2.48,0,0,1-.91-4.86Z"/><path class="cls-12" d="M460.44,398a58.25,58.25,0,0,1-2-8.17c-.47-2.72-.85-5.45-1.07-8.17s.53-5.45,1-8.17a59.57,59.57,0,0,1,2.07-8.17,2.63,2.63,0,0,1,5,0,59.57,59.57,0,0,1,2.07,8.17c.45,2.72,1.15,5.45,1,8.17s-.6,5.45-1.07,8.17a58.24,58.24,0,0,1-2,8.17,2.61,2.61,0,0,1-5,0Z"/><path class="cls-12" d="M235.69,428.26a40.2,40.2,0,0,0,7.57-.6c1.28-.17,2.54-.52,3.82-.77s2.5-.71,3.76-1.05a59.63,59.63,0,0,0,14-6.73,71,71,0,0,0,21.31-22.6,116.9,116.9,0,0,0,12.2-29.19c1.43-5.13,2.58-10.34,3.51-15.6q.7-3.95,1.24-7.93c.36-2.7.79-5.53,1.31-8.28,2.08-11,5.65-22.13,12-32a60.15,60.15,0,0,1,11.52-13.3,60.85,60.85,0,0,1,15-9.36,73.09,73.09,0,0,1,16.69-5c2.84-.6,5.67-.85,8.51-1.2s5.7-.42,8.49-.5c11.15-.33,21.95.16,32.16-1.23s20.32-4.93,31-7.94,22.16-5.65,34.21-4.54a59.12,59.12,0,0,1,8.89,1.5,49.68,49.68,0,0,1,8.68,3,32.28,32.28,0,0,1,14.81,12.59,23.45,23.45,0,0,1,1.22,2.38c.33.78.59,1.58.88,2.37a14.76,14.76,0,0,1,.71,2.39l.54,2.4a43.7,43.7,0,0,1,.48,9.36,63.47,63.47,0,0,1-3.47,17.43,88.31,88.31,0,0,1-7.17,15.86,74.43,74.43,0,0,1-10.41,14.15,49.08,49.08,0,0,1-6.88,6,36.68,36.68,0,0,1-4.08,2.5c-.72.37-1.47.73-2.25,1.05s-1.46.57-2.21.83a44.32,44.32,0,0,1-18.19,1.93c-11.88-1.18-22.28-5.43-32.46-8-2.58-.66-4.91-1.11-7.74-1.63-2.55-.45-5.24-.88-7.84-1.21s-5.21-.58-7.79-.7c-1.28,0-2.57-.08-3.83-.05-.64,0-1.26,0-1.89.06l-2.32.17.46,0a24.53,24.53,0,0,0-8.83,2.37,13.06,13.06,0,0,0-3.34,2.33,8.68,8.68,0,0,0-.61.67c-.09.12-.19.23-.26.35l-.12.18.05-.09.1-.2a2.53,2.53,0,0,0,.15-.38c.12-.45.08-.38,0,.22a5.42,5.42,0,0,1-1,2.26,6.6,6.6,0,0,1-2.58,1.95l2.29-3.58a13.11,13.11,0,0,1-.41,3.07l-.3.83a3.86,3.86,0,0,0,.34-2.38,3.77,3.77,0,0,0-.13-.54,3.67,3.67,0,0,0-.55-1.06c-.23-.3-.26-.31-.21-.26a4.16,4.16,0,0,1,.53.72,4,4,0,0,1,.54,1.79,3.9,3.9,0,0,1,0,.63c-.08.59-.08.44-.07.46l-.1.4c-.07.28-.14.54-.22.78q-.22.75-.52,1.48a18.19,18.19,0,0,1-1.42,2.83,16.76,16.76,0,0,1-4.33,4.72l-.62.44c-.24.17-.48.34-.64.43-.38.24-.83.51-1.26.75a17.11,17.11,0,0,1-2.92,1.29c-.27.09-.54.17-.83.24l-.41.1.07,0,.07,0-.55.22a5.63,5.63,0,0,1-.89.26,4.92,4.92,0,0,1-.58.08h-.2l-1.4,0H359.6c-1.21.23-3.11-1.58-3-1.79a3.81,3.81,0,0,1-.23-.45,3.13,3.13,0,0,1-.16-.46,3.53,3.53,0,0,1-.11-.54v-.05l0,.12.06.26a3,3,0,0,0,.16.44,3.61,3.61,0,0,0,.23.44c-.07.26,1.84,2,3,1.78l-.93-.15a4.35,4.35,0,0,1-1.25-.6,2.37,2.37,0,0,0,.38.19l.1,0-.06,0-.11,0c-.27-.09-.68-.27-1-.43a13.54,13.54,0,0,1-1.9-1.11,21.13,21.13,0,0,1-2.93-2.54c-.86-.86-1.55-1.71-2.27-2.55l-2.08-2.44c-.68-.78-1.34-1.51-2-2.18-.35-.34-.63-.62-1-1l-.95-.79a3,3,0,0,0-3-.47l-.62.15a1.55,1.55,0,0,0,.7-.22l-.33.15a9,9,0,0,0-2.44,1.42,17.48,17.48,0,0,0-2.4,2.32,33.18,33.18,0,0,0-4,5.84l-.57.76a2.59,2.59,0,0,0,.71-1.12l-.23.53c-.46.86-.88,1.62-1.31,2.52s-.73,1.64-1.11,2.53-.71,1.89-1,2.71l-.83,2.75a36.88,36.88,0,0,0-1.45,11,19.66,19.66,0,0,0,.8,5.25,12.09,12.09,0,0,0,2.24,4.43,12.25,12.25,0,0,0,1.68,1.73,12.53,12.53,0,0,0,2.1,1.26,15.85,15.85,0,0,0,5,1.37l.24,0a2.49,2.49,0,0,1-.68,4.92,20.91,20.91,0,0,1-6.68-1.64,17.75,17.75,0,0,1-3.12-1.76,17.51,17.51,0,0,1-6-8.67,25.23,25.23,0,0,1-1.24-6.62,42.55,42.55,0,0,1,1.29-12.93l.83-3.06c.35-1.09.61-2,1-3s.77-2,1.23-3,.92-2,1.39-2.89l-.23.53a4,4,0,0,1,.85-1.41l-.56.76a38.4,38.4,0,0,1,4.74-7.17,24.17,24.17,0,0,1,3.18-3.19,15.76,15.76,0,0,1,4.29-2.57l-.33.15a6,6,0,0,1,1.39-.44l-.62.15a10.3,10.3,0,0,1,4.73-.53,10.11,10.11,0,0,1,4.48,1.77c.57.42,1,.81,1.55,1.22s.91.8,1.33,1.2c.87.83,1.65,1.67,2.4,2.49L355,355.9c.68.78,1.37,1.57,2,2.21a13.94,13.94,0,0,0,1.94,1.62,6.06,6.06,0,0,0,.88.49,4.18,4.18,0,0,0,.47.18l.31.12a4.66,4.66,0,0,1,.73.38,2.77,2.77,0,1,1-.55-.22l-.93-.15c1.19-.23,3.11,1.52,3,1.78a3.66,3.66,0,0,1,.23.45,3.26,3.26,0,0,1,.16.46l.07.3,0,.19,0,.1a1.75,1.75,0,0,0-.09-.38,3.19,3.19,0,0,0-.16-.44,3.81,3.81,0,0,0-.23-.44c.11-.2-1.79-2-3-1.78h.16l.55,0,1.1,0h.11l-.27,0a2.3,2.3,0,0,0-.29.08s.19-.09.6-.25l.37-.12.37-.1.2-.05.37-.12a9.75,9.75,0,0,0,1.61-.77c.29-.17.56-.34.87-.54a4.23,4.23,0,0,0,.39-.28l.39-.29a9,9,0,0,0,2.31-2.64,10.41,10.41,0,0,0,.77-1.64c.11-.29.2-.58.29-.88s.08-.3.11-.43l0-.2s0-.15-.07.42a3.86,3.86,0,0,0,0,.61,4,4,0,0,0,.06.47,3.79,3.79,0,0,0,.46,1.23,3.39,3.39,0,0,0,.43.6,3.65,3.65,0,0,1-.31-.38,3.94,3.94,0,0,1-.58-1.13,4.2,4.2,0,0,1-.14-.55,4,4,0,0,1,.35-2.44l-.3.83a5.23,5.23,0,0,0,.15-1.25v-.4a3.21,3.21,0,0,1,2.31-3.18c.16,0,.09-.17-.41.41a2.76,2.76,0,0,0-.49,1,4.47,4.47,0,0,1,.22-1.1,5.66,5.66,0,0,1,.27-.69l.19-.35.14-.23.25-.38c.17-.26.35-.49.53-.73a16.67,16.67,0,0,1,1.15-1.35,21,21,0,0,1,5.31-3.94,32.72,32.72,0,0,1,11.67-3.48l.46,0c-.53,0,.27,0,.58-.08l1.18-.11c.73,0,1.47-.1,2.2-.12,1.46-.07,2.91-.06,4.35,0,2.88.07,5.72.27,8.52.58s5.53.68,8.36,1.11c2.55.41,5.6.93,8.31,1.57,11,2.56,21.2,6.3,31.16,7.06a34.35,34.35,0,0,0,14.09-1.67c.54-.2,1.12-.42,1.61-.64s1-.45,1.44-.71a26.62,26.62,0,0,0,2.86-1.83,39,39,0,0,0,5.34-4.83,72.78,72.78,0,0,0,14.8-26.31,56.43,56.43,0,0,0,2.78-14.59,32.8,32.8,0,0,0-.37-6.95l-.38-1.59a7.32,7.32,0,0,0-.46-1.52c-.19-.49-.34-1-.54-1.47a12.35,12.35,0,0,0-.65-1.26c-2-3.39-5.65-6.16-9.89-8.11a38.73,38.73,0,0,0-6.78-2.34,48.06,48.06,0,0,0-7.22-1.26c-9.81-1-20,1.15-30.32,3.93s-20.91,6.32-32.51,7.8-22.59.67-33.23.87c-2.67,0-5.27.15-7.85.36s-5.19.48-7.7,1a63.62,63.62,0,0,0-14.64,4.16,51.21,51.21,0,0,0-22.8,18.91c-5.67,8.42-9.21,18.42-11.35,28.72-.55,2.6-1,5.16-1.4,7.85s-.91,5.48-1.45,8.21c-1.08,5.46-2.4,10.89-4,16.24a119.18,119.18,0,0,1-13.7,30.7,77.28,77.28,0,0,1-23.92,24A65.27,65.27,0,0,1,252.4,431c-1.39.35-2.76.73-4.15,1s-2.8.57-4.22.73-2.84.35-4.28.41a36.21,36.21,0,0,1-4.46,0,2.48,2.48,0,0,1,.21-5Z"/><path class="cls-12" d="M833.08,797.67,744.4,821.88l-44.39,12-22.2,6-11.1,3-2.77.75-1.39.37-.69.19-.46.14a8.74,8.74,0,0,0-3.24,1.94,9.24,9.24,0,0,0-2.15,3.14,9.47,9.47,0,0,0-.63,3.66,9.08,9.08,0,0,0,3.4,6.49,8.28,8.28,0,0,0,7,1.55c.17,0,.28,0,.51-.1l.7-.18,1.39-.36,2.78-.71,5.57-1.42,44.54-11.37L810,824.31l-2.23,1.35a5.62,5.62,0,0,1,3.9-1.62l-1.77.3a7.68,7.68,0,0,0,5.17-7.59,7.75,7.75,0,0,0-.24-1.62c0-.1-.08-.33-.14-.57l-.19-.68-.38-1.36-6-21.73-11.88-43.51L772.7,660.19l-23.41-87.12c-7.85-29-15.51-58.11-23.19-87.19a2.49,2.49,0,0,1,4.8-1.34c8.5,28.85,17,57.69,25.34,86.59l25.11,86.65,25,86.69,12.38,43.37,6.13,21.71.38,1.36.19.68c.06.21.13.44.21.8a18,18,0,0,1,.57,3.94,18.75,18.75,0,0,1-12.69,18.45l-1.77.3a5.41,5.41,0,0,0,3.83-1.58l-2.23,1.35c-.56.16-1.29.38-1.71.47l-1.39.34-2.79.69-5.58,1.37-11.16,2.75-22.33,5.43-44.67,10.83L679,867.54l-5.58,1.35-2.79.68-1.4.34-.7.17c-.23.06-.6.12-.9.17A17.7,17.7,0,0,1,653,866.73a18.27,18.27,0,0,1-6.73-13.37,17.35,17.35,0,0,1,.32-3.86,15.5,15.5,0,0,1,1.11-3.69,18.16,18.16,0,0,1,4.42-6.19,17.63,17.63,0,0,1,6.62-3.78l.92-.26.7-.17,1.39-.35,2.79-.7,11.15-2.79L698,826l44.59-11.14,89.28-22a2.48,2.48,0,0,1,1.25,4.8Z"/><path class="cls-12" d="M752.28,207.72l130,173,32.41,43.32,16.21,21.66c2.69,3.64,5.42,7.11,8.11,11.07A94.51,94.51,0,0,1,946,469a97.49,97.49,0,0,1,8.3,26.86,94.24,94.24,0,0,1,1.15,14.06l.05,13.55.17,54.11L956,685.81l.17,54.11.1,26.89a4.16,4.16,0,0,0,8.28.39l-.29-107.58-.16-54.11V551.4l0-13.4a30.64,30.64,0,0,0-2.38-11.17,29.94,29.94,0,0,0-2.7-5.06c-1-1.47-2.48-3.34-3.82-5.13L947,505.9l-32.87-43-65.57-86.08L783,290.68l-8.18-10.77-4.09-5.39a26.88,26.88,0,0,0-1.76-2.11,4.74,4.74,0,0,0-.87-.77,5.15,5.15,0,0,0-.91-.69,10.54,10.54,0,0,0-4.23-1.51,12.11,12.11,0,0,0-4.61.52,12.26,12.26,0,0,0-4,2.4,11.21,11.21,0,0,0-2.46,3.8c-.13.36-.18.75-.29,1.12a3.73,3.73,0,0,0-.21,1.16l-.11,1.2c0,.44,0,1.09,0,1.63l0,6.76-.06,13.53-.11,27.05-.42,108.13a66.17,66.17,0,0,0,11.28,36c2.32,3.43,5.29,7.05,8,10.62l33,42.88L934.75,698a2.49,2.49,0,0,1-3.93,3.05L797.25,530.7,763.9,488.09c-2.77-3.61-5.57-6.93-8.35-10.94a74.09,74.09,0,0,1-13-40.24l-.48-108.29L742,301.56,742,288l0-6.76c0-.59,0-1.07,0-1.75l.16-2.17a10,10,0,0,1,.37-2.17c.18-.72.33-1.44.57-2.14a20.63,20.63,0,0,1,4.77-7.5,20.44,20.44,0,0,1,16.2-5.65,20.11,20.11,0,0,1,8.43,2.91,13.25,13.25,0,0,1,1.8,1.32,12.34,12.34,0,0,1,1.66,1.47,37.07,37.07,0,0,1,2.61,3.05l4.13,5.36,8.25,10.72,66,85.76,65.9,85.83,32.87,43L963.85,510c1.36,1.82,2.72,3.44,4.25,5.73a40.88,40.88,0,0,1,3.66,6.85A41.56,41.56,0,0,1,975,537.75l0,13.65v54.11l-.16,54.11-.17,54.11-.08,27.05,0,13.53,0,6.76v3.38a36.39,36.39,0,0,1-.13,4,14,14,0,0,1-27.85-1.31l.07-27.21.17-54.11.34-108.21.17-54.11,0-13.51a86.14,86.14,0,0,0-1-12.89,89.48,89.48,0,0,0-7.46-24.69,86.68,86.68,0,0,0-6.35-11.27c-2.35-3.52-5.16-7.17-7.81-10.8l-16.07-21.76-32.14-43.52L748.29,210.68a2.48,2.48,0,0,1,4-3Z"/><path class="cls-12" d="M823.42,515.61c6.56,6.87,11.13,15.22,14.72,23.77a135.29,135.29,0,0,1,4.49,13.18c1.21,4.48,2.27,9,3.07,13.58a125.4,125.4,0,0,1,1.59,13.92c.2,4.59.33,9.77-1.13,15a26.92,26.92,0,0,1-3.46,7.6,25,25,0,0,1-5.84,6.12c-4.45,3.38-9.29,5.07-13.88,6.48-2.27.67-4.66,1.26-6.77,1.77a29.05,29.05,0,0,0-5.37,1.79,31.47,31.47,0,0,0-9.33,6.47,28.09,28.09,0,0,0-6.38,9.43A31.07,31.07,0,0,0,793,646.12a44.37,44.37,0,0,0,1.76,12.12,88.71,88.71,0,0,0,4.55,12,69.32,69.32,0,0,0,6.37,11.12,33.12,33.12,0,0,0,8.78,8.66l.06,0A2.49,2.49,0,0,1,812,694.4a37,37,0,0,1-11.29-9.14,70.49,70.49,0,0,1-8-11.68,84.64,84.64,0,0,1-5.92-12.84,53,53,0,0,1-2.94-14.37,39.41,39.41,0,0,1,2-15.09,40.33,40.33,0,0,1,20.35-22.48,40.14,40.14,0,0,1,7.37-2.61c2.27-.53,4.26-1,6.31-1.55a48.94,48.94,0,0,0,5.74-1.94,23.47,23.47,0,0,0,4.87-2.56,14.84,14.84,0,0,0,5.85-8,39,39,0,0,0,1.31-11.8c0-4.3-.38-8.62-.82-12.95s-1.21-8.63-2.09-12.9a127.88,127.88,0,0,0-3.45-12.61,94.62,94.62,0,0,0-4.87-12.06,67.64,67.64,0,0,0-6.79-10.94l0-.05a2.48,2.48,0,0,1,3.76-3.24Z"/><path class="cls-12" d="M636.09,633.46a101.26,101.26,0,0,1,32.82.44c10.88,2,21.81,5.84,31.22,12.72a50.74,50.74,0,0,1,12,12.59c3.11,4.74,6.21,9.73,7.24,16.5a15.64,15.64,0,0,1-.19,5.5,11.21,11.21,0,0,1-2.89,5.48,11.61,11.61,0,0,1-5.1,3.06,15.63,15.63,0,0,1-5.22.54,17.62,17.62,0,0,1-4.82-1,15.86,15.86,0,0,1-4.34-2.24,12,12,0,0,1-5.25-8.55,2.49,2.49,0,0,1,4.89-.87l0,.13c1,3.46,5.66,5.48,9.57,5.18a8,8,0,0,0,2.6-.62,3.91,3.91,0,0,0,1.5-1.2c.57-.79.73-2.08.27-4a23.16,23.16,0,0,0-2.59-5.86,57.12,57.12,0,0,0-4.19-5.88,70.28,70.28,0,0,0-4.8-5.33c-1.73-1.64-3.51-3.22-5.4-4.69-7.49-6-16.71-10.16-26.46-12.82a115.26,115.26,0,0,0-15-3,118.91,118.91,0,0,0-15.36-1.18h-.17a2.48,2.48,0,0,1-.33-4.94Z"/></svg>