<svg id="Layer_1" data-name="Layer 1" xmlns="http://www.w3.org/2000/svg" viewBox="0 0 1000 1000"><defs><style>.cls-1{fill:#f4b49c;}.cls-2{fill:#f4d28b;}.cls-3{fill:#f4cfc1;}.cls-4{fill:#818fd0;}.cls-5{fill:#f0baa5;}.cls-6{fill:#f4aa8f;}.cls-7{fill:#f4a78b;}.cls-8{fill:#f09f82;}.cls-9{fill:#f09878;}.cls-10{fill:#f49c7c;}.cls-11{fill:#5a669c;}.cls-12{fill:#515c8c;}.cls-13{fill:#233940;}.cls-14{fill:#7d5648;}.cls-15{fill:#6b493d;}</style></defs><title>Presenting Project</title><path class="cls-1" d="M571.19,445.59c-.42.67-.84,1.35-1.24,2-1.32,2.26-2.51,4.61-3.61,7a7.85,7.85,0,0,1-3.57,0,5.21,5.21,0,0,1-.91-.27C549.4,474.72,541,500.88,539,524.7c-.7,8.44,6.55,8.54,9.69,13.5a9.6,9.6,0,0,1,1.42,5c0,1.47.08,3,.11,4.48.29,13.39.14,27.84-.53,42.68-1.4,31.69-5.11,65.09-11.52,93.21-8.69,38.2-30.72,72.56-61,97.07l-24.65.38.91-.59-304.15-.06c-7.87,0-9.14-10.59-3.41-13.37q-8.68-56-19.29-111.61A3308.11,3308.11,0,0,0,26.91,264.59c-4.65-3.37-3.78-12.23,2.95-12.73a7.68,7.68,0,0,1,5.2.06q50.88.88,101.76,2.15,185.87,4.61,371.55,14.33a7,7,0,0,1,6.48,4.87,6.92,6.92,0,0,1,2.12,3.26l12.43,38.77,12.05,37.56,19.21,59.95,2.36,7.33L570,441.79Z"/><path class="cls-2" d="M892,705.74C833.4,536.37,781.17,363.51,719.26,195.68c-13.54-36.7-40.8-73.16-79.61-78.09-37.49-4.77-71,20.78-104.32,38.63a280.93,280.93,0,0,1-141.92,33c-42.07-1.5-92.82-9.07-118.47,24.31-4.89,6.36-18.6,30.85-13.28,39.11,8,12.47,53.92,9.11,66.16,9.86,30.06,1.85,60.18,2.78,90.3,2,35.26-.88,79.07-1.07,112.34,6.71,0,0,40.61,100.06,54.63,149.3,17.49,61.46,21.92,126,33.07,188.82,8.25,46.48,5.66,98.3-30.25,135.69-25.19,26.27-60,25.5-93.58,25-64.87-1-124,6-188.85,6-29.42-1-4,18.08,4.59,24.83,14.49,11.36,28.92,14.95,44.74,22a696.54,696.54,0,0,0,312.61,59.52c63.39-2.75,128.15-14.92,181.59-49.12,26.05-16.67,50.36-41.13,53.54-71.9q.25-2.42.32-4.83C903.44,739.23,897.67,722.19,892,705.74Z"/><path class="cls-3" d="M590.85,445.58c-.41.68-.84,1.36-1.23,2-1.32,2.27-2.52,4.61-3.61,7a7.57,7.57,0,0,1-3.56,0,4.41,4.41,0,0,1-.93-.27c-12.44,20.32-20.89,46.48-22.86,70.32-.7,8.42,6.54,8.54,9.69,13.49a9.74,9.74,0,0,1,1.41,5c0,1.48.09,3,.11,4.47,0,2.11.09,4.27.09,6.45s0,4.38,0,6.61c0,9.56-.23,19.53-.68,29.63-1.38,31.7-5.11,65.1-11.51,93.2-7.88,34.65-26.72,66.12-52.74,90q-4,3.68-8.26,7.13l-24.66.88a1.58,1.58,0,0,1,.91-.08h-59.9c-81.42,0-162.82-.54-244.24-.56-7.88,0-9.15-10.86-3.41-13.63-5.79-37.3-12.24-74.65-19.3-111.75A3311.61,3311.61,0,0,0,46.58,264.64c-4.65-3.36-3.79-12.26,3-12.74a7.65,7.65,0,0,1,5.18,0q50.88.88,101.76,2.15Q342.36,258.67,528,268.4a7,7,0,0,1,6.47,4.88,6.82,6.82,0,0,1,2.11,3.25l12.44,38.78,12.06,37.55,18.94,59.08.27.86,2.36,7.33,6.92,21.66Z"/><path class="cls-4" d="M245.24,294.24l-125.52-5.53c-9-.4-8.66,13.65.35,14l125.52,5.53C254.61,308.69,254.25,294.64,245.24,294.24Z"/><path class="cls-4" d="M539,403,445,411.43c-4.86.44-7.73-4.54-7-8.72l14.39-82.24a42.26,42.26,0,0,0,.29-10.08c-.29-4.45,3-9,8.27-7.11a127.06,127.06,0,0,1,75.6,73.77,73.76,73.76,0,0,0,7.91,14.47C547,395.43,545.28,402.46,539,403Z"/><path class="cls-5" d="M403.93,481.54h0s0,0,0,0S403.91,481.52,403.93,481.54Z"/><path class="cls-5" d="M594.48,462.57a11.63,11.63,0,0,1-1.14,3.81c-2.27,4.7-7.81,6.86-9.51,12-3.36,10.22-6.61,5.22-8,15.89-1.48,11.26-2.25,22.57-3.27,33.17-.57,5.79,13,11.42,12,17.37-.14.86,1.41,19.21,1.25,20.05,0,2.11-1.67,2.83-1.67,5,0,1.41-14.7-12.92-7.6,7.45v2.34c-7.1-9.38-7.05.59-7.5,10.69a130.33,130.33,0,0,1-19.45,17.8c-18.64,13.67-41.71,21.09-64.89,18.48-24.91-2.77-42.92-17.44-55.32-38.64C416,565.1,402.06,538.42,400,511.54a72.14,72.14,0,0,1,3.21-27.47,1.12,1.12,0,0,1,.1-.25c.23-.7.48-1.45.75-2.16C419.31,492.29,439,501.42,454.23,512c13.76,9.65,28.54,21,46.11,14,32.45-12.94,32.33-54.13,44.84-81.4a64.86,64.86,0,0,1,15.12-21.12c4.06-3.68,12.92-11.51,19.75-11.63l.27.86,2.36,7.33,6.92,21.66,1.23,3.79C591.91,450.24,595.07,458,594.48,462.57Z"/><path class="cls-5" d="M505.07,773.53q-4,3.68-8.26,7.13l-24.66.88a1.58,1.58,0,0,1,.91-.08h-59.9c-1-6.68-1.38-12.53-1-14.36,6.9-31.4-30.56-50.91-50.09-67.71-9.31-8-17.17-17.52-22.25-28.76-4.93-10.85-7.54-22.5-10.33-34s-5.74-23.3-12.37-33.23S300.09,587,289.85,581.13s-21-11.77-29.52-20.22c-8.79-8.7-14.28-19.83-18.1-31.45-7.31-22.27-9-52.43-31.45-65.55-7.47-4.38-1.5-15.78,5.9-12.74a5.85,5.85,0,0,1,6.45-1.57c30.74,9.65,39.67,36.58,54.88,60.92,8,12.78,16.44,25.13,30.81,29.15,13.12,3.66,49.63-13.44,60.15-4.27,18.8,16.42-.54,63.53,7.83,85.76,10.56,28.09,31.33,50.5,51.95,71.66,24.18,24.82,48.5,49.47,72.77,74.22A24.83,24.83,0,0,1,505.07,773.53Z"/><path class="cls-6" d="M272.84,454.5c-.84.15-1.69.34-2.53.52-8.81,1.91-12.78-11.57-3.95-13.48l1.67-.35a35.6,35.6,0,0,1,4.47,4.07A6.92,6.92,0,0,1,272.84,454.5Z"/><path class="cls-7" d="M573.32,738.53c-21.18,8.54-46.27,4-67.18-3.12a166.79,166.79,0,0,1-43.2-22.09c-2.26,2.05-5.81,2.88-8.36,1.11a235,235,0,0,1-96.9-152.13A26.57,26.57,0,0,0,345,551a41.8,41.8,0,0,0-9.55-2.8c-11.19-2-22-3.23-32.05-9-16.87-9.64-28.12-26.27-39.2-41.7-.21-.28-.41-.56-.62-.86a214.66,214.66,0,0,0-14.47-18.64c-7.05-7.81-15.16-14.45-25.28-17.77-5.08.21-10.21-4.78-6.63-10.1.15-.22.29-.45.46-.66,14.73-14.28,37.61-17.63,58.43-16.81a200.62,200.62,0,0,1,57.5,11,.3.3,0,0,1,0,.11c2.88,1,5.94,2,9.14,3.3l1.57.62c4.78,1.91,9.87,4.19,15.23,6.91l2.33,1.21A203,203,0,0,1,381,467.15l.14-.08a1.29,1.29,0,0,1,1.24,0,158.29,158.29,0,0,1,64.29,63.64c4.24,7.82,7.4,16.43,10.48,25.14,5.6,15.83,14.7,28.22,25.94,40.34C495.4,609.55,513.47,615,528.16,610c13-4.4,20.42-6.33,27.57-18.38.46-.79,6.26-8,6.68-8.77,3.12-5.92,7.3-12.2,7.52-18.8.2-5.79,0-13.54,2.51-18.8,9.93,4.32,14.5,10.3,23.68,16a6.9,6.9,0,0,1,3,3.58,7,7,0,0,1,.88.53l.53.39.31.28.29.28a6.31,6.31,0,0,1,.65.73,3,3,0,0,1,.2.25,184.51,184.51,0,0,0-10.17,18.74c-2.39,5.18-5.72,9.66-7.71,15a63.19,63.19,0,0,0-3.73,17.65C579.11,637.42,587.26,652,595.4,668c.42.81,1,1.63,1.43,2.44.8,1.63,1.08,3.27,2.49,4.94,0,0-.15.1-.15.14.31.66.46,1.33.73,2s.41,1.14.63,1.71c.55,1.46,1,2.95,1.46,4.45.18.62.34,1.24.51,1.87.32,1.22.58,2.47.81,3.74.13.7.24,1.39.34,2.11s.17,1.26.22,1.9C605.88,713.76,591.55,731.19,573.32,738.53Z"/><path class="cls-8" d="M662.78,748.21q-2.78,5.94-5.58,11.88a6.32,6.32,0,0,1-2.51,3.23c-1.45.7-3.16.18-4.68-.33A337.33,337.33,0,0,1,617,749.53c-10.56-5-21.29-10.63-33-11.2-9.49-.48-18.77,2.46-28.18,3.73-29.55,4-58.82-8.36-84.59-23.36-2.87-1.67-5.85-3.43-9.16-3.83-2-.23-4,0-5.88-.42a15.91,15.91,0,0,1-5.75-3,233,233,0,0,1-88.79-132.09c-2.19-9-4.13-18.58-10.63-25.12,23.21-2.72,45.41.54,63.59,16.54,11.68,10.28,19.74,24.07,30.47,35.35,15.34,16.13,36.58,26.92,58.82,28.18,11.11.62,22.56-1.17,32.3-6.57s17.61-14.64,20-25.52a65.17,65.17,0,0,0,1.1-12.52c8.56-11.08,13.36-24.69,15.43-38.45a2.84,2.84,0,0,1,.53-1.51c1.32-1.49,12.89.67,15.24.8a109.68,109.68,0,0,1,16,1.71,5.42,5.42,0,0,1,5.5,5.72,608.52,608.52,0,0,1,2.57,152c-.23,2.27-.48,4.66.43,6.75a12.21,12.21,0,0,0,3.11,3.88A126.41,126.41,0,0,0,662.78,748.21Z"/><path class="cls-9" d="M377.17,498c-21,16.39-41.22-15.21-53.66-27.8-7.6-7.71-17.14-14.64-28-16.73a38.3,38.3,0,0,0-16.88.77,7.57,7.57,0,0,0-1.49.61,17.82,17.82,0,0,1-15.87.32,7.19,7.19,0,0,1-2.18-1.41c-5.53-6.4-16.09-6-21.72.13-2.14,2.32-3,6.14-1.11,8.65a7.51,7.51,0,0,0,3.75,2.4c7.9,2.56,18.38-.14,26.64-.24,9.07-.11,18.08.58,26.74,3.42,31.49,10.35,45.39,45.33,42.79,76.23-.76,9,13.29,8.59,14-.35a97.84,97.84,0,0,0-2.66-32.18l.5.24c11.64,5.25,25.77,6.18,36.31-2.05C391.44,504.5,384.28,492.41,377.17,498Z"/><path class="cls-9" d="M538.54,737q-3.67,2.4-7.4,4.75a154.39,154.39,0,0,1-25-6.36,166.79,166.79,0,0,1-43.2-22.09c-.42.38,8.7,18.57,8.19,18.85-2.16,1.26-15.06-9.42-17.13-10.86-32.63-22.71-58.06-60.17-75.42-95.22a6.4,6.4,0,0,1,2.89-1.26c2.46-2.57,6.69-3.68,10.17-.77,9.09,7.6,13.39,20.18,23.32,26.64,11.31,7.35,15.7-3.51,21.08-11.49,4.83-7.19,11.42-12.74,20.13-12.61a21.61,21.61,0,0,1,2.94.25l1,.18c.2,0,.39.08.58.14h0c19.82,10.48,27.64,39.06,41.73,56.49a9.42,9.42,0,0,0,7.23,1.62c6.38-1.32,6.24-8.81,5.48-13.92-1.76-11.73-5.28-23.47-8.15-35a5.75,5.75,0,0,1-.59-6.32c1.45-4.86,8.23-6.87,11.69-3.48a87.72,87.72,0,0,1,29.13,20.91c2.88,4.61,5.55,9.33,8.22,13.85,5.53,9.38,11.71,19.2,13.36,30.16C572,712.84,554.47,726.58,538.54,737Z"/><path class="cls-7" d="M939.91,695.33c-1.9,4.63-3.69,9.29-5.24,14.07-3.27,10.08-6.21,20.29-10.28,30.08a160.56,160.56,0,0,1-21.72,37.78q-1.58,2-3.22,4C860,827.93,799.22,855.9,738.37,862.68c-49.27,5.51-100.3,1.5-143.8-21.74a227.28,227.28,0,0,1-76.9-45.9,220.26,220.26,0,0,1-56.13-80.71,185.53,185.53,0,0,1-13.29-77.76c.2-4,3.69-9,7.91-10a6.39,6.39,0,0,1,4.56.59c19.82,10.48,27.64,39.06,41.73,56.49a9.42,9.42,0,0,0,7.23,1.62c6.38-1.32,6.24-8.81,5.48-13.92-1.76-11.73-5.28-23.47-8.15-35a5.74,5.74,0,0,1-.59-6.32c1.45-4.86,8.23-6.87,11.69-3.48a87.72,87.72,0,0,1,29.13,20.91c13.93,14.71,24.07,33.39,33.34,51.3a8.32,8.32,0,0,1,.63,1.66c.62.79,1.25,1.57,1.91,2.36,28.3,34,86,56.84,126.68,52.7,24.26-2.49,51.45-7.56,70.23-23.4,15.77-13.29,39-40.38,42.08-64.4a39.53,39.53,0,0,0,.34-4.42,3.44,3.44,0,0,0,0,.38h.2a6.92,6.92,0,0,1,3,1.12,6.39,6.39,0,0,1,.76.55c25.39,21.1,59.16,30.44,91.65,26.15l.24,0c4.7-.37,9.28-3.08,13.42-5.12,4.82-2.38,10-3.92,14.7-6.34C944.27,685.09,942,690.19,939.91,695.33Z"/><path class="cls-10" d="M937.75,688.67c-1.08-.94-5.93.31-6.69.44-4.24.74-8.4,2-12.7,2.31l-.24,0a133.32,133.32,0,0,1-91.44-27.16,10.39,10.39,0,0,0-1,.46,8.94,8.94,0,0,0-1.4.91l-.21.16a12.85,12.85,0,0,0-2,1.84c-3.09,24-27.42,46.49-43.19,59.77-18.78,15.84-44.86,25.54-69.12,28-26.05,2.65-53.18-4.8-76.59-15.81a163.42,163.42,0,0,1-34.51-21.54c-4.2-3.47-9.11-11-13.8-13.28-8.45-4.12-4.73,11.19-3.41,14.8,5.72,15.63,21.43,26.23,35.14,34.47,22.42,13.47,48.84,21,74.9,22.44,41.13,2.35,81.54-14,111.41-42a153.08,153.08,0,0,0,32.45-44.22c-.35.71,19,7.27,20.79,7.74a112.85,112.85,0,0,0,40.75,2.9,139.11,139.11,0,0,0,39.34-10.07,2.85,2.85,0,0,0,1.45-1.06C938.06,689.28,938,688.91,937.75,688.67Z"/><path class="cls-10" d="M506.47,702.4a115.83,115.83,0,0,0-45.76-76.56c-7.23-5.4-14,6.9-6.9,12.24a100.1,100.1,0,0,1,38.62,64.67C493.73,711.56,507.8,711.35,506.47,702.4Z"/><path class="cls-11" d="M966.62,650c-.94,4.66-7.65,16.27-10.58,20.05-4.27,5.57-7.51,11.25-13.93,12.81-8.44,2.05-16.4,7.48-25.07,7.94-14.11.74-29.27.77-42.81-3.18-5.87-1.71-9.08-1-15.13-2-7.62-1.26-13.43-.28-19.5-1.11-5.4-.74-18.28,3.13-22.84,6.13-9.59,6.3-8.08,4.76-15.16,13.53a129.53,129.53,0,0,1-96.13,48.64,144.19,144.19,0,0,1-29.26-1.76c-18.41-3-33.92-7.36-50.11-16.19-6.55-3.58-14.11-13.36-16.65-20.39-4.56-12.51,4.11-24.21,4.24-36.62.1-10.59,1.3-21.21,1.56-31.8a624.71,624.71,0,0,0-1.56-62.49c-.13-.78-.26-1.56-.39-2.38,0-.49,0-1,.07-1.43.1-2.09.2-4.14.29-6.19a4.91,4.91,0,0,0-.88-.46c-.26-.13-.59-.26-.95-.46-4.3-1.92-14.79-6.39-16-7.1a106.46,106.46,0,0,1-16.45-11.5c-8.14-6.84-21.18-16.09-20.88-28A30.42,30.42,0,0,1,561,515.85c13.23-35,39.1-64.21,70.21-84.51a201.79,201.79,0,0,1,50.5-23.82c6.26-2,58.58-9.84,58.87-11-4.66,17.53-10.36,37-17.2,58.74-2.61,8.34,10.36-22.16,18.73-19.68,21.27,6.35,3.81,1.82,24.34-6.55s-6.87-13.46,11.24-26.19a19.27,19.27,0,0,0,4.69-5.6C845.62,405,899.18,443.95,928.5,500,952.74,546.41,977.34,596.8,966.62,650Z"/><path class="cls-7" d="M826.82,417c-9.31,16.39-20.07,31.83-33.85,44.62-21.48,19.91-51.72,32.51-80.33,26.16-14.35-3.2-27.18-11.47-36.76-22.57-11.49-13.3-18.32-30.67-17.57-48.27a.63.63,0,0,0,0-.21c.07,0,.14,0,.18-.09l1.29-.48.16-.07a7.88,7.88,0,0,0,.77-.29c1.2-.45,2.34-.89,3.41-1.32,6.08-2.48,9.79-4.43,11.83-6.09,7.72-6.29-8.47-8.61-10.08-20.5a15.13,15.13,0,0,1-.09-3.07,20.69,20.69,0,0,1,1.2-5.43c2.2-6.24-.73-12.94-3.77-19.48-1.27-2.79-2.59-5.54-3.52-8.24-2.13-6.29-6.2-15-13.87-15.53-7.31-.48-13.58-10.94-12.35-18a236.68,236.68,0,0,1,22.75-68.62C674.42,213.13,712,189.7,753,188.77c19.93-.45,37.64,10.69,38.49,32,.5,12.83,2.16,25.73,1.93,38.58-.3,18.25-3.22,35.9-1.79,54.29,2.72,35.13,13.31,69.8,34.83,98.06A4.79,4.79,0,0,1,826.82,417Z"/><path class="cls-12" d="M833,628.15c0,12.37-3,25.1-7.05,36.51-.93,2.63-1.92,5.18-2.95,7.64-18.58,44.61-59.22,74.76-107.29,81.18-25.87,3.46-51.66.26-75.41-10.65C625.4,736,612.47,725.62,610,708.56c-2.84-19.41,3.23-36.79,5-56a259.57,259.57,0,0,0,0-49.14c-2.74-28.29-1.33-56.46-13.53-84a3.44,3.44,0,0,1,.58-3.41c1.18-1.43,3.52-.92,5.08.08,3.78,2.44,5.85,6.75,7.54,10.92,9,22.07,10.88,45.18,14,68.54,6.05,45.12,22.6,84.32,67.67,101.16,43.09,16.11,100.1-2.58,123.24-42.83a81.23,81.23,0,0,0,9.54-26.1A1.93,1.93,0,0,1,833,628.15Z"/><path class="cls-13" d="M135.35,461.94c11.4-1.57,22.79-2.28,34.18-2.73a165.63,165.63,0,0,1,17.09,1c5.7.48,11.39,1.07,17.08,1.92a2.32,2.32,0,0,1,0,4.58c-5.7.83-11.4,1.39-17.09,1.84a165.82,165.82,0,0,1-17.09.88c-11.39-.5-22.78-1.26-34.17-2.89a2.31,2.31,0,0,1,0-4.57Z"/><path class="cls-14" d="M795.24,288.36c-1.71,4-11.49,11.49-11.74,3a80.44,80.44,0,0,0,4.76-13.08c1.07-4,1.84-8.23,1.1-12.32s-3.24-8-7.12-9.58c-3.22-1.26-6.88-.7-10.14.46a30.31,30.31,0,0,0-16.83,14.87,29.78,29.78,0,0,0-3,11,7.88,7.88,0,0,0-.44,2.6,2.11,2.11,0,0,1-3.09,1.25c-13-9.25-13.51-25-14.29-39.54-.41-7.59-1.26-15.41-4.91-22.08s-10.74-12-18.32-11.39c-4.83.37-9.21,3-12.83,6.25-15.15,13.5-25.67,42-51.25,32.12a33.6,33.6,0,0,1-21.28-30.65c-.62-20.65,11.85-35.48,28.37-45.65,14.17-8.71,31.34-14,45.8-16.52,32.74-5.73,72.31,2.74,89,34.58.21.39.41.79.59,1.19,11.55,25.76,7.45,55.18,7.11,82.63,0,3.64-.11,7.37-1.45,10.75Z"/><path class="cls-15" d="M789.63,194.88a63.27,63.27,0,0,1-6.52-.06c-11.81-.66-22.91,1.83-29.36,12.8-4.79,8.15-3.41,17.74-5.45,26.63-1.63,7.16-7,14.52-13.64,16.32-.36-6.24-.76-12.47-2.26-18.27-1.69-6.45-5.49-12.78-10.82-16.19a35,35,0,0,0-19.71-15.38c-15.79-4.72-34.76-1.63-44.41-18.11a39.34,39.34,0,0,1-3.24-7c14.17-8.71,31.34-14,45.8-16.52,32.74-5.73,72.31,2.74,89,34.58C789.25,194.08,789.44,194.47,789.63,194.88Z"/><path class="cls-10" d="M704.19,396.36c.5,17.64-14.76,47.11-28.31,68.84-11.49-13.3-18.32-30.67-17.57-48.27a.63.63,0,0,0,0-.21c.07,0,.14,0,.18-.09l1.29-.48.16-.07a7.88,7.88,0,0,0,.77-.29c1.2-.45,2.34-.89,3.41-1.32,6.08-2.48,9.79-4.43,11.83-6.09,7.72-6.29-8.47-8.61-10.08-20.5C675.47,396.54,692.54,400.17,704.19,396.36Z"/><path class="cls-9" d="M711.17,341.35c-7.24,8.17-17.66,12.43-28.58,10.61-7.15-1.2-10.22,9.74-3,10.95,14.83,2.48,29.56-2.16,39.62-13.52C724,343.92,716,335.86,711.17,341.35Z"/><path class="cls-9" d="M659.81,326.41a11.29,11.29,0,0,1-13.2-3.37c-4.28-5.83-14.14-.17-9.8,5.73a23,23,0,0,0,28.73,7.44C672.17,333.16,666.41,323.37,659.81,326.41Z"/><path class="cls-9" d="M784.72,273c-2.79-5.64-9.92-7.11-15.28-4.5-5.11,2.49-7.64,9.51-5.49,14.75a7.58,7.58,0,0,0,3.17,4.13,7.05,7.05,0,0,0,5.31.7,10.15,10.15,0,0,0,5.89.24C784.9,286.6,787.59,278.79,784.72,273Z"/><path class="cls-9" d="M712.2,269.85c-8.63-5-19.72-3.13-26.59,3.93-5.1,5.25,3.3,12.89,8.39,7.65A10.56,10.56,0,0,1,707.05,280C713.37,283.66,718.5,273.53,712.2,269.85Z"/><path class="cls-13" d="M277.19,436.64a4.08,4.08,0,0,0-2.12,1.81,11.31,11.31,0,0,0-1.53,3.52,9.24,9.24,0,0,0-.27,3.63,4.41,4.41,0,0,0,.46,1.34,8.44,8.44,0,0,0,.92,1.38,12.36,12.36,0,0,0,6.3,3.76,38.11,38.11,0,0,0,8.64.94,67.16,67.16,0,0,1,10.14.84,56.72,56.72,0,0,1,10.11,2.64A57.92,57.92,0,0,1,327.92,467a50,50,0,0,1,7.26,7.62c2.15,2.71,4,5.52,5.71,8.22,3.5,5.43,6.73,10.5,11,14.37a25.8,25.8,0,0,0,6.88,4.67,19.48,19.48,0,0,0,3.8,1.23,12.22,12.22,0,0,0,3.81.26c5.17-.36,10.55-3.85,11.49-8.93v-.07a2.29,2.29,0,0,1,4.55.53,15,15,0,0,1-5,10.19,20.16,20.16,0,0,1-10.11,5,19.29,19.29,0,0,1-5.8.19A23.9,23.9,0,0,1,356,509a33.65,33.65,0,0,1-9.5-5.37,50.78,50.78,0,0,1-7.51-7.37c-2.19-2.62-4.18-5.29-6.07-7.88s-3.76-5.08-5.63-7.4c-.94-1.17-1.93-2.23-2.93-3.28s-2-2.08-3.12-3.05a52.31,52.31,0,0,0-23.19-12.1,69.53,69.53,0,0,0-9-1.33,44.81,44.81,0,0,1-10.38-2,19.2,19.2,0,0,1-9.4-6.93,13.26,13.26,0,0,1-1.45-2.81,10.9,10.9,0,0,1-.68-3.32,15.13,15.13,0,0,1,1-5.87,16.56,16.56,0,0,1,2.88-5,8.47,8.47,0,0,1,5.84-3.15,2.26,2.26,0,0,1,.76,4.43Z"/><path class="cls-13" d="M224.08,461.6a101.28,101.28,0,0,1,33-4.56,105.49,105.49,0,0,1,33,6.35,102.32,102.32,0,0,1,29.3,16.93,103.49,103.49,0,0,1,22.48,25.47c6.12,9.7,10.1,20.46,13,31.18s4.9,21.52,6.94,32.14c1,5.31,2.1,10.58,3.31,15.79a133.75,133.75,0,0,0,4.37,15.25,199.49,199.49,0,0,0,13.33,29.14h0a2.29,2.29,0,0,1-3.93,2.36,182,182,0,0,1-15.69-29.07,125.08,125.08,0,0,1-5.46-15.77c-1.49-5.3-2.82-10.62-4.1-15.92-2.58-10.58-4.9-21.11-8.06-31.22-1.58-5.05-3.39-10-5.37-14.78l-1.57-3.56L337,517.84c-1.16-2.3-2.38-4.56-3.72-6.76a97.75,97.75,0,0,0-76.51-47.39A101.16,101.16,0,0,0,225.3,466h0a2.29,2.29,0,0,1-1.21-4.4Z"/><path class="cls-13" d="M575.61,547.78a92.29,92.29,0,0,1-7.68,29.42,74.21,74.21,0,0,1-17.79,25.09c-7.87,6.88-17.79,11.86-28.54,13s-21.83-2.06-30.71-7.76-16.23-13.51-22.06-22S458.49,568,454.06,559.09L447.35,546c-2.27-4.3-4.71-8.43-7.31-12.5a206.32,206.32,0,0,0-17.32-23.16c-3.14-3.66-6.46-7.18-9.86-10.6S406,493,402.34,489.83a226.84,226.84,0,0,0-22.94-17.72,213.19,213.19,0,0,0-25.16-14.47c-4.37-2.1-8.75-4.11-13.28-5.87l-6.78-2.64c-2.27-.86-4.57-1.63-6.87-2.39a192.61,192.61,0,0,0-57.19-9.67,99.76,99.76,0,0,0-28.42,3.68c-9.1,2.67-17.62,7.36-24,14.37a2.29,2.29,0,0,1-3.46-3c6.68-8,15.95-13.57,25.67-16.83s20-4.57,30.11-4.85a200,200,0,0,1,59.72,8.4c2.42.72,4.83,1.46,7.21,2.29l7.13,2.55c4.75,1.69,9.43,3.7,14,5.8A222.66,222.66,0,0,1,384.7,464,207.79,207.79,0,0,1,409,482.21a196.53,196.53,0,0,1,21.41,21.56c3.28,3.86,6.45,7.83,9.45,11.92s5.8,8.33,8.47,12.64,5.17,8.76,7.45,13.24L462.41,555c4.25,8.9,8.47,17.67,13.71,25.61a70.37,70.37,0,0,0,19.24,20c7.59,5.13,16.58,8,25.56,7.24s17.73-4.77,24.88-10.68a68.8,68.8,0,0,0,17-22.44,87.21,87.21,0,0,0,8.23-27.49v-.05a2.28,2.28,0,0,1,4.54.51Z"/><path class="cls-13" d="M279.62,465.66a29.64,29.64,0,0,0-7.35,14.51,35.05,35.05,0,0,0,.47,16.21c2.76,10.63,9.58,20.1,17.79,27.8s17.69,14.26,28.43,18.28a81,81,0,0,0,34,5.05h0a2.3,2.3,0,0,1,.63,4.54,79.42,79.42,0,0,1-70.15-20.6,73.32,73.32,0,0,1-11.85-15.14,55.78,55.78,0,0,1-6.9-18.23,42.53,42.53,0,0,1,1.1-19.6,33.54,33.54,0,0,1,10.73-16.21,2.29,2.29,0,0,1,3.09,3.36Z"/><path class="cls-13" d="M165.57,772.58c13.62-.19,27.24-.23,40.86-.33l40.85,0,40.85.18c13.62.1,27.23.07,40.85.29q10.21.09,20.42.37c6.81.13,13.61.37,20.42.59L410.64,775q40.83,1.41,81.65,3.32a2.29,2.29,0,0,1-.08,4.58q-40.86.53-81.71.45l-40.85-.07c-6.81,0-13.62,0-20.42-.13s-13.61-.18-20.42-.35c-13.61-.26-27.22-.77-40.83-1.15l-40.83-1.26-40.83-1.48c-13.61-.58-27.22-1.09-40.82-1.77a2.29,2.29,0,0,1,.08-4.57Z"/><path class="cls-13" d="M36.1,250.37c10.81,19.37,19.44,39.89,26.74,60.76s13.23,42.19,19,63.43,11.3,42.56,16.67,63.92,10.7,42.72,15.61,64.19c10,42.91,18.56,86.11,26.57,129.41q6,32.48,11.46,65c3.74,21.69,7,43.46,10.29,65.23a2.29,2.29,0,0,1-4.52.77v0c-8.12-43.22-16.25-86.42-25.36-129.43q-6.75-32.27-13.88-64.45l-14.44-64.31Q89.92,440.6,73.93,376.63c-5.29-21.33-10.74-42.56-17.41-63.39s-14.4-41.31-24.44-60.71a2.28,2.28,0,0,1,4-2.16Z"/><path class="cls-13" d="M243.35,257.32l20.13-1.05,20.14-.81,20.16-.51,20.16-.33,20.17-.05,20.17.16,20.17.35q10.08.24,20.16.61c13.44.49,26.87,1.33,40.28,2.35L465,259.66l20.08,1.86q40.15,3.89,80.05,9.73a2.29,2.29,0,0,1-.53,4.55q-40.09-3.4-80.19-6l-20.06-1.16-20.06-1c-6.69-.28-13.38-.54-20.06-.91s-13.37-.58-20.06-1-13.37-.59-20.06-1L364,264,344,263.34l-20.08-.52-20.09-.44-20.1-.25-20.1-.18-20.11-.06h0a2.28,2.28,0,0,1-.11-4.57Z"/><path class="cls-13" d="M528.64,260.41c2.48,4.83,5,9.65,7.37,14.55s4.69,9.81,6.86,14.79,4.35,10,6.37,15,4.12,10.05,6,15.13c3.9,10.14,7.51,20.38,11.05,30.64L571.51,366q2.5,7.74,4.88,15.53c3.15,10.38,6,20.85,8.63,31.36s5.2,21,7.59,31.61q7.25,31.68,12.93,63.68a2.29,2.29,0,0,1-4.48,1c-5.37-20.93-10.84-41.8-16.54-62.6q-4.33-15.59-8.81-31.12c-1.53-5.16-3.08-10.33-4.54-15.51s-3.05-10.33-4.49-15.52-3.05-10.32-4.51-15.51l-4.63-15.47c-1.57-5.15-3.24-10.26-4.86-15.39s-3.44-10.19-5.08-15.32-3.52-10.16-5.27-15.25-3.74-10.08-5.6-15.13-3.93-10-5.89-15l-6.29-14.85,0-.07a2.28,2.28,0,0,1,4.13-1.93Z"/><path class="cls-13" d="M453.81,632.08a175.31,175.31,0,0,0,.43,37.56l.61,4.66c.19,1.55.4,3.11.74,4.64l1.84,9.21,2.4,9.08c.81,3,1.92,6,2.85,8.94a199.24,199.24,0,0,0,15.48,34.11,207.44,207.44,0,0,0,21.66,30.54c4,4.82,8.36,9.28,12.7,13.77l6.8,6.44c2.29,2.12,4.72,4.12,7.06,6.19a274,274,0,0,0,98.51,52.92,245.41,245.41,0,0,0,36.56,7.67,307.27,307.27,0,0,0,37.46,2.49,374.41,374.41,0,0,0,75-7.58q9.27-1.86,18.45-4.16c6.1-1.55,12.31-3.13,18-5.16a207,207,0,0,0,33.45-16.89A332.63,332.63,0,0,0,874.86,805c9.9-7.75,19.48-16.13,27.11-25.85L902,779a2.29,2.29,0,0,1,3.65,2.77c-7.81,10.6-17.33,19.39-27.2,27.63a314,314,0,0,1-31.19,22.69A213.49,213.49,0,0,1,813,850.36c-6.29,2.41-12.42,4.08-18.62,5.8s-12.45,3.25-18.72,4.65A369,369,0,0,1,699,869.94a284.71,284.71,0,0,1-38.76-2.11c-6.43-.8-12.87-1.85-19.24-3.17s-12.67-3-18.9-4.81a273,273,0,0,1-70.3-32.7,280.37,280.37,0,0,1-31-23.27c-2.4-2.17-4.87-4.26-7.22-6.5l-7-6.79c-4.46-4.71-8.93-9.43-13-14.52a215.31,215.31,0,0,1-21.84-32.14,206.3,206.3,0,0,1-15.34-35.67c-.91-3.11-2-6.18-2.72-9.33l-2.22-9.46-1.64-9.57c-.31-1.59-.48-3.2-.63-4.81l-.5-4.83a180.42,180.42,0,0,1,.63-38.69,2.28,2.28,0,0,1,4.54.5Z"/><path class="cls-13" d="M518.06,661a27.88,27.88,0,0,1-14.61-17.5,25.5,25.5,0,0,1-.94-6,25.13,25.13,0,0,1,0-3.05,17.94,17.94,0,0,1,.5-3.22,15.62,15.62,0,0,1,3-6.22,11.05,11.05,0,0,1,3.12-2.62,10.21,10.21,0,0,1,4.26-1.22,13.76,13.76,0,0,1,7.19,1.9c.92.49,1.69.95,2.46,1.41l2.34,1.38c3.07,1.92,6.14,3.85,9.06,6a146.14,146.14,0,0,1,16.71,13.9c1.31,1.26,2.58,2.55,3.85,3.85s2.46,2.66,3.64,4c2.42,2.69,4.62,5.58,6.8,8.47a125.48,125.48,0,0,1,11.64,18.5c3.26,6.64,5.74,14,5.84,21.77s-1.87,15.54-6.79,21.55a2.3,2.3,0,0,1-3.72-2.68v0c3.42-5.44,4.44-12.09,3.76-18.45a46.9,46.9,0,0,0-6.48-18.24,130.74,130.74,0,0,0-11.87-16.47q-6.61-7.84-13.79-15.1a169.24,169.24,0,0,0-15.22-13.62c-2.67-2.12-5.43-4.13-8.23-6.08l-2.13-1.42c-.71-.48-1.43-1-2-1.33a7.12,7.12,0,0,0-2.77-1.16,2.12,2.12,0,0,0-1.76.8,8,8,0,0,0-1.75,3.08,10.55,10.55,0,0,0-.45,2,18,18,0,0,0-.19,2.21,18.66,18.66,0,0,0,.38,4.48,23.05,23.05,0,0,0,10.3,15l0,0a2.29,2.29,0,0,1-2.2,4Z"/><path class="cls-13" d="M545,517.11a173.92,173.92,0,0,0,19.74,16.52c6.95,5.12,14.13,9.94,21.43,14.52s14.37,9.52,21.83,13.78,15.11,8.17,23.15,10.61l.14,0a2.29,2.29,0,0,1-.92,4.48A66.54,66.54,0,0,1,617,574.19c-2.17-.67-4.35-1.35-6.42-2.22s-4.22-1.64-6.26-2.58-4.14-1.79-6.13-2.81-4.06-1.94-6-3-4-2.1-5.88-3.27-3.8-2.37-5.67-3.61a213.07,213.07,0,0,1-21-16.67,116.37,116.37,0,0,1-18.11-20,2.29,2.29,0,0,1,3.51-2.91Z"/><path class="cls-13" d="M668.85,414.79q-4.68,2.29-9.37,4.48l-9.14,4.87c-3,1.7-5.95,3.48-8.92,5.21s-5.74,3.78-8.61,5.65a192.9,192.9,0,0,0-31.06,26.53c-1.17,1.23-2.26,2.53-3.39,3.79l-3.45,3.74q-3.21,3.94-6.52,7.82l-6,8.2-5.52,8.59a163.33,163.33,0,0,0-16.29,37.64,2.3,2.3,0,0,1-4.47-1,140.74,140.74,0,0,1,13.44-40.65l5.22-9.46,5.91-9.06c2.16-2.88,4.29-5.81,6.56-8.61s4.76-5.43,7.27-8a171.52,171.52,0,0,1,33.93-26.39c3.13-1.74,6.21-3.53,9.36-5.21s6.38-3.18,9.59-4.7l9.84-4.1q5-1.82,10-3.55a2.28,2.28,0,0,1,1.75,4.21Z"/><path class="cls-13" d="M896.8,451.7c5.73,6.57,11.26,13.33,16.52,20.3,2.66,3.46,5,7.13,7.56,10.69l7.48,10.76A263.62,263.62,0,0,1,952,540.34c3.21,8.14,6.1,16.36,8.87,24.63s5.3,16.66,7.44,25.19a206.25,206.25,0,0,1,4.92,26,86,86,0,0,1-.64,27.1l-.7,3.36c-.26,1.12-.6,2.21-.9,3.32-.55,2.23-1.43,4.37-2.19,6.54a65.46,65.46,0,0,1-6.47,12.27,57,57,0,0,1-20.62,18.71A66.2,66.2,0,0,1,915,694.59a133.52,133.52,0,0,1-26.83-1.32c-8.73-1.16-17.24-2.68-25.65-3.64s-16.72-1.34-24.68-.17a48.78,48.78,0,0,0-11.4,3,42.88,42.88,0,0,0-10.09,5.82C810,703.06,804.55,709.41,799,716c-2.82,3.31-5.59,6.66-8.77,10a97.33,97.33,0,0,1-10.12,9.23,91.42,91.42,0,0,1-23.84,13.56c-2.15.83-4.33,1.55-6.54,2.2s-4.28,1.2-6.44,1.75q-6.44,1.65-13,2.88a179.32,179.32,0,0,1-26.54,3,139.53,139.53,0,0,1-26.82-1.6c-4.46-.67-8.86-1.72-13.1-2.74S655.24,752,651,750.66c-8.49-2.81-17-6.49-24.47-12.09a52.65,52.65,0,0,1-10.14-9.72A54.63,54.63,0,0,1,612.3,723c-.59-1-1.12-2.08-1.67-3.11a28.54,28.54,0,0,1-1.51-3.21A47.07,47.07,0,0,1,605.7,703a75.46,75.46,0,0,1,0-13.72c.38-4.47,1-8.83,1.57-13.11s1.11-8.52,1.56-12.79a496.9,496.9,0,0,0,2.55-51.54,518.47,518.47,0,0,0-10.43-102.71,2.29,2.29,0,0,1,4.48-1A499.92,499.92,0,0,1,618,611.78a503.85,503.85,0,0,1-1.77,52.32c-.39,4.35-.85,8.72-1.38,13s-1,8.55-1.32,12.72c-.56,8.32,0,16.47,3.19,23.6a21.87,21.87,0,0,0,1.3,2.64c.48.86.93,1.75,1.44,2.59a46.19,46.19,0,0,0,3.48,4.78,44.06,44.06,0,0,0,8.7,8.07c6.5,4.7,14.15,8,22.11,10.49q6,1.87,12.21,3.31c4.19,1,8.25,1.88,12.37,2.44a130.15,130.15,0,0,0,25,1.2,169.54,169.54,0,0,0,25-3.14c4.14-.83,8.26-1.79,12.36-2.85,2-.53,4.12-1.11,6.1-1.69s3.87-1.23,5.77-2a81.22,81.22,0,0,0,21.13-12.14,88.52,88.52,0,0,0,9.1-8.24c2.81-2.93,5.59-6.24,8.4-9.52,5.62-6.58,11.53-13.52,19.08-19.19a52.17,52.17,0,0,1,12.44-7,58.64,58.64,0,0,1,13.71-3.49c9.24-1.26,18.39-.68,27.17.39s17.36,2.71,25.8,3.91a124.6,124.6,0,0,0,25,1.51,57.34,57.34,0,0,0,23.23-5.89l2.58-1.48,1.29-.74,1.21-.86,2.43-1.72,2.25-1.95,1.13-1,1-1.08,2.07-2.15A57.89,57.89,0,0,0,955.3,664,57,57,0,0,0,961,653.36c.68-1.91,1.5-3.77,2-5.75.28-1,.6-1.95.85-2.94l.67-3a30.43,30.43,0,0,0,.55-3c.15-1,.33-2,.45-3,.14-2,.45-4.09.43-6.15l.07-3.08-.12-3.09c0-2-.29-4.19-.47-6.27a198.74,198.74,0,0,0-4.37-25.11c-2-8.32-4.33-16.57-6.93-24.77s-5.35-16.39-8.38-24.41c-6-16.07-13.16-31.73-22.19-46.27l-7.14-10.74c-2.42-3.55-4.68-7.22-7.24-10.69q-7.57-10.46-15.89-20.36h0a2.28,2.28,0,0,1,3.47-3Z"/><path class="cls-13" d="M844.55,391c-2.36,5.14-4.84,10.3-7.29,15.44s-4.79,10.35-7.6,15.36a212.75,212.75,0,0,1-18.84,29c-14.22,18.25-33.56,33.71-56.46,40.88a79.33,79.33,0,0,1-35.74,3,72,72,0,0,1-8.88-2,67.67,67.67,0,0,1-8.58-3.08c-1.4-.57-2.72-1.34-4.07-2l-2-1c-.67-.35-1.28-.79-1.93-1.18l-3.81-2.43-3.59-2.73a37.55,37.55,0,0,1-3.43-2.9c-1.09-1-2.26-2-3.28-3.06a83.9,83.9,0,0,1-11.09-14c-.77-1.27-1.46-2.59-2.19-3.88l-1.08-1.95-.92-2A69.09,69.09,0,0,1,657.12,418l0-.35a.58.58,0,0,0,0,.21c0,.05,0,0,0-.06v-.13a2.29,2.29,0,0,1,4.58,0v.25a5.13,5.13,0,0,1-.05.61l0-.35c0,22,11.83,42.84,29.07,55.36l3.28,2.28,3.46,2c.58.32,1.14.69,1.74,1l1.8.83c1.21.53,2.37,1.18,3.61,1.62a58.41,58.41,0,0,0,7.51,2.39,62.39,62.39,0,0,0,7.74,1.48,79.76,79.76,0,0,0,15.83,0l4-.49c1.31-.22,2.61-.5,3.92-.74s2.6-.56,3.9-.87,2.6-.61,3.87-1a101.93,101.93,0,0,0,29-14.12c9-6.13,16.86-13.87,24.06-22.26a205.37,205.37,0,0,0,19.41-27.15c3-4.74,5.6-9.76,8.35-14.67L840.47,389v0a2.29,2.29,0,0,1,4.07,2.06Z"/><path class="cls-13" d="M649.13,255a27.87,27.87,0,0,1-16-8.83,35.51,35.51,0,0,1-8.48-16.49,43.79,43.79,0,0,1,.32-18.46,58.36,58.36,0,0,1,6.72-16.85c6.1-10.44,15.38-18.67,25.68-24.41A68.7,68.7,0,0,1,691,161a2.3,2.3,0,0,1,.32,4.57h0A71.82,71.82,0,0,0,661.71,177a74.29,74.29,0,0,0-21.35,22.51c-5.43,8.69-8.88,18.84-7.65,28.7a28.1,28.1,0,0,0,5.49,13.57,23.55,23.55,0,0,0,11.9,8.67h0a2.29,2.29,0,0,1-1,4.45Z"/><path class="cls-13" d="M670,235.93c-1.77,5.38-3.69,10.7-5.56,16l-5.82,15.93c-3.95,10.59-8,21.16-12.16,31.65-2,5.25-4.6,10.5-6.29,15.21a27.48,27.48,0,0,0-1.58,7,15.83,15.83,0,0,0,.85,6.49A9.53,9.53,0,0,0,643,333a13.24,13.24,0,0,0,6.22,2.09,17.24,17.24,0,0,0,1.78.07l.86,0c.13,0,.27,0,.41-.05a5.19,5.19,0,0,0,2.28-1.48c.9-.84,1.81-1.92,2.92-3a13.14,13.14,0,0,1,4.24-3,2.29,2.29,0,0,1,2.09,4.06l-.15.09c-1.58,1-2.88,3.25-4.83,5.76a10.77,10.77,0,0,1-4.45,3.52,8.48,8.48,0,0,1-1.63.47c-.48.09-.82.13-1.25.19a23.9,23.9,0,0,1-2.45.18,19.53,19.53,0,0,1-10-2.29,17.54,17.54,0,0,1-7.3-7.9,23.89,23.89,0,0,1-2.27-10,34.86,34.86,0,0,1,1.37-9.65,74.3,74.3,0,0,1,2.95-8.45c1-2.64,2.12-5.24,3.26-7.83,4.5-10.36,9.19-20.64,13.95-30.9l7.23-15.34c2.49-5.08,4.92-10.19,7.49-15.23a2.29,2.29,0,0,1,4.22,1.76Z"/><path class="cls-13" d="M662,347.47a54.8,54.8,0,0,0,12.84,2.22,46.79,46.79,0,0,0,12.45-1.11,58.5,58.5,0,0,0,11.91-3.3,39.4,39.4,0,0,0,10.76-6.83l.06-.05a2.32,2.32,0,0,1,3.6,2.82,32.61,32.61,0,0,1-10.26,11.36,41.47,41.47,0,0,1-6.81,3.83,27.63,27.63,0,0,1-7.51,2.22,42.65,42.65,0,0,1-15.42-.81,38,38,0,0,1-13.71-6.27,2.32,2.32,0,0,1,2-4.08Z"/><path class="cls-13" d="M771.87,342.8c-4.41,4.36-8.94,8.57-13.45,12.81l-13.73,12.48-13.81,12.32-6.9,6.15c-2.28,2.06-4.56,4.1-7,6.17a63.93,63.93,0,0,1-7.91,5.89,38.74,38.74,0,0,1-9.49,4.43,29.62,29.62,0,0,1-10.81,1.27,30.37,30.37,0,0,1-10.41-2.61,29.94,29.94,0,0,1-8.79-6,27.11,27.11,0,0,1-5.9-8.73,28.31,28.31,0,0,1-1-20.11,2.3,2.3,0,0,1,4.43,1.15v0a24.16,24.16,0,0,0,2.66,16A21.59,21.59,0,0,0,681.51,394a22.42,22.42,0,0,0,7.6,1.28,21.05,21.05,0,0,0,7.41-1.4,36.53,36.53,0,0,0,7.08-3.74c1.16-.77,2.31-1.59,3.45-2.49s2.32-1.76,3.47-2.7l7.1-5.83,7.23-5.84q7.26-5.79,14.6-11.46l14.69-11.28c4.93-3.71,9.81-7.49,14.77-11.18a2.29,2.29,0,0,1,3,3.47Z"/><path class="cls-13" d="M706.6,397.59a48.44,48.44,0,0,1,1.66,5,42.71,42.71,0,0,1,1,5.2,41.84,41.84,0,0,1,0,10.76c-.55,3.62-2.29,7-4.13,10.09a32.89,32.89,0,0,1-3.22,4.4c-.62.67-1.22,1.34-1.9,2-.33.31-.67.6-1,.9-.17.15-.32.28-.5.41s-.21.18-.21.15a.27.27,0,0,0,0-.12,2.29,2.29,0,1,1-4.1-2.05c.09-.21.19-.42.31-.62a2.85,2.85,0,0,0,.16-.34l.25-.57c.15-.36.31-.72.45-1.09l.82-2.15c.5-1.44,1-2.86,1.34-4.31.82-2.87,1.08-5.81,1.8-8.63.3-1.43.81-2.84,1-4.32.12-.74.32-1.47.45-2.21s.2-1.5.33-2.26a18.75,18.75,0,0,0,.3-2.29l.28-2.33c.17-1.57.23-3.16.48-4.8l0-.23a2.33,2.33,0,0,1,4.47-.5Z"/><path class="cls-13" d="M798.4,232c-.83,8.45-1.51,16.9-1.82,25.35s-.49,16.91-.28,25.34A398,398,0,0,0,800.58,333c.63,4.16,1.26,8.32,2,12.44s1.47,8.21,2.37,12.26a124.05,124.05,0,0,0,7.58,23.45,83,83,0,0,0,13,20.59,62.53,62.53,0,0,0,19.15,15h0a2.29,2.29,0,0,1-1.82,4.21,63.47,63.47,0,0,1-22.24-14.57A84.7,84.7,0,0,1,805,384.82a124.3,124.3,0,0,1-9.43-24.75c-1.16-4.24-2.17-8.5-3-12.78q-.61-3.21-1.14-6.42c-.34-2.14-.6-4.29-.89-6.43a326.19,326.19,0,0,1-2.45-51.77q.46-12.95,1.83-25.81c1-8.56,2.25-17.09,4-25.52a2.29,2.29,0,0,1,4.52.68Z"/><path class="cls-13" d="M467.67,619.69a307.83,307.83,0,0,0,8.64,39.1c1.8,6.37,3.21,12.86,5.14,19.25s4.06,12.74,6.33,19.11a2.31,2.31,0,0,1-4.09,2.06A128.54,128.54,0,0,1,473.63,681a109.76,109.76,0,0,1-7.18-19.63,141.64,141.64,0,0,1-3.34-41.47,2.3,2.3,0,0,1,4.56-.19Z"/><path class="cls-13" d="M482.47,614.13a227.92,227.92,0,0,0,8.49,34.7c1.8,5.61,3.23,11.35,5.18,17s4.13,11.19,6.47,16.79h0a2.31,2.31,0,0,1-3.95,2.33,100.79,100.79,0,0,1-10.19-15.8,87,87,0,0,1-7.3-17.43,111,111,0,0,1-3.28-37.41,2.3,2.3,0,0,1,4.56-.18Z"/><path class="cls-13" d="M749,280.71a100.77,100.77,0,0,1,11.87-18.54c2.31-2.8,4.85-6,9-8.35a15.83,15.83,0,0,1,14.66-.5,18.07,18.07,0,0,1,9.35,10.54,23.92,23.92,0,0,1,.52,13,33.47,33.47,0,0,1-4.69,11A74.42,74.42,0,0,1,783,296.6a2.31,2.31,0,0,1-3.81-2.55c1.63-3.2,3.28-6.3,4.56-9.39a30.62,30.62,0,0,0,2.41-9.15,16,16,0,0,0-1.3-8.12,11.28,11.28,0,0,0-4.78-4.91,7.38,7.38,0,0,0-2.9-.89,6.28,6.28,0,0,0-3,.58c-2.25.93-4.68,3.08-7.17,5.52a179.38,179.38,0,0,0-14.1,15.48h0a2.3,2.3,0,0,1-3.84-2.47Z"/><path class="cls-13" d="M684,272.6a19.16,19.16,0,0,1,6.73-6,24.31,24.31,0,0,1,8.8-2.83,19,19,0,0,1,9.07,1.81,19.28,19.28,0,0,1,7.31,5.36,2.39,2.39,0,0,1-2.42,3.83l-.16,0a33.69,33.69,0,0,0-6.85-1c-2.21-.15-4.33.3-6.4.25a30.62,30.62,0,0,0-6.43.34,34.41,34.41,0,0,0-6.68,1.83l-.14.05A2.37,2.37,0,0,1,684,272.6Z"/><path class="cls-13" d="M133.38,436.07c11.18-2,22.39-3.19,33.61-4.09a161.51,161.51,0,0,1,16.89.27c5.64.25,11.28.61,16.93,1.24a2.32,2.32,0,0,1,.17,4.58c-5.59,1.06-11.18,1.84-16.79,2.52a161.51,161.51,0,0,1-16.82,1.56c-11.26,0-22.52-.36-33.82-1.53a2.31,2.31,0,0,1-.17-4.56Z"/><path class="cls-13" d="M130.59,404.32c18.38-2.53,36.8-4.2,55.22-5.61,9.22-.57,18.46-.49,27.7-.48s18.48.11,27.74.48a2.3,2.3,0,0,1,.23,4.57h-.06c-9.19,1.31-18.39,2.35-27.59,3.28s-18.41,2-27.63,2.32c-18.46.46-36.93.66-55.44,0a2.29,2.29,0,0,1-.23-4.56Z"/><path d="M257.69,325.24,112.59,316a2.81,2.81,0,0,1-2.65-2.11l-5.39-24a2.83,2.83,0,0,1,2.21-3.37,2.62,2.62,0,0,1,3.2,2l2.38,10.65c.19.8.33,1.9.5,3.14.3,2.32.75,5.85,1.63,6.93,2,2.4,8.92,2.35,13.54,2.32,1.6,0,3.07,0,4.23.05l125.54,7.93a2.58,2.58,0,0,1,2.38,1.35,3.47,3.47,0,0,1-.14,3.17,2.58,2.58,0,0,1-2.13,1.16Z"/><path d="M205.65,685.39l53.09-91.21a2.86,2.86,0,0,1,1.82-1.3,2.53,2.53,0,0,1,2,.3l20.25,13.07c4.14,2.65,4.78,3.07,7.71-.33l7.13-8.26q12.47-14.46,24.94-29l6-7,.94,1.88c.33.69.66,1.38,1,2l.75,1.55-41,47.68a2.82,2.82,0,0,1-3.48.5l-24.64-15.86-51.63,88.67a2.68,2.68,0,0,1-2.32,1.38,3,3,0,0,1-1.49-.41A2.71,2.71,0,0,1,205.65,685.39Z"/><path d="M365.5,703.78a2.5,2.5,0,0,1-2.68,2.48h-.06l-154.41-3.2a2.66,2.66,0,0,1-2.73-2.82,2.56,2.56,0,0,1,2.73-2.61l154.41,3.6C364.34,701.29,365.52,702.15,365.5,703.78Z"/><path d="M200.15,698.31a2.9,2.9,0,0,1-1,2.71,3,3,0,0,1-1.91.69,3.33,3.33,0,0,1-.91-.14,2.54,2.54,0,0,1-1.6-2l-26.93-157a2.92,2.92,0,0,1,2.43-3.37,2.51,2.51,0,0,1,3,2.1Z"/><path d="M461.32,304.81a3,3,0,0,1-3.23,2.65c-35.16-4-70.93,11.74-91.15,40.11-20.88,29.31-23.31,70.77-6,103.14.47.91.44.63-.08,1.46s-1.49.08-2.46.08h-.11c-.94,0-1.74.78-2.21-.11-18.67-35-15.69-78.81,7.46-109.91,21.57-29,59.11-44.71,95.57-40.56l0,.14A2.64,2.64,0,0,1,461.32,304.81Z"/></svg>