<svg id="Layer_1" data-name="Layer 1" xmlns="http://www.w3.org/2000/svg" viewBox="0 0 1000 1000"><defs><style>.cls-1{fill:#b3d1ff;}.cls-2{fill:#ff9880;}.cls-3{fill:#5e382f;}.cls-4{fill:#ff8b70;}.cls-5{fill:#7d4a3e;}.cls-6{fill:#f5856b;}.cls-7{fill:#57a0ff;}.cls-8{fill:#338cff;}.cls-9{fill:#e3d8cc;}.cls-10{fill:#9e4f00;}.cls-11{fill:#e3e3e3;}.cls-12{fill:#bd5f00;}.cls-13{fill:#ffce8f;}.cls-14{fill:#9e5000;}.cls-15{fill:#ba5e00;}.cls-16{fill:#7957ff;}.cls-17{fill:#233940;}</style></defs><title>Librarian</title><path class="cls-1" d="M868.43,784.67a287.47,287.47,0,0,1-43.1,21.67c-74.49,30.45-174.9,41.76-275.5,42.62-33.81.29-67.55,1-100.63,1.5-192.68,2.73-363.64-3.93-402.78-164.83C.56,497.09,62.59,166.22,383.72,166.22c209.77,0,373.26,195.06,480,309.59q10.31,11.05,19.48,22.45c27,33.57,46.47,69.61,56.13,109.29C959.61,691,928.43,747.44,868.43,784.67Z"/><path class="cls-2" d="M882.82,445.62,844,436.78a73.72,73.72,0,0,1-13.25-38.18c-.11-1.75-.43-3.48-.43-5.19,0-.81-.22-1.63-.22-2.44v-.25c0-.84.33-1.67.39-2.51s.26-1.89.34-2.81c.07-.76.22-1.5.3-2.23.11-.94.27-1.85.39-2.75.1-.59.2-1.2.31-1.79a3.65,3.65,0,0,1,.08-.37c.12-.77.27-1.54.42-2.31.36-1.86.76-3.66,1.2-5.4.11-.45-.11-.9,0-1.35,1.14-4.31,3.46-8.25,3.46-11.69h0c1.38-1.42,1.43-2.77,2-4,0,0,.19,0,.19,0s.19-.28.25-.4a10.84,10.84,0,0,1,10-6.51,11.31,11.31,0,0,1,5.21,1.32,10.72,10.72,0,0,1,5.46,11.5,67.26,67.26,0,0,0-1.13,17.51C860.82,410.35,882.82,445.62,882.82,445.62Z"/><path class="cls-3" d="M753,310.29l-45.45,1.38-28.92-45.45S666.92,284.12,587,260q-4-1.2-7.49-2.56c-68.26-26.27-9-93.85-9-93.85,48-40.7,86.4-14.24,105,5a104,104,0,0,1,12.11,14.94S713.75,229,747.5,237.29,753,310.29,753,310.29Z"/><path class="cls-4" d="M860.07,359.36a67.26,67.26,0,0,0-1.13,17.51,60.4,60.4,0,0,0-3.24-10.26c-1.2-2.81-1.64-5.85-5.23-5.23-2.31.39-4,2.75-5,4.66-2.23,4.24-2.27,9.44-2.75,14.08a55.45,55.45,0,0,0,1,18.88,3.63,3.63,0,0,1-5.36,4c-2.26-1.34-4.83-2.85-7.55-4.42-2.43-1.41.3-15.32.61-17.34a160.19,160.19,0,0,1,5-21.37c1.31-4.33,3.44-8.65,7.15-11.24C851.18,343.31,862,350,860.07,359.36Z"/><path class="cls-5" d="M653.78,229c-13.38,15.25-35.2,27.14-56.53,29.2a49.44,49.44,0,0,1-32.19-8.08c-35.56-23.81-10.57-65.08.71-80.48A50.87,50.87,0,0,1,576.27,159a93.74,93.74,0,0,1,18.55-11c49.72-21.8,94.91,39.42,59.42,80.5Z"/><path class="cls-2" d="M765.4,494.17,675.53,601.26,516.45,532.39l-32-86.43,32.71-58.88s30.81-9.9,32.37-18.25c0,0-9.08-20.08,10.21-34.38s7.35-83,7.35-83,3.4,1.69,9.24,3.9c15.89,6,49.89,15.72,82.7,5.05,19-6.18,29.94,2.31,37.74,12.75,10.56,14.13,15.45,31.83,27.34,21.34,29.61-26.17,40.29,22.49,12.74,48.21a21,21,0,0,0-5.41,9c-3.35,10-2.58,24.52.37,40.59C740,437.3,765.4,494.17,765.4,494.17Z"/><path class="cls-4" d="M610.76,296.23a19.17,19.17,0,0,0-3.53-10.53A62.88,62.88,0,0,0,629,289.63c13.27,0,20.91,5.1,25.59,12.86a56.39,56.39,0,0,1-10.27-5.76c-7.25-5.12-14.14,6.81-7,11.89a65.12,65.12,0,0,0,23,10.25c0,.15.05.31.08.46,4.07.86,8.13,1.75,12.19,2.64a61,61,0,0,0,16.09-2.68c2.81-.88,5.65-1.9,8.52-2.77.06-.24.12-.47.17-.71h-.1c.06-.07.09-.14.15-.21a24.89,24.89,0,0,0,.46-3.94,4.39,4.39,0,0,1,.61-2.16c-.88-3.35-3.92-6.11-8.22-4.86a53.34,53.34,0,0,1-17.38,2.1c-7.16-14,6.13-28.12,19.43-28.12,3,0,4.27-2.13,4.34-5.5-7.8-10.44-18.69-18.94-37.74-12.75-32.81,10.66-66.8.94-82.7-5.05l-6.49,1.27a83.91,83.91,0,0,0,14.7,15.72c-6.82-.22-9.15,11-1.55,13.69,5.41,1.88,15.07,4.92,13.89,12.4-1.11,7-10,10.71-15.5,13.49-7.92,4-1,15.87,7,11.89C599.17,318.29,611.3,310,610.76,296.23Z"/><path class="cls-4" d="M669.24,377.35c-.85-3-3.5-5.63-6.59-5.45-2.51.15-4.62,2.06-5.86,4.25s-1.82,4.68-2.69,7c-3,8.3-9.67,14.91-17.26,19.45s-16.13,7.2-24.66,9.49c-3.49.94-8.33,2.13-10.4,5.43a6.49,6.49,0,0,0,3.61,9.51c3.19,1.07,6.68.22,9.9-.75,21.15-6.35,41.93-18.49,51.84-38.22,1.53-3,2.81-6.43,2.3-9.81A7.71,7.71,0,0,0,669.24,377.35Z"/><path class="cls-6" d="M560.18,419.11S540.89,457.67,514.72,457c0,0-6.91,37.86,12.4,28.76,17.91-8.44,34.43-11.54,64.74,7.74s57.49,36.17,87.28,33.24S779.52,407.4,779.52,407.4L733,371.24l-15.26-8.74a11.5,11.5,0,0,0-17.23,9.65c-.6,24.78-6.25,65.74-35.69,80.7C621.47,474.89,564.31,461.12,560.18,419.11Z"/><path class="cls-7" d="M972.2,752.52c-6.14,28.58-19.13,60.22-48,71.88-1,.37-1.91.73-2.91,1.07-28.18,9.7-67.83,9.7-90.44-12.56a44.41,44.41,0,0,1-5.5-6.58c-1.38.56-2.77,1.13-4.17,1.68-32,12.6-68.51,21.8-107.65,28.25-39.79,6.56-82.28,10.26-125.41,11.82q-19.07.72-38.26.87-13.26.1-26.5.3l-11.47.18q-12.62.19-25.19.41c-1.06,0-2.11.34-3.15.39-7.31.11-14.61-.7-21.87.67h-1c-3.83,0-7.63-.18-11.45-.12l-3.29-10.55a.1.1,0,0,0,0-.07l-.43-1.38L378.21,626.38l-.18-.55-2.49-7.92-25.76-81.37L355,407.41s130.8-11,164.94-21c8-2.36-6.35,35.45-1.72,70.37,0,.07,0,.15,0,.22.1.69.19,1.38.3,2.08a85.41,85.41,0,0,0,8.62,26.68c9.21,17.59,26.24,34,56.47,45.62,43.74,16.86,71.82,9.75,95.55-4.64C696,516.5,710.71,502.6,727.26,491c13.55-9.48,28.37-17.38,46.68-20.41a99.1,99.1,0,0,1,12.12-1.25c45.74-1.91,40.63-1.45,77.66,6.1,22,4.48,38.87,9,46.14,10.43h0c1,1.38,1.82.81,2.45,1a49.59,49.59,0,0,0,6.25,7.95C968.18,570.66,992.12,659.87,972.2,752.52Z"/><path class="cls-2" d="M791.92,380.15l-4.45,11.07-7.6,18.92c-22.81-1.13-47.08-8.45-64.78-23.37-.43-.34-.85-.69-1.25-1-1.43-1.2-2.7-2.36-3.83-3.43-.58-.55-1.1-1.07-1.6-1.57a12.7,12.7,0,0,1,15.89-19.6l1,.61C754.14,379,791.92,380.15,791.92,380.15Z"/><path class="cls-4" d="M785,397.44l-3.75,9.33a5.05,5.05,0,0,1-5.08,3.15,119.64,119.64,0,0,1-38.41-9.42c-10.31-4.51-26.25-12.36-31.6-22.91a12.71,12.71,0,0,1,18.17-16.43l1,.61a9.51,9.51,0,0,1-3.76.21c-3.11-.43-4.69,1.26-5.08,3.43a5,5,0,0,0,4,5.53,13,13,0,0,1,3.81,1.59c19.33,11.89,43,16.38,56.61,18A5,5,0,0,1,785,397.44Z"/><path class="cls-8" d="M657.32,687.54a172.37,172.37,0,0,1-6.27,46c-9.38,33.81-28.35,72.45-63,114.5q-19.07.72-38.26.87-13.26.1-26.5.3l-11.47.18q-12.62.19-25.19.41c-1.06,0-2.11.34-3.15.39-7.31.11-14.61-.7-21.87.67h-1a17,17,0,0,1-14.74-10.67.1.1,0,0,0,0-.07c-.15-.4-.3-.8-.43-1.21L378.21,626.47c-.07-.21-.12-.41-.18-.63A16.85,16.85,0,0,1,381,611l116.3-147.63A16.72,16.72,0,0,1,510.43,457a55.76,55.76,0,0,0,7.74-.23c0,.07,0,.15,0,.22.1.69.19,1.38.3,2.08a85.41,85.41,0,0,0,8.62,26.68h0a21.2,21.2,0,0,0-10.76,28c7.85,17.34,21.95,37.06,30.84,46a16.69,16.69,0,0,0,23.22.37,23.18,23.18,0,0,1,31.79.06A175.65,175.65,0,0,1,657.32,687.54Z"/><path class="cls-8" d="M814.59,724.18c-.51,8.84-13.74,8.49-13.71-.37,0-4.11.21-8.17.29-11.91a312,312,0,0,0-7.4-74.39c-5.23-23.54-12.8-47.64-24.17-69-2.63-5-5.74-9.78-10.15-13.33-5-4-10.74-4.67-16.8-6.1-6.79-1.6-13.17-5.43-13.42-13.06-.06-1.91,2.92-1.91,3,0,0,.32.06.59.08.88a52.84,52.84,0,0,1,18-15.55,6.87,6.87,0,0,1,8.52,1.82,307.83,307.83,0,0,1,33.7,51.92,269.54,269.54,0,0,1,13.15,29.61C822,648.79,816.94,683.33,814.59,724.18Z"/><path class="cls-2" d="M805.35,510.7a29.26,29.26,0,0,1-9.08,12.3c-5.68,4.7-13.06,8.07-20.78,10.49-28.88,9-60.7,1.12-80.68-21.61a56.38,56.38,0,0,1-11.26-18.48c-4.63-13.23-.74-30.53,10.39-39.47,7.71-6.19,17.73-8.34,26.32-13,3-1.61,15.86-10.76,19-8.79C739.24,432.19,816.37,481.09,805.35,510.7Z"/><path class="cls-4" d="M796.27,523c-12.69,10.5-33.9,14.38-48.38,15.8a45.05,45.05,0,0,1-28.56-6.7c-22.06-14-31.88-27.55-35.79-38.7v0c12.92-30.72,36.87-7.58,36.87-7.58Z"/><path class="cls-2" d="M911.6,485.92c-53,18.92-96,61.25-119,89.17,0,0-28.58-63-90.52-103a24.11,24.11,0,0,1-10.69-17C717.79,425,783,404.24,791.92,380.15l.81.25C813.39,387.21,869.67,411.7,911.6,485.92Z"/><path class="cls-8" d="M713.5,836.27c20.72-33.19,48.86-90.77,46.16-155.45-.4-9.77,15.72-14.25,17.18-4.59,9.92,65.87,41.44,84.33,49.86,129.22C794.73,818.06,752.65,829.82,713.5,836.27Z"/><path class="cls-2" d="M630.42,707c-11.1,40.78-31.89,71.83-56.77,106.39-.79,1.1-1.6,2.19-2.44,3.28a14.66,14.66,0,0,1-5.87,2.25C553,819.61,509.42,726.41,540.4,693a33.18,33.18,0,0,1,10.14-7.4s20.43-33.29,16.87-72c-1.06-11.54-.21-19.75,1.69-25.59,0,0,0,0,0,0,1.53-4.66,3.62-9,7.93-11.56,11.06-6.5,23.69,2.52,31.35,10.29a54.84,54.84,0,0,1,3.88,4.36C636.3,621.36,640,671.78,630.42,707Z"/><polygon class="cls-9" points="540.8 688.38 292.71 688.38 292.71 650.16 540.8 650.16 547.09 672.54 540.8 688.38"/><rect class="cls-9" x="155.43" y="650.16" width="159.69" height="38.22"/><path class="cls-10" d="M149.72,656.38H408.67c5.79,0,5.8-9,0-9H149.72c-5.79,0-5.8,9,0,9Z"/><path class="cls-10" d="M151.1,699.08H410c5.79,0,5.8-9,0-9H151.1c-5.79,0-5.8,9,0,9Z"/><path class="cls-10" d="M307.78,699.08H512c3.46,0,6.93.05,10.39,0,11.63-.17,23.52-5.6,28.33-16.78,5.83-13.56-2.06-28.52-15.55-33.09-5.17-1.75-10.58-1.83-16-1.83H412.65c-33.81,0-67.69-.62-101.5,0-.58,0-1.16,0-1.73,0-5.79,0-5.8,9,0,9h199c9.91,0,24.59-2.05,31.59,6.25a16,16,0,0,1,.43,19.58c-4.18,5.39-11,7.73-17.63,7.87-2.52.05-5,0-7.56,0H405.35c-31.93,0-63.92-.59-95.84,0-.57,0-1.15,0-1.72,0-5.79,0-5.8,9,0,9Z"/><path class="cls-4" d="M611.58,689.65c-2.11,5.05-8.1,5.55-11.46,3.21a7,7,0,0,1-3.75-1.17l-56-3.94a31.44,31.44,0,0,1,9.53-7.07s19.21-31.82,15.87-68.77a79.09,79.09,0,0,1,.09-17.56c.68-5.1,1.5-9.09,5-13.06,2.66-3.05,6.35-5.85,10.33-6.54a3.9,3.9,0,0,0,.55,4.44A114.59,114.59,0,0,1,602,611.52a5.88,5.88,0,0,1,5.88,3.42C619.94,638,621.65,665.49,611.58,689.65Z"/><rect class="cls-11" x="272.31" y="312.36" width="172.17" height="55.09"/><path class="cls-9" d="M304,338h0c0,13.44,6.74,25,15.15,29.78a18.34,18.34,0,0,0,4.13,1.78v2H298.48v-2a18.79,18.79,0,0,1-4.08-1.78C286,363,279.2,351.46,279.2,338h0c0-10.67,4.21-20.14,10.22-26a26.57,26.57,0,0,1,2.74-2.34,22.26,22.26,0,0,0-2.82,2.69H444.48v19.28H310.31a6.31,6.31,0,0,0-6.32,6.29Z"/><path class="cls-12" d="M280.57,369.89H443.1c5.79,0,5.8-9,0-9H280.57c-5.79,0-5.8,9,0,9Z"/><path class="cls-10" d="M280.57,317.55H443.1c5.79,0,5.8-9,0-9H280.57c-5.79,0-5.8,9,0,9Z"/><path class="cls-12" d="M298.43,306.85h-1.2c.4-.15.8-.29,1.2-.4Z"/><path class="cls-12" d="M298.48,369.58v2H198.63c-10.87,0-20-12-20-26.62V332.1c0-13.94,8.61-25.25,19-25.25h99.64a21.12,21.12,0,0,0-2.08.91,21.83,21.83,0,0,0-2.69,1.69l-.32.22a26.57,26.57,0,0,0-2.74,2.34c-6,5.85-10.22,15.32-10.22,26h0c0,13.44,6.78,25,15.21,29.78A18.79,18.79,0,0,0,298.48,369.58Z"/><path class="cls-13" d="M260.85,331.18c.53-7.18,1.4-17.54,4.46-24.33H225.58c-6.81,0-12.5,11.31-12.5,25.25V345c0,14.64,6,26.62,13.17,26.62H266a48.41,48.41,0,0,1-2.35-6.79C259.72,355.54,260.13,340.93,260.85,331.18Z"/><path class="cls-14" d="M272.31,312.59c2.73-5.9-7.44-12.31-10.16-6.43-9.14,19.74-9.06,46.47-.26,66.46,2.63,6,12.57-.6,9.94-6.58A66,66,0,0,1,272.31,312.59Z"/><path class="cls-15" d="M268.32,312.59c2.73-5.9-4.18-11.32-6.91-5.44-9.14,19.74-9.29,44.34-.48,64.33,2.63,6,9.54.54,6.91-5.44A66,66,0,0,1,268.32,312.59Z"/><path class="cls-14" d="M225.31,312.59c2.73-5.9-7.44-12.31-10.16-6.43-9.14,19.74-9.06,46.47-.26,66.46,2.63,6,12.57-.6,9.94-6.58A66,66,0,0,1,225.31,312.59Z"/><path class="cls-15" d="M221.31,312.59c2.73-5.9-4.18-11.32-6.91-5.44-9.14,19.74-9.29,44.34-.48,64.33,2.63,6,9.54.54,6.91-5.44A66,66,0,0,1,221.31,312.59Z"/><path class="cls-2" d="M527.12,698s36.5-22.73,55.44-70.59,28.58,28.58,25.83,42.7-23.19,58.42-35.47,68.18-46.83-42-46.83-42Z"/><path class="cls-7" d="M546.57,839.52a76.8,76.8,0,0,1-35,9.86q-6.32.23-12.64.5-15.37.62-30.78,1.29c-38.35,1.61-76.79,3.1-115.15,2.53-14.66-.21-29.28-.73-43.88-1.65-87.9-5.59-192.32-28.13-241.33-108.52q-.74-1.22-1.45-2.44A196.71,196.71,0,0,1,43,679.84c-10-50.14-.18-103.55,34.92-143.37a198.22,198.22,0,0,1,51.86-41.27c1.82-1,24.76-10.5,24.82-11.71l-2.44,52c-1.47,31.58,3,61.79,19.3,86.91a108.12,108.12,0,0,0,19.46,22.4C219,669.45,264.18,684,313,690.68a520.92,520.92,0,0,0,132.86.45c42.7-5.51,90.91,1.38,124,33.06,11.34,10.87,15.38,28.54,15.81,47.08A76.34,76.34,0,0,1,546.57,839.52Z"/><path class="cls-8" d="M167.26,647.4c-23.15,1.47-43-4.16-45.77-23.76a41.67,41.67,0,0,0-3.78-12.26c-12.53-25.84-13.35-60.09-.11-85.82a85.25,85.25,0,0,1,32.49-34.38c10.1-5.88,29.2-17.27,41.31-13.88Z"/><rect class="cls-11" x="270.93" y="425.3" width="231.4" height="53.72"/><path class="cls-9" d="M307.58,453.43c-1.66,5.68.23,12.74,4.39,17.31,5.89,6.46,14.71,9.21,23.09,11.69-13,2.36-27,2.09-38.67-4.09-9.45-5-17.09-14.59-18.35-25.39-1.09-9.29,3.74-22.69,12.72-26.8,3.82-1.75,8.17-1.77,12.37-1.77l199.16.36q0,9.52.09,19l-175.24,0c-5.44,0-11.34.16-15.58,3.57A12,12,0,0,0,307.58,453.43Z"/><rect class="cls-11" x="263.5" y="536.03" width="236.77" height="47.68"/><path class="cls-9" d="M303.44,556.95c-.95,5.4.42,12.65,4,16.42,2.46,2.6,7.42,5.31,10.42,7.27,1.66,1.08,6.94,5.16,8.94,4.77-16.9,3.25-36.65-.26-48.24-8.57-8.3-5.95-12.1-14.13-10.81-21.93,1-5.75,5.09-17.87,14.59-20.39a35.83,35.83,0,0,1,9-.75l208.92.27.38,16.81L311.78,551C306.44,551,304,553.53,303.44,556.95Z"/><path class="cls-10" d="M275.06,587.51H498.2c5.79,0,5.8-9,0-9H275.06c-5.79,0-5.8,9,0,9Z"/><path class="cls-10" d="M275.06,542.06H498.2c5.79,0,5.8-9,0-9H275.06c-5.79,0-5.8,9,0,9Z"/><path class="cls-12" d="M299,531.61h-1.64c.55-.13,1.1-.25,1.64-.34Z"/><path class="cls-12" d="M298.48,585.23v1.23H161.73c-14.93,0-27.16-9.75-27.16-22.27v-11c0-11.91,11.53-21.83,25.76-21.83h137c-13.39,2.75-25,14.09-25,26.89h0C272.31,571.58,284.71,582.71,298.48,585.23Z"/><path class="cls-14" d="M246.2,536.52c3.76-5-10.22-10.52-14-5.5a48.22,48.22,0,0,0-.35,56.81c3.61,5.09,17.29-.51,13.66-5.63C235.35,567.84,235.65,550.68,246.2,536.52Z"/><path class="cls-4" d="M230.82,586.45H181.14c-4.81-4.23-8-12.92-8-22.88V551.19c0-8,1.94-15.7,5.41-19.83H236.5c-1.91,6.89-9.71,13.42-10.18,18.81-.81,9.39-1.25,23.54,3.11,32.44A40.24,40.24,0,0,0,230.82,586.45Z"/><path class="cls-15" d="M240.7,536.52c3.76-5-5.75-9.68-9.5-4.65-12.57,16.87-12.77,37.9-.66,55,3.61,5.09,13.12.46,9.5-4.65C229.86,567.84,230.15,550.68,240.7,536.52Z"/><path class="cls-14" d="M181.56,536.52c3.76-5-10.22-10.52-14-5.5a48.22,48.22,0,0,0-.35,56.81c3.61,5.09,17.29-.51,13.66-5.63C170.72,567.84,171,550.68,181.56,536.52Z"/><path class="cls-15" d="M176.06,536.52c3.76-5-5.75-9.68-9.5-4.65-12.57,16.87-12.77,37.9-.66,55,3.61,5.09,13.12.46,9.5-4.65C165.22,567.84,165.51,550.68,176.06,536.52Z"/><rect class="cls-11" x="281.95" y="589.21" width="249.3" height="56.47"/><path class="cls-9" d="M542.3,626c-2.38,5.39-7.64,9.26-10.83,14.16a5.33,5.33,0,0,0-.44.83,136.42,136.42,0,0,1-17.8,1.14,3.8,3.8,0,0,0-4,3.57H486c-.44-4.13,2-8,6.65-8.06,9-.15,19.77-.23,25.8-8,2.4-3.09,3.48-14.93,3.5-18.33H317.29a11.93,11.93,0,0,0-11.93,11.93v22.51H138.71V589.21H305.37v5.51H526.64a7.64,7.64,0,0,1-.43-1.72c4.81-1.34,11.54-3.35,13.4,1.54,1.46,3.83,1.36,9.41,2.22,13.5C543,613.73,544.78,620.41,542.3,626Z"/><path class="cls-10" d="M131.82,595.78H403.16c5.79,0,5.8-9,0-9H131.82c-5.79,0-5.8,9,0,9Z"/><path class="cls-10" d="M134.57,649.49h270c5.79,0,5.8-9,0-9h-270c-5.79,0-5.8,9,0,9Z"/><path class="cls-10" d="M296.41,649.49l91.48-.23,123.77-.31c3.38,0,6.76,0,10.13,0,13.3-.28,25.1-8.23,29.52-21,4.81-13.84-.8-31.44-14.5-37.74-5.72-2.63-11.82-3-18-3.06l-111.57-.54c-36-.18-72-1-108-.53-.62,0-1.24,0-1.85,0-5.79,0-5.8,9,0,9l87,.42,123.75.6c11.33.06,26.37-1.94,32.83,9.68,8.28,14.91-1.76,33.74-18.95,34.12-2.36.05-4.73,0-7.09,0l-114.72.29c-34,.09-68.1-.41-102.12.26h-1.74c-5.79,0-5.8,9,0,9Z"/><path class="cls-12" d="M282,482.83H501c5.79,0,5.8-9,0-9H282c-5.79,0-5.8,9,0,9Z"/><path class="cls-10" d="M282,431.87H501c5.79,0,5.8-9,0-9H282c-5.79,0-5.8,9,0,9Z"/><path class="cls-10" d="M283.33,431.87H458.25c5.79,0,5.8-9,0-9H283.33c-5.79,0-5.8,9,0,9Z"/><path class="cls-12" d="M305.37,482.52v2H170.84a26.71,26.71,0,0,1-26.63-26.63V445a25.25,25.25,0,0,1,25.25-25.25H303.75C290.64,423.38,279.2,436,279.2,451h0C279.2,466.56,291.59,479.57,305.37,482.52Z"/><path class="cls-16" d="M258.12,444.12c.82-7.18,2.14-17.54,6.85-24.33H204c-10.45,0-19.17,11.31-19.17,25.25v12.86c0,14.64,9.24,26.62,20.2,26.62H266a38.69,38.69,0,0,1-3.61-6.79C256.39,468.49,257,453.87,258.12,444.12Z"/><path class="cls-14" d="M270.16,425.53c3.68-5.9-10-12.31-13.69-6.43-12.32,19.74-12.22,46.47-.34,66.46,3.54,6,16.95-.6,13.39-6.58A50.66,50.66,0,0,1,270.16,425.53Z"/><path class="cls-15" d="M264.77,425.53c3.68-5.9-5.64-11.32-9.31-5.44a61.56,61.56,0,0,0-.64,64.33c3.54,6,12.86.54,9.31-5.44A50.66,50.66,0,0,1,264.77,425.53Z"/><path class="cls-14" d="M198.54,425.53c3.68-5.9-10-12.31-13.69-6.43-12.32,19.74-12.22,46.47-.34,66.46,3.54,6,16.95-.6,13.39-6.58A50.66,50.66,0,0,1,198.54,425.53Z"/><path class="cls-15" d="M193.15,425.53c3.68-5.9-5.64-11.32-9.31-5.44a61.56,61.56,0,0,0-.64,64.33c3.54,6,12.86.54,9.31-5.44A50.66,50.66,0,0,1,193.15,425.53Z"/><rect class="cls-11" x="270.59" y="483.5" width="209.7" height="38.22"/><path class="cls-9" d="M480.58,492.83a6.75,6.75,0,0,0-4.81-4.81,242.2,242.2,0,0,0-81.31-.69,6.33,6.33,0,0,0-3,1.23,381.48,381.48,0,0,0-102.67-3.94v-1.47h-135v38.57h135V510.1a11.34,11.34,0,0,1,11.63-11.32c20.79.48,41.59-.06,62.38.14,23.3.22,46.59-.48,69.89-.35,7.22,0,28.63-3.14,34.33,1.23,7.46,5.71-3.07,14.35-8.39,16.06a78.31,78.31,0,0,1-28.31,3.21c-8.86-.48-8.83,13.3,0,13.77,13.35.72,29.48-.55,41.24-7.6C483.76,518,483.71,505.14,480.58,492.83Z"/><path class="cls-10" d="M149.72,489.72h219c5.79,0,5.8-9,0-9h-219c-5.79,0-5.8,9,0,9Z"/><path class="cls-10" d="M151.1,532.42h219c5.79,0,5.8-9,0-9h-219c-5.79,0-5.8,9,0,9Z"/><path class="cls-10" d="M283.33,532.42H457.15c2.61,0,5.22.06,7.83,0,11-.27,20.87-6.85,24.57-17.39,3.95-11.25-.28-25.77-11.26-31.34-4.85-2.46-10.11-3-15.45-3H373.42c-29,0-58.1-.6-87.12,0-.53,0-1.07,0-1.6,0-5.79,0-5.8,9,0,9H453.47c8.7,0,20.74-1.75,26,6.88,7,11.57-.95,26.37-14.32,26.81-2,.06-3.94,0-5.9,0H366.74c-27.31,0-54.73-.75-82,0-.46,0-.92,0-1.39,0-5.79,0-5.8,9,0,9Z"/><path class="cls-8" d="M499,849.87c-133.66,5.39-348,30-431.14-106.35q-.74-1.22-1.45-2.44c3.6-7.51,13.15-12,21.9-6.76,43,25.85,114.29,49.41,231.49,49.41.61,0,49.73-.11,89.51-31.77,25.21-20.07,78.22-13.35,88.18,21C499.13,778.74,491.75,850.16,499,849.87Z"/><rect class="cls-11" x="270.59" y="373.31" width="209.7" height="38.22"/><path class="cls-9" d="M483.06,409.05c-7.56,14-25,14.94-39.06,14.37-8.84-.36-8.88-13.58,0-13.75,6.8-.14,15.91-.52,17.56-8.73,1.46-7.33-5.08-11.49-11.62-10.88-1.52.14-2.77-.56-3.76-.56H310.88a22,22,0,0,0-22,22h-135V373h135v4.13H447.51c.73,0,1.53-.55,2.42-.63,2.73-.26,5.41-.74,7.93.63h5.69c1.14-1.38,2.47-.72,3.93-.4C481.79,379.81,490.23,395.73,483.06,409.05Z"/><path class="cls-10" d="M149.72,379.53h219c5.79,0,5.8-9,0-9h-219c-5.79,0-5.8,9,0,9Z"/><path class="cls-10" d="M151.1,422.23h219c5.79,0,5.8-9,0-9h-219c-5.79,0-5.8,9,0,9Z"/><path class="cls-10" d="M283.33,422.23H457.15c2.61,0,5.22.06,7.83,0,11-.27,20.87-6.85,24.57-17.39,3.95-11.25-.28-25.77-11.26-31.34-4.85-2.46-10.11-3-15.45-3H373.42c-29,0-58.1-.6-87.12,0-.53,0-1.07,0-1.6,0-5.79,0-5.8,9,0,9H453.47c8.7,0,20.74-1.75,26,6.88,7,11.57-.95,26.37-14.32,26.81-2,.06-3.94,0-5.9,0H366.74c-27.31,0-54.73-.75-82,0-.46,0-.92,0-1.39,0-5.79,0-5.8,9,0,9Z"/><path class="cls-4" d="M586.93,371.89c-6,1.34-18,2.43-22.31-3.47-5.15-7.11-17.11-.24-11.89,7,8.48,11.7,24.78,12.73,37.86,9.8C599.24,383.23,595.58,370,586.93,371.89Z"/><path class="cls-7" d="M68.81,689.07S46.95,585.42,74,585.42a52.15,52.15,0,0,1,19.57,3.66c15.85,6.36,23.59,19.81,28.64,32.49,7.32,18.4,21.93,26.86,45.08,25.48h0c24.28-1.38,31.33,4,31.33,4C210.74,683.08,68.81,689.07,68.81,689.07Z"/><path class="cls-17" d="M742.42,531.2l-.71,2.12c-.31.7-.69,1.4-1.07,2.08a9.6,9.6,0,0,1-3.74,3.36,10.27,10.27,0,0,1-4.93.93,16.2,16.2,0,0,1-4.53-1,17.7,17.7,0,0,1-2.09-.92l-.26-.14-.3-.18-.42-.27-.85-.54-3.4-2.17c-2.22-1.5-4.47-2.94-6.64-4.53-4.37-3.1-8.64-6.4-12.72-10a108.15,108.15,0,0,1-11.58-11.57A58.67,58.67,0,0,1,680,494.31a37.74,37.74,0,0,1-3.48-17.1,38.25,38.25,0,0,1,5-16.8,55.76,55.76,0,0,1,4.76-7.12A78.88,78.88,0,0,1,692,447a105.89,105.89,0,0,1,12.51-10.68c4.35-3.26,8.88-6.2,13.45-9,9.14-5.63,18.46-10.76,27.73-15.85s18.47-10.22,27.08-16a76.91,76.91,0,0,0,11.88-9.67,31,31,0,0,0,4.46-5.84,14.9,14.9,0,0,0,2-6.64,1.89,1.89,0,0,1,3.78,0h0a17,17,0,0,1-.48,4.45,25.27,25.27,0,0,1-1.49,4.13,35.38,35.38,0,0,1-4.73,7.07A77.25,77.25,0,0,1,776,400c-8.64,6.51-17.81,12-26.88,17.47s-18.16,10.84-26.89,16.6-17.12,11.88-24.35,18.9a58.4,58.4,0,0,0-9.27,11.47,28.34,28.34,0,0,0-1.91,27,48.06,48.06,0,0,0,3.37,6.55c1.35,2.1,2.76,4.17,4.34,6.16,6.29,8,14.09,15,22.34,21.38,2,1.63,4.16,3.17,6.25,4.74l3.18,2.28.8.57.4.29.12.08.17.1a13,13,0,0,0,1.5.76,11.74,11.74,0,0,0,3.15.89,5.92,5.92,0,0,0,2.81-.35,5.47,5.47,0,0,0,2.2-1.76c.27-.46.57-.91.83-1.4l.66-1.6.1-.25a1.87,1.87,0,0,1,3.51,1.31Z"/><path class="cls-17" d="M709.16,475c18.11,10.16,33.41,24.38,46.88,39.84a302.63,302.63,0,0,1,35.13,50.49A292.44,292.44,0,0,1,804.74,593c2,4.74,3.88,9.55,5.5,14.46,1.8,4.85,3.09,9.87,4.51,14.85a197.13,197.13,0,0,1,5,30.63,258.8,258.8,0,0,1,.53,30.9c-.34,10.26-1,20.45-1.67,30.59s-1.11,20.25-1.26,30.34-.08,20.18,1.31,29.94,4,19.26,9.18,27.14a41,41,0,0,0,4.29,5.51,25.25,25.25,0,0,0,2.54,2.43l2.67,2.34a57.88,57.88,0,0,0,12.21,7.35,71.83,71.83,0,0,0,13.7,4.56l3.58.69,1.79.34,1.82.23,3.63.45c1.22.11,2.44.16,3.66.24a108.07,108.07,0,0,0,14.7-.16A118.16,118.16,0,0,0,907,823.7c2.42-.43,4.78-1.13,7.16-1.73,1.19-.31,2.34-.72,3.51-1.07s2.35-.71,3.45-1.15c.56-.21,1.13-.4,1.68-.63l1.6-.75,3.21-1.49,3.06-1.8c.51-.31,1-.58,1.52-.91l1.44-1a60.62,60.62,0,0,0,10.64-9.52,72,72,0,0,0,4.5-5.66c1.47-1.91,2.72-4,4-6.06a105.28,105.28,0,0,0,6.59-13.12,134.44,134.44,0,0,0,5-14c1.46-4.74,2.63-9.59,3.73-14.46l2.79-14.81c1.56-9.92,2.94-19.89,3.53-29.93a319,319,0,0,0-14.65-119.16,370.42,370.42,0,0,0-23.16-55.88l-3.44-6.75-3.72-6.61-3.72-6.61c-1.22-2.21-2.63-4.32-3.94-6.48-2.69-4.26-5.24-8.7-8.1-12.76s-5.89-8.19-8.92-12.28c-6.07-8.19-12.13-16.46-17.7-25.09A236.23,236.23,0,0,1,872,427.1a173.43,173.43,0,0,1-10.67-29l-1.83-7.53c-.56-2.52-.89-5.09-1.34-7.63l-.64-3.82c-.16-1.28-.24-2.57-.37-3.85l-.68-7.71a1.89,1.89,0,0,1,3.76-.37l0,.15.79,7.49c.14,1.25.24,2.5.41,3.74l.68,3.7c.48,2.46.84,5,1.42,7.39l1.89,7.29a168.93,168.93,0,0,0,10.84,28.08,244.73,244.73,0,0,0,15.12,26.14c5.57,8.42,11.64,16.52,17.79,24.63,3.07,4.06,6.17,8.12,9.17,12.33s5.63,8.62,8.42,12.93c1.35,2.18,2.8,4.3,4.06,6.53l3.85,6.66,3.85,6.66,3.57,6.82a376.82,376.82,0,0,1,24.19,56.61A323,323,0,0,1,982.4,706.15c-.52,10.3-1.86,20.55-3.37,30.74l-2.8,15.22c-1.14,5.07-2.36,10.12-3.9,15.11A142.88,142.88,0,0,1,967,782a113.44,113.44,0,0,1-7.12,14.15c-1.42,2.25-2.79,4.53-4.42,6.66a80.17,80.17,0,0,1-5,6.29,68.91,68.91,0,0,1-12.07,10.8l-1.66,1.19c-.56.38-1.17.7-1.75,1.05l-3.53,2.06c-1.22.6-2.48,1.16-3.71,1.73l-1.86.85c-.63.26-1.26.48-1.9.72-1.27.5-2.53.87-3.79,1.27s-2.52.82-3.79,1.16c-2.56.64-5.1,1.38-7.69,1.85a116.14,116.14,0,0,1-31.46,2.28c-1.32-.1-2.64-.17-4-.29l-3.95-.52-2-.26-2-.38-3.91-.79a79.7,79.7,0,0,1-15.19-5.18,65.68,65.68,0,0,1-13.81-8.47l-3.06-2.72a31.37,31.37,0,0,1-2.95-2.88,48.64,48.64,0,0,1-5-6.56,61.11,61.11,0,0,1-6.79-14.75,92.29,92.29,0,0,1-3.35-15.55c-1.41-10.44-1.3-20.83-1.17-31.05s.78-20.5,1.49-30.69,1.47-20.3,1.92-30.4a252.28,252.28,0,0,0-.2-30.15,190.72,190.72,0,0,0-4.54-29.65c-1.33-4.82-2.52-9.69-4.22-14.41-1.52-4.77-3.28-9.49-5.21-14.14a286.91,286.91,0,0,0-13-27.29,300,300,0,0,0-33.84-50.12,217.28,217.28,0,0,0-21-21.77c-1.88-1.68-3.78-3.32-5.73-4.91l-5.95-4.63a119.76,119.76,0,0,0-12.56-8.26h0a1.88,1.88,0,0,1,1.86-3.28Z"/><path class="cls-17" d="M644.87,301.42a46.73,46.73,0,0,0,4.69,2.52c.81.4,1.64.76,2.49,1.09s1.68.67,2.53,1A76.19,76.19,0,0,0,665,308.91c3.52.76,7,1.85,10.65,2.52,1.81.39,3.66.6,5.51,1s3.74.48,5.64.82l.14,0a1.91,1.91,0,0,1,0,3.75c-2,.38-3.92.72-5.91,1s-4,.37-6,.35-4.05,0-6.08-.23c-1-.11-2-.15-3-.36s-2-.43-3-.68a51.76,51.76,0,0,1-11.29-4.93,39.32,39.32,0,0,1-5.07-3.56,27,27,0,0,1-4.43-4.54,1.89,1.89,0,0,1,2.49-2.74Z"/><path class="cls-17" d="M566.48,266.18a28,28,0,0,0,2.69,4.07,33,33,0,0,0,3.31,3.68,29,29,0,0,0,8,5.39,25.83,25.83,0,0,0,9.26,2.27l1.2.09.72,0c.28,0,.57,0,.85.07a14.63,14.63,0,0,1,3.3.79,15.18,15.18,0,0,1,9.78,16.29,15.48,15.48,0,0,1-2.41,6.48l-1,1.41-1.2,1.28c-.43.39-.89.75-1.34,1.12s-.73.55-1.1.83c-5.69,4.2-11.32,8.48-17.06,12.61q-4.27,3.15-8.62,6.17c-2.88,2.05-5.81,4-8.73,6l-2.18,1.49-1.85,1.42a12.83,12.83,0,0,0-1.75,1.54,19.33,19.33,0,0,0-1.64,1.66,28.26,28.26,0,0,0-7.08,17.16,30.17,30.17,0,0,0,1,9.53,29.52,29.52,0,0,0,4,8.81l1.45,2c.5.65,1.1,1.22,1.65,1.84,1.05,1.21,2.46,2.45,3.69,3.68l0,0a1.89,1.89,0,0,1-2.53,2.8c-1.39-1.14-2.77-2.09-4.17-3.43-.69-.64-1.43-1.24-2.07-1.94l-1.87-2.14a20.69,20.69,0,0,1-1.69-2.3,18.2,18.2,0,0,1-1.5-2.44c-.44-.85-.9-1.69-1.32-2.56l-1-2.69a34.17,34.17,0,0,1-1.93-11.37,36.21,36.21,0,0,1,2-11.48A35.55,35.55,0,0,1,551,336.14a26.22,26.22,0,0,1,2-2.21,18.53,18.53,0,0,1,2.13-2.07l2.27-1.91,2.12-1.61c2.83-2.13,5.64-4.27,8.51-6.33s5.72-4.16,8.62-6.18c5.76-4.1,11.62-8.06,17.42-12.1.34-.24.77-.52,1-.73l.72-.55q.31-.32.65-.62l.57-.69a8.09,8.09,0,0,0,1.42-3.32,8.34,8.34,0,0,0-1.9-6.95,8.7,8.7,0,0,0-3.05-2.28,8.25,8.25,0,0,0-1.82-.56l-.47-.07-.6-.08-1.44-.19a31.64,31.64,0,0,1-11-3.43A34,34,0,0,1,563,267.64a1.88,1.88,0,0,1,3.39-1.6Z"/><path class="cls-17" d="M619.55,263.62a118.94,118.94,0,0,1-27.12-1.29c-8.95-1.48-17.91-4.1-26-8.86a45.62,45.62,0,0,1-11-8.89,42.26,42.26,0,0,1-7.54-12.17,49.37,49.37,0,0,1-3.13-13.89l-.12-3.53c0-.59,0-1.18,0-1.76l.1-1.75.2-3.5c.08-1.17.29-2.3.44-3.45a79.79,79.79,0,0,1,8.44-26.45,73.73,73.73,0,0,1,42-35.31c2.2-.83,4.51-1.3,6.78-1.92,1.13-.33,2.3-.45,3.46-.68s2.31-.45,3.48-.58a77.6,77.6,0,0,1,14.07-.49,75.94,75.94,0,0,1,27.23,6.54A85.64,85.64,0,0,1,674.05,161a105.51,105.51,0,0,1,17.62,21.26l3.54,5.86,3.3,5.62,3.55,5.45c1.23,1.78,2.53,3.5,3.8,5.26A94.49,94.49,0,0,0,724,222.67a88,88,0,0,0,10.91,6.83c3.81,2,7.8,3.76,11.91,5.57s8.45,3.66,12.22,7.23a17.16,17.16,0,0,1,4.2,6.48,10,10,0,0,1,.55,1.82c.14.61.32,1.22.41,1.83a35.31,35.31,0,0,1,.34,3.62,57.7,57.7,0,0,1-1.5,13.77c-.41,2.24-1,4.4-1.55,6.6s-1.21,4.33-1.82,6.49A1.89,1.89,0,0,1,756,282l0-.07c.51-2.14,1.07-4.28,1.55-6.42s1-4.29,1.27-6.44a53.51,53.51,0,0,0,1-12.73c-.23-4.15-1.56-7.78-4.31-10.29s-6.78-4.23-10.83-5.91-8.3-3.38-12.39-5.43a94,94,0,0,1-11.87-7,101,101,0,0,1-19.89-19c-1.38-1.82-2.8-3.61-4.15-5.45l-3.87-5.63-7.06-11.28a97.77,97.77,0,0,0-16.67-19.39,81.85,81.85,0,0,0-21.25-13.64c-1.92-.87-3.92-1.51-5.88-2.28-2-.58-4-1.23-6.06-1.71l-3.08-.66-1.54-.33-1.56-.21-3.12-.43c-1-.14-2.09-.15-3.13-.23a68,68,0,0,0-24.83,3,65.33,65.33,0,0,0-22.05,11.83,66.45,66.45,0,0,0-16.11,19.25,74.84,74.84,0,0,0-8.1,24c-.15,1-.38,2.1-.48,3.15l-.25,3.15-.13,1.58c0,.52,0,1,0,1.57l0,3.14a43.12,43.12,0,0,0,2.42,12.1,36.28,36.28,0,0,0,6.19,10.54,40,40,0,0,0,9.49,8,70.64,70.64,0,0,0,24,9,115.06,115.06,0,0,0,26,2.1h.09a1.88,1.88,0,0,1,.19,3.76Z"/><path class="cls-17" d="M437.42,309.59l-109.15.68-13.64.08c-4.55.07-9.15-.11-13.24.45a21,21,0,0,0-5.74,1.57,16.55,16.55,0,0,0-4.72,3.3A23.86,23.86,0,0,0,285,326.07a28.37,28.37,0,0,0-1.06,6.15,56.72,56.72,0,0,0-.28,6.44,32,32,0,0,0,2.43,12.08,20.12,20.12,0,0,0,7.47,8.91A30.09,30.09,0,0,0,305,363.93l3.15.42c1.05.13,2.14.13,3.2.21s2.18.1,3.32.12l3.41.06,13.62.24q13.62.2,27.25.26c18.17.08,36.34,0,54.53-.17l27.29-.17,6.82,0h1.71l1.83.05a34.12,34.12,0,0,1,3.68.23,38.56,38.56,0,0,1,14.54,4.23,28.83,28.83,0,0,1,6.35,4.7,30.15,30.15,0,0,1,2.67,3,30.8,30.8,0,0,1,2.16,3.37,27.65,27.65,0,0,1,2.84,7.38,29.61,29.61,0,0,1,.84,7.82,21.53,21.53,0,0,1-1.77,8.22,17.68,17.68,0,0,1-5.54,6.85,22.53,22.53,0,0,1-7.5,3.58,52.81,52.81,0,0,1-7.31,1.33,226,226,0,0,1-27.79,1.18L407,416.44l-54.62-.85-27.31-.46-6.83-.12c-2.27,0-4.59-.09-6.69-.06a45,45,0,0,0-12.48,1.49,21.71,21.71,0,0,0-10.1,5.64,22.85,22.85,0,0,0-5.49,10.26A53.43,53.43,0,0,0,281.95,445a29.6,29.6,0,0,0,.08,3.13c0,.51,0,1,.08,1.52l.26,1.49.25,1.49c.11.49.29,1,.42,1.44l.43,1.44a13,13,0,0,0,.58,1.38c3.12,7.41,10,13,17.87,16A57.12,57.12,0,0,0,314.37,476a104.25,104.25,0,0,0,13.22.62l54.57.34,109.15.85a1.89,1.89,0,0,1,0,3.78l-109.15.85-54.57.34a110.22,110.22,0,0,1-14-.5,63.5,63.5,0,0,1-14-3.37,42.58,42.58,0,0,1-12.72-7.34,33.37,33.37,0,0,1-9.08-12,18.33,18.33,0,0,1-.75-1.75l-.58-1.82c-.18-.61-.4-1.21-.55-1.83l-.35-1.87-.34-1.87c-.07-.63-.09-1.25-.14-1.88a36.84,36.84,0,0,1-.13-3.69,60.25,60.25,0,0,1,1.6-14.38A30.05,30.05,0,0,1,283.7,417a29.07,29.07,0,0,1,13.3-7.71,52.35,52.35,0,0,1,14.49-1.9c2.45-.05,4.67,0,6.95,0l6.81.05,27.26.21,54.52.47,27.29.28a220.32,220.32,0,0,0,26.7-1,45.81,45.81,0,0,0,6.11-1.07,14.29,14.29,0,0,0,4.76-2.21,9.32,9.32,0,0,0,3-3.62,13.34,13.34,0,0,0,1.05-5,22,22,0,0,0-.59-5.71,19.46,19.46,0,0,0-2-5.32,22.78,22.78,0,0,0-1.49-2.39,22.06,22.06,0,0,0-1.87-2.1,20.73,20.73,0,0,0-4.55-3.42A30.63,30.63,0,0,0,454,373.08a27.17,27.17,0,0,0-3.12-.22l-1.57-.06h-1.7l-6.82,0-27.28,0c-18.19,0-36.4,0-54.61-.25q-13.66-.17-27.32-.47l-13.66-.35-3.41-.1c-1.13,0-2.27-.06-3.49-.16s-2.4-.13-3.6-.28l-3.61-.53a36.69,36.69,0,0,1-13.89-5.47,26.69,26.69,0,0,1-9.68-11.81,38.31,38.31,0,0,1-2.81-14.53,62.94,62.94,0,0,1,.39-7.18,34.43,34.43,0,0,1,1.35-7.25,29.85,29.85,0,0,1,7.63-13,22.46,22.46,0,0,1,6.47-4.39,26.82,26.82,0,0,1,7.39-2,58,58,0,0,1,7.17-.37l6.85,0,13.64.08,109.15,1a1.88,1.88,0,0,1,0,3.76Z"/><path class="cls-17" d="M129.17,630.74a32.78,32.78,0,0,0,10.58,8.32,59.88,59.88,0,0,0,13,4.77c9.07,2.3,18.54,3.17,28,3.61s19,.25,28.59.1l28.73-.22c38.25-.42,76.56-1.71,114.93-1.65l57.44-.25,28.75-.08c9.63.06,19.21.34,28.75.46s19,.08,28.49-.42,18.93-.93,27.83-2.93a48.07,48.07,0,0,0,12.4-4.46,20.7,20.7,0,0,0,8.55-8.17,27.9,27.9,0,0,0,2.9-12,51.88,51.88,0,0,0-.17-6.62,26.72,26.72,0,0,0-1.19-6.08,15.56,15.56,0,0,0-1.14-2.6,11.91,11.91,0,0,0-.73-1.16l-.88-1.17a20.55,20.55,0,0,0-4.45-3.94,34,34,0,0,0-11.85-4.63c-8.74-1.83-18.16-1.76-27.6-1.44-4.74.16-9.51.44-14.44.53s-9.62,0-14.44-.08l-28.72-.26-114.9-1.12-14.36-.15L306,589c-2.4,0-4.8-.07-7.09,0-4.68.09-9.53.39-14.5.26s-10.14-.63-15.2-2.71a19.31,19.31,0,0,1-3.71-2,18.46,18.46,0,0,1-3.21-2.85,22.94,22.94,0,0,1-4.18-7.1,36.61,36.61,0,0,1-1.91-15.41,42.21,42.21,0,0,1,3.82-14.85,26.32,26.32,0,0,1,4.42-6.67,22.1,22.1,0,0,1,6.6-4.81c4.89-2.31,10.06-3,15-3.25s9.72-.07,14.51-.07l28.73.21,57.45.5a1.89,1.89,0,0,1,0,3.78l-57.45.47-28.72.19c-4.79.06-9.62,0-14.21.24s-9.11,1-12.89,2.87a16.56,16.56,0,0,0-4.91,3.65,20.8,20.8,0,0,0-3.4,5.31A36.56,36.56,0,0,0,262,559.52a30.82,30.82,0,0,0,1.7,12.87,16.94,16.94,0,0,0,3.1,5.18,12.36,12.36,0,0,0,2.17,1.88,13.2,13.2,0,0,0,2.6,1.36c3.84,1.54,8.37,2,13,2.07s9.32-.28,14.22-.43c2.5-.07,4.88,0,7.27-.06h7.18l14.36,0H485.52c4.64-.07,9.44-.35,14.26-.52,9.66-.31,19.57-.47,29.63,1.62a42.13,42.13,0,0,1,14.71,5.84,28.82,28.82,0,0,1,6.24,5.57l1.28,1.69a20.47,20.47,0,0,1,1.18,1.88,23.87,23.87,0,0,1,1.74,4,34.87,34.87,0,0,1,1.59,8,59.81,59.81,0,0,1,.2,7.73,36,36,0,0,1-3.88,15.62,28.72,28.72,0,0,1-11.9,11.41A56,56,0,0,1,526,650.33c-9.84,2.13-19.69,2.54-29.25,2.9s-19.36.42-29,.22-19.17-.54-28.69-.67l-28.7-.13L353,652.42c-38.23-.48-76.51.39-114.86.39-9.57,0-19.22-.15-28.72-.19s-19.2,0-28.85-.55-19.34-1.62-28.82-4.18a63.9,63.9,0,0,1-13.81-5.31,36.62,36.62,0,0,1-11.68-9.51,1.88,1.88,0,0,1,2.93-2.36Z"/><path class="cls-17" d="M212.79,659c.93.62,2.09,1.25,3.12,1.86l3.31,1.74c2.24,1.11,4.52,2.16,6.8,3.19l7,2.87,7.11,2.55c2.35.9,4.78,1.57,7.19,2.32s4.81,1.5,7.24,2.18l7.33,1.87c2.45.59,4.86,1.32,7.35,1.79,4.95,1,9.86,2.14,14.83,3.05L299,684.81c5,.7,10,1.22,15,1.83,2.51.27,5,.66,7.53.82l7.56.56,7.56.56c2.52.17,5,.46,7.56.5l15.16.54c2.53.08,5.05.2,7.58.25l7.59,0,15.18-.07,3.79,0,3.79-.17,7.58-.34,15.17-.67c2.53-.07,5.05-.33,7.57-.53l7.57-.62,15.14-1.18c20.33-2,41.38-2.48,61.94,1.58a132,132,0,0,1,15.23,4A105.62,105.62,0,0,1,542.14,698a79.58,79.58,0,0,1,24.77,19.84,80.77,80.77,0,0,1,14.73,27.94,114.66,114.66,0,0,1,4.69,30.87A163.21,163.21,0,0,1,584,807.48a185.59,185.59,0,0,1-7.57,29.94,1.89,1.89,0,0,1-3.59-1.18l0-.08a181.67,181.67,0,0,0,6.44-29.4,166.36,166.36,0,0,0,1.55-30,108.85,108.85,0,0,0-5.08-29.19,71.18,71.18,0,0,0-37-43,98.11,98.11,0,0,0-13.6-5.44,124.29,124.29,0,0,0-14.34-3.51,177.46,177.46,0,0,0-29.65-2.53c-2.49-.06-5,0-7.49.08s-5,.18-7.5.32-5,.3-7.5.49l-7.58.56c-10.2.71-20.39,1.57-30.6,2.07l-15.33.47-7.67.23-3.83.12-3.84,0-15.35-.14-7.67-.07c-2.56-.08-5.11-.24-7.67-.36l-15.33-.76c-5.11-.27-10.2-.89-15.3-1.34l-7.64-.73c-2.55-.22-5.08-.67-7.62-1-5.07-.73-10.15-1.36-15.21-2.18l-15.12-2.79c-5-1-10-2.28-15-3.41-2.51-.52-5-1.34-7.43-2l-7.4-2.11c-2.45-.76-4.87-1.62-7.31-2.43s-4.88-1.59-7.26-2.58l-7.18-2.81-7.06-3.14A106.75,106.75,0,0,1,210.62,662a1.88,1.88,0,0,1,2.11-3.12Z"/><path class="cls-17" d="M490.44,713.77a153.17,153.17,0,0,0,25.5-12.24,157.08,157.08,0,0,0,23-16.4,127.43,127.43,0,0,0,33.76-44.05c2-4.2,3.61-8.54,5.16-12.91.8-2.24,1.61-4.76,2.71-7.1a32.08,32.08,0,0,1,4.27-7.08,14.51,14.51,0,0,1,3.76-3.26,9.14,9.14,0,0,1,6-1.17,10.31,10.31,0,0,1,5,2.46,17.52,17.52,0,0,1,3,3.4c3.17,4.67,4.72,9.53,6,14.39a96.52,96.52,0,0,1,2.73,29.56,78.2,78.2,0,0,1-2.23,14.71,50.46,50.46,0,0,1-5.71,13.87,1.89,1.89,0,0,1-3.28-1.87v0a46.29,46.29,0,0,0,4.36-13,78.79,78.79,0,0,0,1.3-13.86,95.35,95.35,0,0,0-3.81-27.49,40.61,40.61,0,0,0-5.46-11.89c-1.12-1.6-2.66-2.67-3.17-2.61a1.45,1.45,0,0,0-.87.3A7.08,7.08,0,0,0,591,619a24.57,24.57,0,0,0-2.93,5.35c-.41,1-.81,2.05-1.19,3.11l-1.12,3.29a108.56,108.56,0,0,1-5.51,13.84L578.63,648l-1.78,3.27c-1.16,2.2-2.52,4.28-3.82,6.39s-2.79,4.1-4.19,6.15-2.94,4-4.56,5.86a137.65,137.65,0,0,1-21.06,20.69,155.13,155.13,0,0,1-51.73,27,1.88,1.88,0,0,1-1.18-3.57Z"/><path class="cls-17" d="M528.51,840.36A38.31,38.31,0,0,0,548.29,834a72.35,72.35,0,0,0,15.82-14.36c2.33-2.74,4.56-5.62,6.64-8.57l6.32-9.08q6.31-9.1,12.3-18.36t11.53-18.75c3.68-6.33,7.08-12.8,10.28-19.35s6-13.28,8.57-20.08,4.66-13.76,6.62-20.75a155.42,155.42,0,0,0,3.87-21.15,186.8,186.8,0,0,0,.94-21.59,145.41,145.41,0,0,0-7-42.48l-.83-2.57-1-2.5c-.68-1.65-1.27-3.36-2-5L618,604.6a21.79,21.79,0,0,0-1.27-2.36l-1.34-2.31L614,597.61c-.48-.75-1-1.46-1.52-2.19-1-1.44-2-3-3.09-4.33a56.63,56.63,0,0,0-7.32-7.55,44.82,44.82,0,0,0-8.57-5.91,20.67,20.67,0,0,0-9.35-2.59,11.35,11.35,0,0,0-8.14,3.53,22.41,22.41,0,0,0-4.83,8.71l.09-.62v0l-.09.61A54.62,54.62,0,0,0,569,600h0a1.89,1.89,0,0,1-3.77-.18A58.61,58.61,0,0,1,567,586.07l-.09.61v0L567,586a26.86,26.86,0,0,1,5.47-10.74,16.43,16.43,0,0,1,5.17-3.89,16.21,16.21,0,0,1,6.34-1.54,21.15,21.15,0,0,1,6.25.73,30.87,30.87,0,0,1,5.69,2.1,50.39,50.39,0,0,1,9.86,6.37,62.54,62.54,0,0,1,8.34,8.12c1.25,1.51,2.33,3.06,3.5,4.6.57.78,1.17,1.53,1.7,2.32l1.52,2.44,1.52,2.44a24.69,24.69,0,0,1,1.43,2.49l2.64,5.09c.85,1.71,1.54,3.49,2.31,5.23l1.13,2.63,1,2.69c5.26,14.32,7.7,29.46,8.44,44.58a170.47,170.47,0,0,1-.72,22.73,149.59,149.59,0,0,1-4.21,22.45q-3.07,10.88-7.19,21.41c-2.8,7-5.84,13.87-9.23,20.57a336.78,336.78,0,0,1-23,38.45q-6.33,9.19-12.91,18.17l-6.61,9c-2.27,3-4.66,5.95-7.2,8.77a77.08,77.08,0,0,1-17.51,14.7,42.5,42.5,0,0,1-22.2,6.2,1.88,1.88,0,0,1,0-3.76Z"/><path class="cls-17" d="M315,850a392.66,392.66,0,0,1-91.33-10.22,368.74,368.74,0,0,1-44.17-13.27,304.25,304.25,0,0,1-42-19.4,226.63,226.63,0,0,1-38.07-26.52,184.62,184.62,0,0,1-31.28-34.54L65,741.18l-1.6-2.46-1.46-2.54L59,731.09c-1-1.71-1.76-3.49-2.64-5.24s-1.8-3.48-2.53-5.29l-2.26-5.42-1.13-2.71-1-2.74c-.65-1.83-1.34-3.64-2-5.48q-3.7-11-6.33-22.43a227.75,227.75,0,0,1-3.8-23,210.85,210.85,0,0,1-1.09-23.36,192.41,192.41,0,0,1,2-23.34A158.13,158.13,0,0,1,52,567.28,144.66,144.66,0,0,1,63.69,547a149.72,149.72,0,0,1,14.69-18.28,164.5,164.5,0,0,1,36.5-29,157.72,157.72,0,0,1,20.9-10.43A165.4,165.4,0,0,1,158,482a209.62,209.62,0,0,1,22.8-4.36c7.66-1,15.33-1.69,23-2.14s15.4-.57,23-.67a17.35,17.35,0,0,0,15.56-10.74,16.83,16.83,0,0,0,1.24-4.87l.1-1.26c0-.42,0-.84,0-1.27,0-.78-.1-1.87-.16-2.84A56.24,56.24,0,0,1,244.1,442a55.31,55.31,0,0,1,8.73-21.89,1.89,1.89,0,0,1,3.16,2.07,51.27,51.27,0,0,0-7.67,20.47,51.89,51.89,0,0,0-.37,11c.07.94.18,1.75.22,2.87,0,.53.07,1.06.06,1.59l-.08,1.59a21.48,21.48,0,0,1-1.44,6.21,20.35,20.35,0,0,1-3.15,5.56,21.42,21.42,0,0,1-4.61,4.45,22.37,22.37,0,0,1-5.71,3,23.15,23.15,0,0,1-6.33,1.16c-7.69.22-15.2.46-22.78,1s-15.07,1.33-22.53,2.43A203.68,203.68,0,0,0,159.5,488a159.14,159.14,0,0,0-21.23,7.23,151.06,151.06,0,0,0-19.87,10.29,160,160,0,0,0-34.56,28.23,142.17,142.17,0,0,0-13.77,17.52,136.88,136.88,0,0,0-10.91,19.4,155.16,155.16,0,0,0-12.65,42.59,184.15,184.15,0,0,0-1.81,22.25,204.4,204.4,0,0,0,1,22.35A219.61,219.61,0,0,0,49.25,680c1.64,7.3,3.59,14.54,5.91,21.66.58,1.78,1.23,3.54,1.84,5.31l.93,2.65,1,2.58,2.1,5.16c.68,1.73,1.58,3.36,2.36,5s1.57,3.37,2.46,5l2.73,4.87L70,734.72l1.5,2.35,3,4.7a177.16,177.16,0,0,0,29.71,33.4,225.65,225.65,0,0,0,36.67,26.1,297.83,297.83,0,0,0,40.8,19.54A362.92,362.92,0,0,0,225,834.47a389.85,389.85,0,0,0,90,11.8h0a1.88,1.88,0,0,1,0,3.76Z"/><path class="cls-17" d="M182.11,537.59a76.66,76.66,0,0,0-3.52,15.16,51.4,51.4,0,0,0-.44,7.59,30.1,30.1,0,0,0,.9,7.19,19.11,19.11,0,0,0,2.86,6.07,16.88,16.88,0,0,0,4.78,4.41,16.16,16.16,0,0,0,6,2.2,22.59,22.59,0,0,0,6.66,0,30.54,30.54,0,0,0,6.56-1.94,27.09,27.09,0,0,0,5.84-3.54,19.37,19.37,0,0,0,4.39-5,14.84,14.84,0,0,0,2-6.17c.28-2.35.23-5,.34-7.8a33.4,33.4,0,0,1,.41-4.36,40,40,0,0,1,1-4.23,47.41,47.41,0,0,1,7.4-15.1,1.89,1.89,0,0,1,3.18,2h0a48.44,48.44,0,0,0-5.17,14.35,34.63,34.63,0,0,0-.51,3.66c-.08,1.17-.07,2.39,0,3.66.08,2.55.36,5.28.25,8.28a21.78,21.78,0,0,1-2.28,9.2,26.24,26.24,0,0,1-5.7,7.44,30.56,30.56,0,0,1-16.46,7.73,27.61,27.61,0,0,1-9.35-.26A23.78,23.78,0,0,1,172.47,569a36.31,36.31,0,0,1-.44-8.8,57.22,57.22,0,0,1,1.15-8.39,71.31,71.31,0,0,1,5.45-15.67,1.89,1.89,0,0,1,3.49,1.42Z"/><path class="cls-17" d="M662.44,376.5a60.63,60.63,0,0,1-9.68,16.27A83,83,0,0,1,639.26,406c-1.25,1-2.59,1.81-3.91,2.68-.67.42-1.33.85-2,1.26l-2.1,1.1L627,413.19,622.68,415l-2.17.9c-.73.28-1.48.51-2.22.76-1.48.51-3,1-4.45,1.43-3,.88-6.05,1.47-9.06,2.12a1.89,1.89,0,0,1-1.22-3.55l.16-.08c2.72-1.3,5.48-2.4,8.14-3.69,1.32-.68,2.63-1.37,4-2,.66-.33,1.33-.63,2-1l1.9-1.11,3.8-2.2,3.65-2.42L629,403c.58-.44,1.17-.86,1.76-1.28,1.17-.85,2.41-1.61,3.57-2.47a104,104,0,0,0,13.45-11A83.41,83.41,0,0,0,659,374.94l.1-.15a1.88,1.88,0,0,1,3.32,1.71Z"/><path class="cls-17" d="M562.05,402.08a68.33,68.33,0,0,0,4.21,25.82,45.45,45.45,0,0,0,6.15,11.21,36.67,36.67,0,0,0,9.17,8.47,39.7,39.7,0,0,0,11.46,5A97.18,97.18,0,0,0,606,454.7a124.73,124.73,0,0,0,26.37-.07q6.54-.79,13-2.17a112,112,0,0,0,12.6-3.62,93.24,93.24,0,0,0,23.18-12.15,97.34,97.34,0,0,0,19-18.28,123.31,123.31,0,0,0,14-22.77h0a1.89,1.89,0,0,1,3.47,1.5,117.24,117.24,0,0,1-13,24.6,97.86,97.86,0,0,1-19.31,20.44,99.58,99.58,0,0,1-52,20.76,120.5,120.5,0,0,1-28.17-.64,103.37,103.37,0,0,1-14-2.78,44.39,44.39,0,0,1-13.28-6.35,43.12,43.12,0,0,1-10.34-10.46,51.26,51.26,0,0,1-6.38-13,66.67,66.67,0,0,1-2.81-13.91,68,68,0,0,1,0-14.12,1.88,1.88,0,0,1,3.75.25Z"/><path class="cls-17" d="M946.19,477.08a244,244,0,0,0-52.76,18.56,272,272,0,0,0-24.37,13.61c-7.84,5-15.37,10.49-22.73,16.18-3.6,2.95-7.25,5.82-10.78,8.87l-2.66,2.26-2.61,2.32c-1.74,1.54-3.52,3.05-5.2,4.67-6.86,6.31-13.42,13-19.68,19.89s-12.17,14.2-17.83,21.65c-2.83,3.73-5.52,7.56-8.17,11.42s-5.21,7.83-7.49,11.81l0,.06a1.89,1.89,0,0,1-3.33-1.77A213.79,213.79,0,0,1,783,581.87a282,282,0,0,1,17.15-22.94,278.31,278.31,0,0,1,19.39-21.15c1.67-1.72,3.44-3.33,5.18-5s3.52-3.26,5.34-4.82,3.59-3.18,5.47-4.67l5.63-4.48a247.74,247.74,0,0,1,49.38-29.32c2.2-.95,4.43-1.83,6.64-2.74l3.32-1.36,3.38-1.22,6.76-2.42q3.41-1.13,6.85-2.15a217.87,217.87,0,0,1,27.94-6.24h0a1.88,1.88,0,0,1,.7,3.7Z"/><path class="cls-17" d="M175.55,367.64c5.85-.36,11.69-.59,17.54-.86l17.54-.63,17.54-.48,8.77-.19,1.1,0,.53,0,.38,0a6.74,6.74,0,0,0,1.49-.24c.24-.06.49-.1.73-.17l.71-.28a8.94,8.94,0,0,0,1.4-.69,15.55,15.55,0,0,0,4.8-4.74,24.77,24.77,0,0,0,3.06-6.71,26.68,26.68,0,0,0,1-7.59v-1l0-1.13c0-.75,0-1.51,0-2.27,0-1.51,0-3,0-4.54A74.62,74.62,0,0,1,254.68,318a44.27,44.27,0,0,1,8.26-16.4A1.89,1.89,0,0,1,266,303.8l0,0a43.64,43.64,0,0,0-5.89,15.44A76.83,76.83,0,0,0,259,336c.07,1.41.13,2.82.25,4.23,0,.7.12,1.41.19,2.11l.1,1.06.08,1.21a34.37,34.37,0,0,1-.7,9.81,28.75,28.75,0,0,1-3.8,9.35c-.45.74-1,1.42-1.51,2.13s-1.16,1.33-1.75,2-1.34,1.21-2,1.78a25.67,25.67,0,0,1-2.31,1.52,17.13,17.13,0,0,1-2.55,1.2l-1.34.48c-.46.14-.93.22-1.4.33a13.82,13.82,0,0,1-2.85.33l-.72,0H238l-1.1,0-8.77-.19-17.54-.48-17.54-.63c-5.85-.28-11.69-.51-17.54-.86a1.89,1.89,0,0,1,0-3.76Z"/></svg>