<svg width="488" height="422" viewBox="0 0 488 422" fill="none" xmlns="http://www.w3.org/2000/svg">
<path d="M8.70709 0.292893C8.31657 -0.0976311 7.6834 -0.0976311 7.29288 0.292893L0.928917 6.65685C0.538393 7.04738 0.538393 7.68054 0.928917 8.07107C1.31944 8.46159 1.95261 8.46159 2.34313 8.07107L7.99998 2.41421L13.6568 8.07107C14.0474 8.46159 14.6805 8.46159 15.0711 8.07107C15.4616 7.68054 15.4616 7.04738 15.0711 6.65685L8.70709 0.292893ZM9 352L8.99998 1L6.99998 1L7 352L9 352Z" fill="black"/>
<path d="M438.707 352.707C439.098 352.317 439.098 351.683 438.707 351.293L432.343 344.929C431.953 344.538 431.319 344.538 430.929 344.929C430.538 345.319 430.538 345.953 430.929 346.343L436.586 352L430.929 357.657C430.538 358.047 430.538 358.681 430.929 359.071C431.319 359.462 431.953 359.462 432.343 359.071L438.707 352.707ZM8 353H438V351H8V353Z" fill="black"/>
<path d="M10 22C219.82 71.9242 87.331 289 427 347" stroke="#FF0000" stroke-width="2"/>
<path d="M12 347C236.5 188.5 187.5 -218 429 347" stroke="#4200FF" stroke-width="2"/>
<path d="M466.184 348.893H463.57V356H461.812V348.893H459.234V347.469H466.184V348.893ZM469.061 356H467.303V347.469H469.061V356ZM472.992 347.469L475.184 353.656L477.363 347.469H479.672V356H477.908V353.668L478.084 349.643L475.781 356H474.574L472.277 349.648L472.453 353.668V356H470.695V347.469H472.992ZM486.34 352.303H482.965V354.588H486.926V356H481.207V347.469H486.914V348.893H482.965V350.926H486.34V352.303Z" fill="black"/>
<rect x="8" y="385" width="48" height="9" fill="#4200FF"/>
<path d="M66.0986 390.946V395H65.2578V385.047H68.6484C69.6829 385.047 70.4987 385.311 71.0957 385.84C71.6973 386.368 71.998 387.095 71.998 388.021C71.998 388.955 71.7087 389.677 71.1299 390.188C70.5557 390.693 69.7217 390.946 68.6279 390.946H66.0986ZM66.0986 390.235H68.6484C69.4642 390.235 70.0863 390.042 70.5146 389.654C70.943 389.267 71.1572 388.727 71.1572 388.034C71.1572 387.346 70.943 386.799 70.5146 386.394C70.0908 385.983 69.487 385.774 68.7031 385.765H66.0986V390.235ZM77.1113 388.301C76.9382 388.269 76.7536 388.253 76.5576 388.253C76.0472 388.253 75.6143 388.396 75.2588 388.684C74.9079 388.966 74.6572 389.379 74.5068 389.921V395H73.6934V387.604H74.4932L74.5068 388.779C74.9398 387.904 75.6348 387.467 76.5918 387.467C76.8197 387.467 76.9997 387.496 77.1318 387.556L77.1113 388.301ZM77.8223 391.192C77.8223 390.481 77.959 389.841 78.2324 389.271C78.5104 388.702 78.9001 388.26 79.4014 387.945C79.9072 387.626 80.4792 387.467 81.1172 387.467C82.1016 387.467 82.8991 387.813 83.5098 388.506C84.1204 389.194 84.4258 390.108 84.4258 391.247V391.418C84.4258 392.133 84.2868 392.778 84.0088 393.353C83.7354 393.922 83.348 394.362 82.8467 394.672C82.3454 394.982 81.7734 395.137 81.1309 395.137C80.151 395.137 79.3535 394.793 78.7383 394.104C78.1276 393.412 77.8223 392.496 77.8223 391.356V391.192ZM78.6426 391.418C78.6426 392.302 78.8704 393.029 79.3262 393.599C79.7865 394.164 80.388 394.446 81.1309 394.446C81.8691 394.446 82.4661 394.164 82.9219 393.599C83.3822 393.029 83.6123 392.279 83.6123 391.35V391.192C83.6123 390.627 83.5075 390.11 83.2979 389.641C83.0882 389.171 82.7943 388.809 82.416 388.554C82.0378 388.294 81.6048 388.164 81.1172 388.164C80.388 388.164 79.7933 388.451 79.333 389.025C78.8727 389.595 78.6426 390.342 78.6426 391.268V391.418ZM87.0029 387.604V395.882C87.0029 396.565 86.8389 397.087 86.5107 397.447C86.1826 397.807 85.6995 397.987 85.0615 397.987C84.8154 397.987 84.5762 397.944 84.3438 397.857L84.3574 397.181C84.5579 397.24 84.763 397.27 84.9727 397.27C85.7839 397.27 86.1895 396.802 86.1895 395.868V387.604H87.0029ZM86.5996 384.91C86.7773 384.91 86.9163 384.965 87.0166 385.074C87.1169 385.179 87.167 385.309 87.167 385.464C87.167 385.619 87.1169 385.749 87.0166 385.854C86.9163 385.958 86.7773 386.011 86.5996 386.011C86.4264 386.011 86.2897 385.958 86.1895 385.854C86.0938 385.749 86.0459 385.619 86.0459 385.464C86.0459 385.309 86.0938 385.179 86.1895 385.074C86.2897 384.965 86.4264 384.91 86.5996 384.91ZM92.1846 395.137C91.5557 395.137 90.986 394.982 90.4756 394.672C89.9697 394.362 89.5755 393.931 89.293 393.38C89.0104 392.824 88.8691 392.202 88.8691 391.514V391.22C88.8691 390.509 89.0059 389.868 89.2793 389.299C89.5573 388.729 89.9424 388.283 90.4346 387.959C90.9268 387.631 91.46 387.467 92.0342 387.467C92.932 387.467 93.6429 387.774 94.167 388.39C94.6956 389 94.96 389.837 94.96 390.898V391.356H89.6826V391.514C89.6826 392.352 89.9219 393.052 90.4004 393.612C90.8835 394.168 91.4896 394.446 92.2188 394.446C92.6562 394.446 93.0413 394.367 93.374 394.207C93.7113 394.048 94.0166 393.792 94.29 393.441L94.8027 393.831C94.2012 394.701 93.3285 395.137 92.1846 395.137ZM92.0342 388.164C91.4189 388.164 90.8994 388.39 90.4756 388.841C90.0563 389.292 89.8011 389.898 89.71 390.659H94.1465V390.57C94.1237 389.859 93.9209 389.281 93.5381 388.834C93.1553 388.387 92.654 388.164 92.0342 388.164ZM99.2871 394.446C99.8568 394.446 100.333 394.287 100.716 393.968C101.103 393.644 101.313 393.227 101.345 392.717H102.131C102.108 393.168 101.967 393.58 101.707 393.954C101.447 394.323 101.101 394.613 100.668 394.822C100.24 395.032 99.7793 395.137 99.2871 395.137C98.3164 395.137 97.5462 394.799 96.9766 394.125C96.4115 393.451 96.1289 392.544 96.1289 391.404V391.158C96.1289 390.429 96.2565 389.784 96.5117 389.224C96.7669 388.663 97.1315 388.23 97.6055 387.925C98.084 387.619 98.6423 387.467 99.2803 387.467C100.091 387.467 100.759 387.708 101.283 388.191C101.812 388.674 102.094 389.31 102.131 390.099H101.345C101.308 389.52 101.099 389.053 100.716 388.697C100.338 388.342 99.859 388.164 99.2803 388.164C98.542 388.164 97.9678 388.431 97.5576 388.964C97.152 389.497 96.9492 390.244 96.9492 391.206V391.445C96.9492 392.389 97.152 393.125 97.5576 393.653C97.9678 394.182 98.5443 394.446 99.2871 394.446ZM105.043 385.71V387.604H106.574V388.273H105.043V393.202C105.043 393.612 105.116 393.918 105.262 394.118C105.412 394.319 105.66 394.419 106.007 394.419C106.144 394.419 106.365 394.396 106.67 394.351L106.704 395.021C106.49 395.098 106.198 395.137 105.829 395.137C105.269 395.137 104.861 394.975 104.605 394.651C104.35 394.323 104.223 393.842 104.223 393.209V388.273H102.862V387.604H104.223V385.71H105.043ZM114.538 395.137C113.909 395.137 113.34 394.982 112.829 394.672C112.323 394.362 111.929 393.931 111.646 393.38C111.364 392.824 111.223 392.202 111.223 391.514V391.22C111.223 390.509 111.359 389.868 111.633 389.299C111.911 388.729 112.296 388.283 112.788 387.959C113.28 387.631 113.813 387.467 114.388 387.467C115.285 387.467 115.996 387.774 116.521 388.39C117.049 389 117.313 389.837 117.313 390.898V391.356H112.036V391.514C112.036 392.352 112.275 393.052 112.754 393.612C113.237 394.168 113.843 394.446 114.572 394.446C115.01 394.446 115.395 394.367 115.728 394.207C116.065 394.048 116.37 393.792 116.644 393.441L117.156 393.831C116.555 394.701 115.682 395.137 114.538 395.137ZM114.388 388.164C113.772 388.164 113.253 388.39 112.829 388.841C112.41 389.292 112.155 389.898 112.063 390.659H116.5V390.57C116.477 389.859 116.274 389.281 115.892 388.834C115.509 388.387 115.007 388.164 114.388 388.164ZM121.23 390.604L123.227 387.604H124.197L121.688 391.233L124.307 395H123.343L121.237 391.869L119.132 395H118.168L120.779 391.233L118.271 387.604H119.234L121.23 390.604ZM128.442 395.137C127.813 395.137 127.244 394.982 126.733 394.672C126.228 394.362 125.833 393.931 125.551 393.38C125.268 392.824 125.127 392.202 125.127 391.514V391.22C125.127 390.509 125.264 389.868 125.537 389.299C125.815 388.729 126.2 388.283 126.692 387.959C127.185 387.631 127.718 387.467 128.292 387.467C129.19 387.467 129.901 387.774 130.425 388.39C130.953 389 131.218 389.837 131.218 390.898V391.356H125.94V391.514C125.94 392.352 126.18 393.052 126.658 393.612C127.141 394.168 127.747 394.446 128.477 394.446C128.914 394.446 129.299 394.367 129.632 394.207C129.969 394.048 130.274 393.792 130.548 393.441L131.061 393.831C130.459 394.701 129.586 395.137 128.442 395.137ZM128.292 388.164C127.677 388.164 127.157 388.39 126.733 388.841C126.314 389.292 126.059 389.898 125.968 390.659H130.404V390.57C130.382 389.859 130.179 389.281 129.796 388.834C129.413 388.387 128.912 388.164 128.292 388.164ZM135.545 394.446C136.115 394.446 136.591 394.287 136.974 393.968C137.361 393.644 137.571 393.227 137.603 392.717H138.389C138.366 393.168 138.225 393.58 137.965 393.954C137.705 394.323 137.359 394.613 136.926 394.822C136.497 395.032 136.037 395.137 135.545 395.137C134.574 395.137 133.804 394.799 133.234 394.125C132.669 393.451 132.387 392.544 132.387 391.404V391.158C132.387 390.429 132.514 389.784 132.77 389.224C133.025 388.663 133.389 388.23 133.863 387.925C134.342 387.619 134.9 387.467 135.538 387.467C136.349 387.467 137.017 387.708 137.541 388.191C138.07 388.674 138.352 389.31 138.389 390.099H137.603C137.566 389.52 137.356 389.053 136.974 388.697C136.595 388.342 136.117 388.164 135.538 388.164C134.8 388.164 134.226 388.431 133.815 388.964C133.41 389.497 133.207 390.244 133.207 391.206V391.445C133.207 392.389 133.41 393.125 133.815 393.653C134.226 394.182 134.802 394.446 135.545 394.446ZM144.787 394.063C144.295 394.779 143.509 395.137 142.429 395.137C141.64 395.137 141.041 394.909 140.631 394.453C140.221 393.993 140.011 393.314 140.002 392.416V387.604H140.815V392.313C140.815 393.722 141.385 394.426 142.524 394.426C143.709 394.426 144.459 393.936 144.773 392.956V387.604H145.594V395H144.801L144.787 394.063ZM148.998 385.71V387.604H150.529V388.273H148.998V393.202C148.998 393.612 149.071 393.918 149.217 394.118C149.367 394.319 149.616 394.419 149.962 394.419C150.099 394.419 150.32 394.396 150.625 394.351L150.659 395.021C150.445 395.098 150.153 395.137 149.784 395.137C149.224 395.137 148.816 394.975 148.561 394.651C148.305 394.323 148.178 393.842 148.178 393.209V388.273H146.817V387.604H148.178V385.71H148.998ZM153.141 395H152.32V387.604H153.141V395ZM152.177 385.464C152.177 385.309 152.227 385.179 152.327 385.074C152.427 384.965 152.564 384.91 152.737 384.91C152.91 384.91 153.047 384.965 153.147 385.074C153.252 385.179 153.305 385.309 153.305 385.464C153.305 385.619 153.252 385.749 153.147 385.854C153.047 385.958 152.91 386.011 152.737 386.011C152.564 386.011 152.427 385.958 152.327 385.854C152.227 385.749 152.177 385.619 152.177 385.464ZM154.918 391.192C154.918 390.481 155.055 389.841 155.328 389.271C155.606 388.702 155.996 388.26 156.497 387.945C157.003 387.626 157.575 387.467 158.213 387.467C159.197 387.467 159.995 387.813 160.605 388.506C161.216 389.194 161.521 390.108 161.521 391.247V391.418C161.521 392.133 161.382 392.778 161.104 393.353C160.831 393.922 160.444 394.362 159.942 394.672C159.441 394.982 158.869 395.137 158.227 395.137C157.247 395.137 156.449 394.793 155.834 394.104C155.223 393.412 154.918 392.496 154.918 391.356V391.192ZM155.738 391.418C155.738 392.302 155.966 393.029 156.422 393.599C156.882 394.164 157.484 394.446 158.227 394.446C158.965 394.446 159.562 394.164 160.018 393.599C160.478 393.029 160.708 392.279 160.708 391.35V391.192C160.708 390.627 160.603 390.11 160.394 389.641C160.184 389.171 159.89 388.809 159.512 388.554C159.133 388.294 158.701 388.164 158.213 388.164C157.484 388.164 156.889 388.451 156.429 389.025C155.968 389.595 155.738 390.342 155.738 391.268V391.418ZM163.996 387.604L164.023 388.868C164.301 388.412 164.648 388.066 165.062 387.829C165.477 387.588 165.935 387.467 166.437 387.467C167.229 387.467 167.82 387.69 168.207 388.137C168.594 388.583 168.79 389.253 168.795 390.146V395H167.981V390.14C167.977 389.479 167.836 388.987 167.558 388.663C167.284 388.34 166.844 388.178 166.238 388.178C165.732 388.178 165.284 388.337 164.892 388.656C164.504 388.971 164.217 389.397 164.03 389.935V395H163.217V387.604H163.996ZM177.183 395.137C176.554 395.137 175.984 394.982 175.474 394.672C174.968 394.362 174.574 393.931 174.291 393.38C174.008 392.824 173.867 392.202 173.867 391.514V391.22C173.867 390.509 174.004 389.868 174.277 389.299C174.555 388.729 174.94 388.283 175.433 387.959C175.925 387.631 176.458 387.467 177.032 387.467C177.93 387.467 178.641 387.774 179.165 388.39C179.694 389 179.958 389.837 179.958 390.898V391.356H174.681V391.514C174.681 392.352 174.92 393.052 175.398 393.612C175.882 394.168 176.488 394.446 177.217 394.446C177.654 394.446 178.039 394.367 178.372 394.207C178.709 394.048 179.015 393.792 179.288 393.441L179.801 393.831C179.199 394.701 178.326 395.137 177.183 395.137ZM177.032 388.164C176.417 388.164 175.897 388.39 175.474 388.841C175.054 389.292 174.799 389.898 174.708 390.659H179.145V390.57C179.122 389.859 178.919 389.281 178.536 388.834C178.153 388.387 177.652 388.164 177.032 388.164ZM182.139 395V388.273H180.915V387.604H182.139V386.708C182.139 385.951 182.33 385.37 182.713 384.965C183.1 384.559 183.638 384.356 184.326 384.356C184.636 384.356 184.925 384.395 185.194 384.473L185.133 385.156C184.905 385.102 184.657 385.074 184.388 385.074C183.937 385.074 183.586 385.215 183.335 385.498C183.084 385.776 182.959 386.173 182.959 386.688V387.604H184.723V388.273H182.959V395H182.139ZM186.773 395V388.273H185.55V387.604H186.773V386.708C186.773 385.951 186.965 385.37 187.348 384.965C187.735 384.559 188.273 384.356 188.961 384.356C189.271 384.356 189.56 384.395 189.829 384.473L189.768 385.156C189.54 385.102 189.291 385.074 189.022 385.074C188.571 385.074 188.22 385.215 187.97 385.498C187.719 385.776 187.594 386.173 187.594 386.688V387.604H189.357V388.273H187.594V395H186.773ZM190.369 391.192C190.369 390.481 190.506 389.841 190.779 389.271C191.057 388.702 191.447 388.26 191.948 387.945C192.454 387.626 193.026 387.467 193.664 387.467C194.648 387.467 195.446 387.813 196.057 388.506C196.667 389.194 196.973 390.108 196.973 391.247V391.418C196.973 392.133 196.834 392.778 196.556 393.353C196.282 393.922 195.895 394.362 195.394 394.672C194.892 394.982 194.32 395.137 193.678 395.137C192.698 395.137 191.9 394.793 191.285 394.104C190.674 393.412 190.369 392.496 190.369 391.356V391.192ZM191.189 391.418C191.189 392.302 191.417 393.029 191.873 393.599C192.333 394.164 192.935 394.446 193.678 394.446C194.416 394.446 195.013 394.164 195.469 393.599C195.929 393.029 196.159 392.279 196.159 391.35V391.192C196.159 390.627 196.054 390.11 195.845 389.641C195.635 389.171 195.341 388.809 194.963 388.554C194.585 388.294 194.152 388.164 193.664 388.164C192.935 388.164 192.34 388.451 191.88 389.025C191.42 389.595 191.189 390.342 191.189 391.268V391.418ZM202.086 388.301C201.913 388.269 201.728 388.253 201.532 388.253C201.022 388.253 200.589 388.396 200.233 388.684C199.882 388.966 199.632 389.379 199.481 389.921V395H198.668V387.604H199.468L199.481 388.779C199.914 387.904 200.609 387.467 201.566 387.467C201.794 387.467 201.974 387.496 202.106 387.556L202.086 388.301ZM204.998 385.71V387.604H206.529V388.273H204.998V393.202C204.998 393.612 205.071 393.918 205.217 394.118C205.367 394.319 205.616 394.419 205.962 394.419C206.099 394.419 206.32 394.396 206.625 394.351L206.659 395.021C206.445 395.098 206.153 395.137 205.784 395.137C205.224 395.137 204.816 394.975 204.561 394.651C204.305 394.323 204.178 393.842 204.178 393.209V388.273H202.817V387.604H204.178V385.71H204.998Z" fill="black"/>
<rect x="8" y="410" width="48" height="9" fill="#FF0000"/>
<path d="M69.6309 416.211H65.1123L64.0869 419H63.2051L66.9717 409.047H67.7715L71.5381 419H70.6631L69.6309 416.211ZM65.3721 415.493H69.3643L67.3682 410.072L65.3721 415.493ZM78.7705 415.377C78.7705 416.53 78.5153 417.446 78.0049 418.125C77.4945 418.799 76.8086 419.137 75.9473 419.137C74.9173 419.137 74.138 418.754 73.6094 417.988L73.5752 419H72.8096V408.5H73.623V412.677C74.1426 411.87 74.9128 411.467 75.9336 411.467C76.8086 411.467 77.499 411.802 78.0049 412.472C78.5153 413.137 78.7705 414.064 78.7705 415.254V415.377ZM77.9502 415.233C77.9502 414.258 77.7611 413.506 77.3828 412.978C77.0046 412.444 76.4714 412.178 75.7832 412.178C75.2591 412.178 74.8148 412.308 74.4502 412.567C74.0856 412.823 73.8099 413.199 73.623 413.695V417.031C74.0332 417.961 74.7578 418.426 75.7969 418.426C76.4714 418.426 76.9977 418.159 77.376 417.626C77.7588 417.093 77.9502 416.295 77.9502 415.233ZM81.498 419H80.6777V411.604H81.498V419ZM80.5342 409.464C80.5342 409.309 80.5843 409.179 80.6846 409.074C80.7848 408.965 80.9215 408.91 81.0947 408.91C81.2679 408.91 81.4046 408.965 81.5049 409.074C81.6097 409.179 81.6621 409.309 81.6621 409.464C81.6621 409.619 81.6097 409.749 81.5049 409.854C81.4046 409.958 81.2679 410.011 81.0947 410.011C80.9215 410.011 80.7848 409.958 80.6846 409.854C80.5843 409.749 80.5342 409.619 80.5342 409.464ZM84.6426 419H83.8223V408.5H84.6426V419ZM87.7871 419H86.9668V411.604H87.7871V419ZM86.8232 409.464C86.8232 409.309 86.8734 409.179 86.9736 409.074C87.0739 408.965 87.2106 408.91 87.3838 408.91C87.557 408.91 87.6937 408.965 87.7939 409.074C87.8988 409.179 87.9512 409.309 87.9512 409.464C87.9512 409.619 87.8988 409.749 87.7939 409.854C87.6937 409.958 87.557 410.011 87.3838 410.011C87.2106 410.011 87.0739 409.958 86.9736 409.854C86.8734 409.749 86.8232 409.619 86.8232 409.464ZM91.2871 409.71V411.604H92.8184V412.273H91.2871V417.202C91.2871 417.612 91.36 417.918 91.5059 418.118C91.6562 418.319 91.9046 418.419 92.251 418.419C92.3877 418.419 92.6087 418.396 92.9141 418.351L92.9482 419.021C92.734 419.098 92.4424 419.137 92.0732 419.137C91.5127 419.137 91.1048 418.975 90.8496 418.651C90.5944 418.323 90.4668 417.842 90.4668 417.209V412.273H89.1064V411.604H90.4668V409.71H91.2871ZM96.8584 417.824L99.0186 411.604H99.9004L96.7422 420.258L96.5781 420.641C96.1725 421.538 95.5459 421.987 94.6982 421.987C94.5023 421.987 94.2926 421.955 94.0693 421.892L94.0625 421.215L94.4863 421.256C94.8874 421.256 95.2109 421.156 95.457 420.955C95.7077 420.759 95.9196 420.42 96.0928 419.937L96.4551 418.938L93.666 411.604H94.5615L96.8584 417.824ZM105.848 409.71V411.604H107.379V412.273H105.848V417.202C105.848 417.612 105.921 417.918 106.066 418.118C106.217 418.319 106.465 418.419 106.812 418.419C106.948 418.419 107.169 418.396 107.475 418.351L107.509 419.021C107.295 419.098 107.003 419.137 106.634 419.137C106.073 419.137 105.665 418.975 105.41 418.651C105.155 418.323 105.027 417.842 105.027 417.209V412.273H103.667V411.604H105.027V409.71H105.848ZM108.486 415.192C108.486 414.481 108.623 413.841 108.896 413.271C109.174 412.702 109.564 412.26 110.065 411.945C110.571 411.626 111.143 411.467 111.781 411.467C112.766 411.467 113.563 411.813 114.174 412.506C114.785 413.194 115.09 414.108 115.09 415.247V415.418C115.09 416.133 114.951 416.778 114.673 417.353C114.399 417.922 114.012 418.362 113.511 418.672C113.009 418.982 112.438 419.137 111.795 419.137C110.815 419.137 110.018 418.793 109.402 418.104C108.792 417.412 108.486 416.496 108.486 415.356V415.192ZM109.307 415.418C109.307 416.302 109.535 417.029 109.99 417.599C110.451 418.164 111.052 418.446 111.795 418.446C112.533 418.446 113.13 418.164 113.586 417.599C114.046 417.029 114.276 416.279 114.276 415.35V415.192C114.276 414.627 114.172 414.11 113.962 413.641C113.752 413.171 113.458 412.809 113.08 412.554C112.702 412.294 112.269 412.164 111.781 412.164C111.052 412.164 110.457 412.451 109.997 413.025C109.537 413.595 109.307 414.342 109.307 415.268V415.418ZM121.105 419H120.285V411.604H121.105V419ZM120.142 409.464C120.142 409.309 120.192 409.179 120.292 409.074C120.392 408.965 120.529 408.91 120.702 408.91C120.875 408.91 121.012 408.965 121.112 409.074C121.217 409.179 121.27 409.309 121.27 409.464C121.27 409.619 121.217 409.749 121.112 409.854C121.012 409.958 120.875 410.011 120.702 410.011C120.529 410.011 120.392 409.958 120.292 409.854C120.192 409.749 120.142 409.619 120.142 409.464ZM124.113 411.604L124.141 412.868C124.419 412.412 124.765 412.066 125.18 411.829C125.594 411.588 126.052 411.467 126.554 411.467C127.347 411.467 127.937 411.69 128.324 412.137C128.712 412.583 128.908 413.253 128.912 414.146V419H128.099V414.14C128.094 413.479 127.953 412.987 127.675 412.663C127.401 412.34 126.962 412.178 126.355 412.178C125.85 412.178 125.401 412.337 125.009 412.656C124.621 412.971 124.334 413.397 124.147 413.935V419H123.334V411.604H124.113ZM135.591 409.279C134.916 409.143 134.356 409.074 133.909 409.074C133.44 409.074 133.077 409.215 132.822 409.498C132.567 409.776 132.439 410.173 132.439 410.688V411.604H134.203V412.273H132.439V419H131.619V412.273H130.396V411.604H131.619V410.66C131.624 409.913 131.822 409.343 132.214 408.951C132.606 408.555 133.153 408.356 133.854 408.356C134.42 408.356 135.27 408.495 136.404 408.773V419H135.591V409.279ZM143.418 418.063C142.926 418.779 142.14 419.137 141.06 419.137C140.271 419.137 139.672 418.909 139.262 418.453C138.852 417.993 138.642 417.314 138.633 416.416V411.604H139.446V416.313C139.446 417.722 140.016 418.426 141.155 418.426C142.34 418.426 143.09 417.936 143.404 416.956V411.604H144.225V419H143.432L143.418 418.063ZM149.222 419.137C148.593 419.137 148.023 418.982 147.513 418.672C147.007 418.362 146.613 417.931 146.33 417.38C146.048 416.824 145.906 416.202 145.906 415.514V415.22C145.906 414.509 146.043 413.868 146.316 413.299C146.594 412.729 146.979 412.283 147.472 411.959C147.964 411.631 148.497 411.467 149.071 411.467C149.969 411.467 150.68 411.774 151.204 412.39C151.733 413 151.997 413.837 151.997 414.898V415.356H146.72V415.514C146.72 416.352 146.959 417.052 147.438 417.612C147.921 418.168 148.527 418.446 149.256 418.446C149.693 418.446 150.078 418.367 150.411 418.207C150.748 418.048 151.054 417.792 151.327 417.441L151.84 417.831C151.238 418.701 150.366 419.137 149.222 419.137ZM149.071 412.164C148.456 412.164 147.937 412.39 147.513 412.841C147.093 413.292 146.838 413.898 146.747 414.659H151.184V414.57C151.161 413.859 150.958 413.281 150.575 412.834C150.192 412.387 149.691 412.164 149.071 412.164ZM154.369 411.604L154.396 412.868C154.674 412.412 155.021 412.066 155.436 411.829C155.85 411.588 156.308 411.467 156.81 411.467C157.603 411.467 158.193 411.69 158.58 412.137C158.967 412.583 159.163 413.253 159.168 414.146V419H158.354V414.14C158.35 413.479 158.209 412.987 157.931 412.663C157.657 412.34 157.217 412.178 156.611 412.178C156.105 412.178 155.657 412.337 155.265 412.656C154.877 412.971 154.59 413.397 154.403 413.935V419H153.59V411.604H154.369ZM164.021 418.446C164.591 418.446 165.067 418.287 165.45 417.968C165.838 417.644 166.047 417.227 166.079 416.717H166.865C166.842 417.168 166.701 417.58 166.441 417.954C166.182 418.323 165.835 418.613 165.402 418.822C164.974 419.032 164.514 419.137 164.021 419.137C163.051 419.137 162.281 418.799 161.711 418.125C161.146 417.451 160.863 416.544 160.863 415.404V415.158C160.863 414.429 160.991 413.784 161.246 413.224C161.501 412.663 161.866 412.23 162.34 411.925C162.818 411.619 163.377 411.467 164.015 411.467C164.826 411.467 165.493 411.708 166.018 412.191C166.546 412.674 166.829 413.31 166.865 414.099H166.079C166.043 413.52 165.833 413.053 165.45 412.697C165.072 412.342 164.593 412.164 164.015 412.164C163.276 412.164 162.702 412.431 162.292 412.964C161.886 413.497 161.684 414.244 161.684 415.206V415.445C161.684 416.389 161.886 417.125 162.292 417.653C162.702 418.182 163.279 418.446 164.021 418.446ZM171.37 419.137C170.741 419.137 170.172 418.982 169.661 418.672C169.155 418.362 168.761 417.931 168.479 417.38C168.196 416.824 168.055 416.202 168.055 415.514V415.22C168.055 414.509 168.191 413.868 168.465 413.299C168.743 412.729 169.128 412.283 169.62 411.959C170.112 411.631 170.646 411.467 171.22 411.467C172.118 411.467 172.828 411.774 173.353 412.39C173.881 413 174.146 413.837 174.146 414.898V415.356H168.868V415.514C168.868 416.352 169.107 417.052 169.586 417.612C170.069 418.168 170.675 418.446 171.404 418.446C171.842 418.446 172.227 418.367 172.56 418.207C172.897 418.048 173.202 417.792 173.476 417.441L173.988 417.831C173.387 418.701 172.514 419.137 171.37 419.137ZM171.22 412.164C170.604 412.164 170.085 412.39 169.661 412.841C169.242 413.292 168.987 413.898 168.896 414.659H173.332V414.57C173.309 413.859 173.106 413.281 172.724 412.834C172.341 412.387 171.84 412.164 171.22 412.164ZM182.561 412.301C182.387 412.269 182.203 412.253 182.007 412.253C181.496 412.253 181.063 412.396 180.708 412.684C180.357 412.966 180.106 413.379 179.956 413.921V419H179.143V411.604H179.942L179.956 412.779C180.389 411.904 181.084 411.467 182.041 411.467C182.269 411.467 182.449 411.496 182.581 411.556L182.561 412.301ZM186.587 419.137C185.958 419.137 185.388 418.982 184.878 418.672C184.372 418.362 183.978 417.931 183.695 417.38C183.413 416.824 183.271 416.202 183.271 415.514V415.22C183.271 414.509 183.408 413.868 183.682 413.299C183.96 412.729 184.345 412.283 184.837 411.959C185.329 411.631 185.862 411.467 186.437 411.467C187.334 411.467 188.045 411.774 188.569 412.39C189.098 413 189.362 413.837 189.362 414.898V415.356H184.085V415.514C184.085 416.352 184.324 417.052 184.803 417.612C185.286 418.168 185.892 418.446 186.621 418.446C187.059 418.446 187.444 418.367 187.776 418.207C188.114 418.048 188.419 417.792 188.692 417.441L189.205 417.831C188.604 418.701 187.731 419.137 186.587 419.137ZM186.437 412.164C185.821 412.164 185.302 412.39 184.878 412.841C184.459 413.292 184.203 413.898 184.112 414.659H188.549V414.57C188.526 413.859 188.323 413.281 187.94 412.834C187.558 412.387 187.056 412.164 186.437 412.164ZM195.385 417.12C195.385 416.715 195.221 416.389 194.893 416.143C194.569 415.896 194.079 415.705 193.423 415.568C192.767 415.427 192.256 415.268 191.892 415.09C191.532 414.908 191.263 414.687 191.085 414.427C190.912 414.167 190.825 413.853 190.825 413.483C190.825 412.9 191.069 412.419 191.557 412.041C192.044 411.658 192.669 411.467 193.43 411.467C194.255 411.467 194.915 411.672 195.412 412.082C195.913 412.488 196.164 413.019 196.164 413.675H195.344C195.344 413.242 195.161 412.882 194.797 412.595C194.437 412.308 193.981 412.164 193.43 412.164C192.892 412.164 192.459 412.285 192.131 412.526C191.807 412.763 191.646 413.073 191.646 413.456C191.646 413.825 191.78 414.112 192.049 414.317C192.322 414.518 192.817 414.702 193.532 414.871C194.252 415.04 194.79 415.22 195.146 415.411C195.506 415.603 195.772 415.833 195.945 416.102C196.118 416.37 196.205 416.696 196.205 417.079C196.205 417.703 195.952 418.202 195.446 418.576C194.945 418.95 194.289 419.137 193.478 419.137C192.616 419.137 191.917 418.929 191.379 418.515C190.846 418.095 190.579 417.567 190.579 416.929H191.399C191.431 417.407 191.632 417.781 192.001 418.05C192.375 418.314 192.867 418.446 193.478 418.446C194.047 418.446 194.507 418.321 194.858 418.07C195.209 417.82 195.385 417.503 195.385 417.12ZM202.809 418.063C202.316 418.779 201.53 419.137 200.45 419.137C199.662 419.137 199.062 418.909 198.652 418.453C198.242 417.993 198.033 417.314 198.023 416.416V411.604H198.837V416.313C198.837 417.722 199.407 418.426 200.546 418.426C201.731 418.426 202.48 417.936 202.795 416.956V411.604H203.615V419H202.822L202.809 418.063ZM206.664 419H205.844V408.5H206.664V419ZM210.164 409.71V411.604H211.695V412.273H210.164V417.202C210.164 417.612 210.237 417.918 210.383 418.118C210.533 418.319 210.782 418.419 211.128 418.419C211.265 418.419 211.486 418.396 211.791 418.351L211.825 419.021C211.611 419.098 211.319 419.137 210.95 419.137C210.39 419.137 209.982 418.975 209.727 418.651C209.471 418.323 209.344 417.842 209.344 417.209V412.273H207.983V411.604H209.344V409.71H210.164ZM217.82 417.12C217.82 416.715 217.656 416.389 217.328 416.143C217.005 415.896 216.515 415.705 215.858 415.568C215.202 415.427 214.692 415.268 214.327 415.09C213.967 414.908 213.698 414.687 213.521 414.427C213.347 414.167 213.261 413.853 213.261 413.483C213.261 412.9 213.505 412.419 213.992 412.041C214.48 411.658 215.104 411.467 215.865 411.467C216.69 411.467 217.351 411.672 217.848 412.082C218.349 412.488 218.6 413.019 218.6 413.675H217.779C217.779 413.242 217.597 412.882 217.232 412.595C216.872 412.308 216.417 412.164 215.865 412.164C215.327 412.164 214.895 412.285 214.566 412.526C214.243 412.763 214.081 413.073 214.081 413.456C214.081 413.825 214.215 414.112 214.484 414.317C214.758 414.518 215.252 414.702 215.968 414.871C216.688 415.04 217.226 415.22 217.581 415.411C217.941 415.603 218.208 415.833 218.381 416.102C218.554 416.37 218.641 416.696 218.641 417.079C218.641 417.703 218.388 418.202 217.882 418.576C217.381 418.95 216.724 419.137 215.913 419.137C215.052 419.137 214.352 418.929 213.814 418.515C213.281 418.095 213.015 417.567 213.015 416.929H213.835C213.867 417.407 214.067 417.781 214.437 418.05C214.81 418.314 215.302 418.446 215.913 418.446C216.483 418.446 216.943 418.321 217.294 418.07C217.645 417.82 217.82 417.503 217.82 417.12Z" fill="black"/>
</svg>
